<?xml version="1.0" encoding="UTF-8" standalone="no"?>
<!-- Created with Inkscape (http://www.inkscape.org/) -->

<svg
   xmlns:dc="http://purl.org/dc/elements/1.1/"
   xmlns:cc="http://creativecommons.org/ns#"
   xmlns:rdf="http://www.w3.org/1999/02/22-rdf-syntax-ns#"
   xmlns:svg="http://www.w3.org/2000/svg"
   xmlns="http://www.w3.org/2000/svg"
   xmlns:sodipodi="http://sodipodi.sourceforge.net/DTD/sodipodi-0.dtd"
   xmlns:inkscape="http://www.inkscape.org/namespaces/inkscape"
   width="210mm"
   height="297mm"
   viewBox="0 0 210 297"
   version="1.1"
   id="svg5117"
   sodipodi:docname="left-right-9.svg"
   inkscape:version="0.92.4 (5da689c313, 2019-01-14)">
         <style>
      @import "svg.css";
   </style>
  <defs
     id="defs5111" />
  <sodipodi:namedview
     id="base"
     pagecolor="#ffffff"
     bordercolor="#666666"
     borderopacity="1.0"
     inkscape:pageopacity="0.0"
     inkscape:pageshadow="2"
     inkscape:zoom="0.35"
     inkscape:cx="-64.285714"
     inkscape:cy="560"
     inkscape:document-units="mm"
     inkscape:current-layer="layer1"
     showgrid="false"
     inkscape:window-width="1680"
     inkscape:window-height="987"
     inkscape:window-x="-8"
     inkscape:window-y="-8"
     inkscape:window-maximized="1" />
  <metadata
     id="metadata5114">
    <rdf:RDF>
      <cc:Work
         rdf:about="">
        <dc:format>image/svg+xml</dc:format>
        <dc:type
           rdf:resource="http://purl.org/dc/dcmitype/StillImage" />
        <dc:title></dc:title>
      </cc:Work>
    </rdf:RDF>
  </metadata>
  <g
     inkscape:label="Layer 1"
     inkscape:groupmode="layer"
     id="layer1">
    <path
      class="stroke-single"
      fill="none"
      stroke-width="0.26458332px"
      stroke-linecap="butt"
      stroke-linejoin="miter"
      stroke-opacity="1"       d="m -6.047619,12.761905 c 0,0 12.095238,21.166666 21.922619,7.559523 C 25.702381,6.7142857 15.119047,1.422619 9.0714284,6.7142857 3.0238094,12.005952 11.339286,34.684522 26.458333,26.369047 41.577381,18.053571 28.72619,11.25 45.357142,10.494047 61.988093,9.738095 82.398808,15.785714 67.27976,23.345238 52.160714,30.904762 55.184523,24.857142 48.380951,15.785714 41.577381,6.7142857 67.27976,4.4464284 68.791666,4.4464284 c 1.511906,0 49.136904,11.3392856 24.946427,17.3869046 C 69.547617,27.880953 79.374999,6.7142857 89.958332,8.2261905 100.54167,9.738095 101.29762,30.14881 120.19643,22.589285 c 18.89881,-7.559523 21.16666,-15.8749993 7.55952,-15.8749993 -13.60714,0 -13.60714,15.1190473 -3.02381,17.3869043 10.58333,2.267857 19.65476,-12.095238 30.2381,-11.339285 10.58333,0.755952 6.80357,15.874999 3.02381,16.630951 -3.77977,0.755954 -12.09524,0.755954 -9.82739,-8.315475 2.26786,-9.071429 13.60715,-18.8988096 24.94643,-10.583334 11.33929,8.315477 15.875,21.922621 26.45833,14.363095 C 210.15476,17.297619 222.25,13.517857 222.25,13.517857"
       id="path5687"
       inkscape:connector-curvature="0" />
  </g>
</svg>
