<?xml version="1.0" encoding="UTF-8" standalone="no"?>
<!-- Created with Inkscape (http://www.inkscape.org/) -->

<svg
   xmlns:dc="http://purl.org/dc/elements/1.1/"
   xmlns:cc="http://creativecommons.org/ns#"
   xmlns:rdf="http://www.w3.org/1999/02/22-rdf-syntax-ns#"
   xmlns:svg="http://www.w3.org/2000/svg"
   xmlns="http://www.w3.org/2000/svg"
   xmlns:sodipodi="http://sodipodi.sourceforge.net/DTD/sodipodi-0.dtd"
   xmlns:inkscape="http://www.inkscape.org/namespaces/inkscape"
   width="210mm"
   height="297mm"
   viewBox="0 0 210 297"
   version="1.1"
   id="svg5117"
   sodipodi:docname="left-right-4.svg"
   inkscape:version="0.92.4 (5da689c313, 2019-01-14)">
            <style>
      @import "svg.css";
   </style>
  <defs
     id="defs5111" />
  <sodipodi:namedview
     id="base"
     pagecolor="#ffffff"
     bordercolor="#666666"
     borderopacity="1.0"
     inkscape:pageopacity="0.0"
     inkscape:pageshadow="2"
     inkscape:zoom="0.35"
     inkscape:cx="-64.285714"
     inkscape:cy="560"
     inkscape:document-units="mm"
     inkscape:current-layer="layer1"
     showgrid="false"
     inkscape:window-width="1680"
     inkscape:window-height="987"
     inkscape:window-x="-8"
     inkscape:window-y="-8"
     inkscape:window-maximized="1" />
  <metadata
     id="metadata5114">
    <rdf:RDF>
      <cc:Work
         rdf:about="">
        <dc:format>image/svg+xml</dc:format>
        <dc:type
           rdf:resource="http://purl.org/dc/dcmitype/StillImage" />
        <dc:title></dc:title>
      </cc:Work>
    </rdf:RDF>
  </metadata>
  <g
     inkscape:label="Layer 1"
     inkscape:groupmode="layer"
     id="layer1">
    <path
      class="stroke-single"
      fill="none"
      stroke-width="0.26458332px"
      stroke-linecap="butt"
      stroke-linejoin="miter"
      stroke-opacity="1"       d="m -9.0714284,22.589285 c 0,0 30.9940474,25.702382 39.3095224,13.607143 C 38.553572,24.10119 44.60119,18.053571 29.482142,15.785714 14.363095,13.517857 4.5357142,23.345238 17.386905,29.392856 30.238094,35.440477 38.553572,36.95238 52.160714,27.880953 65.767857,18.809524 73.327381,-0.84523809 85.422617,14.273809 97.517856,29.392856 97.517856,46.02381 82.398808,37.708334 67.27976,29.392856 60.47619,21.833333 75.595238,21.833333 c 15.119046,0 30.994042,15.119047 41.577382,6.04762 10.58333,-9.071429 19.65476,-21.1666673 0.75595,-15.119048 -18.89881,6.047619 -25.70238,18.142857 -3.02381,21.166666 22.67857,3.023809 18.89881,-5.291667 36.28571,-12.095238 17.38691,-6.803571 46.1131,-7.559524 28.72619,2.267857 -17.3869,9.827381 -24.19047,21.166666 -22.67857,3.023811 C 158.75,8.9821426 148.16666,0.66666665 168.57738,8.9821426 188.98809,17.297619 164.04166,32.416668 189.74405,30.14881 215.44642,27.880953 229.05357,12.761905 229.05357,12.761905"
       id="path5689"
       inkscape:connector-curvature="0" />
  </g>
</svg>
