<?xml version="1.0" encoding="UTF-8" standalone="no"?>
<!-- Created with Inkscape (http://www.inkscape.org/) -->

<svg
   xmlns:dc="http://purl.org/dc/elements/1.1/"
   xmlns:cc="http://creativecommons.org/ns#"
   xmlns:rdf="http://www.w3.org/1999/02/22-rdf-syntax-ns#"
   xmlns:svg="http://www.w3.org/2000/svg"
   xmlns="http://www.w3.org/2000/svg"
   xmlns:sodipodi="http://sodipodi.sourceforge.net/DTD/sodipodi-0.dtd"
   xmlns:inkscape="http://www.inkscape.org/namespaces/inkscape"
   width="210mm"
   height="297mm"
   viewBox="0 0 210 297"
   version="1.1"
   id="svg5117"
   sodipodi:docname="left-right-6.svg"
   inkscape:version="0.92.4 (5da689c313, 2019-01-14)">
      <style>
      @import "svg.css";
   </style>
  <defs
     id="defs5111" />
  <sodipodi:namedview
     id="base"
     pagecolor="#ffffff"
     bordercolor="#666666"
     borderopacity="1.0"
     inkscape:pageopacity="0.0"
     inkscape:pageshadow="2"
     inkscape:zoom="0.35"
     inkscape:cx="-64.285714"
     inkscape:cy="560"
     inkscape:document-units="mm"
     inkscape:current-layer="layer1"
     showgrid="false"
     inkscape:window-width="1680"
     inkscape:window-height="987"
     inkscape:window-x="-8"
     inkscape:window-y="-8"
     inkscape:window-maximized="1" />
  <metadata
     id="metadata5114">
    <rdf:RDF>
      <cc:Work
         rdf:about="">
        <dc:format>image/svg+xml</dc:format>
        <dc:type
           rdf:resource="http://purl.org/dc/dcmitype/StillImage" />
        <dc:title></dc:title>
      </cc:Work>
    </rdf:RDF>
  </metadata>
  <g
     inkscape:label="Layer 1"
     inkscape:groupmode="layer"
     id="layer1">
    <path
      class="stroke-single"
      fill="none"
      stroke-width="0.26458332px"
      stroke-linecap="butt"
      stroke-linejoin="miter"
      stroke-opacity="1"
       d="m -6.047619,11.25 c 0,0 19.654762,-18.8988093 30.994047,-9.0714286 11.339287,9.8273806 13.607144,20.4107136 23.434523,21.1666666 9.827382,0.755952 13.607142,-9.071429 25.702381,-12.851191 12.095239,-3.7797613 13.607143,9.071429 6.047619,12.095238 -7.559524,3.02381 -25.702379,1.511905 -19.654761,-8.315476 6.047618,-9.8273806 19.654761,-11.3392851 31.75,-1.511904 12.09524,9.82738 20.41071,16.630951 28.72619,12.85119 8.31548,-3.779762 5.29167,-11.339286 17.3869,-15.119048 12.09524,-3.7797613 18.89881,-4.5357138 22.67858,3.02381 3.77976,7.559524 15.11904,20.410714 18.14285,9.827381 C 182.18452,12.761905 184.45238,3.690476 171.60119,6.7142857 158.75,9.738095 167.06547,31.660713 177.64881,29.392856 188.23214,27.125001 190.5,18.053571 201.83928,14.273809 c 11.33929,-3.779762 18.89881,1.511905 18.89881,1.511905"
       id="path5685"
       inkscape:connector-curvature="0" />
  </g>
</svg>
