<?xml version="1.0" encoding="UTF-8" standalone="no"?>
<!-- Created with Inkscape (http://www.inkscape.org/) -->

<svg
   xmlns:dc="http://purl.org/dc/elements/1.1/"
   xmlns:cc="http://creativecommons.org/ns#"
   xmlns:rdf="http://www.w3.org/1999/02/22-rdf-syntax-ns#"
   xmlns:svg="http://www.w3.org/2000/svg"
   xmlns="http://www.w3.org/2000/svg"
   xmlns:sodipodi="http://sodipodi.sourceforge.net/DTD/sodipodi-0.dtd"
   xmlns:inkscape="http://www.inkscape.org/namespaces/inkscape"
   width="210mm"
   height="297mm"
   viewBox="0 0 210 297"
   version="1.1"
   id="svg5117"
   sodipodi:docname="new-1.svg"
   inkscape:version="0.92.4 (5da689c313, 2019-01-14)">
  <defs
     id="defs5111" />
  <sodipodi:namedview
     id="base"
     pagecolor="#ffffff"
     bordercolor="#666666"
     borderopacity="1.0"
     inkscape:pageopacity="0.0"
     inkscape:pageshadow="2"
     inkscape:zoom="0.35"
     inkscape:cx="-64.285714"
     inkscape:cy="560"
     inkscape:document-units="mm"
     inkscape:current-layer="layer1"
     showgrid="false"
     inkscape:window-width="1680"
     inkscape:window-height="987"
     inkscape:window-x="-8"
     inkscape:window-y="-8"
     inkscape:window-maximized="1" />
  <metadata
     id="metadata5114">
    <rdf:RDF>
      <cc:Work
         rdf:about="">
        <dc:format>image/svg+xml</dc:format>
        <dc:type
           rdf:resource="http://purl.org/dc/dcmitype/StillImage" />
        <dc:title></dc:title>
      </cc:Work>
    </rdf:RDF>
  </metadata>
  <g
     inkscape:label="Layer 1"
     inkscape:groupmode="layer"
     id="layer1">
    <path
       style="fill:none;stroke:#00e800;stroke-width:0.26458332px;stroke-linecap:butt;stroke-linejoin:miter;stroke-opacity:1"
       d="m 102.80952,-4.625 c 1.51191,4.53571429 3.77976,33.261904 -21.166664,34.77381 -24.946429,1.511903 -44.60119,6.047618 -46.113096,27.970236 -1.511903,21.922621 43.089287,37.797621 25.702382,68.035714 -17.386903,30.23809 -53.6726182,-4.53571 -36.285714,50.64881 17.386905,55.18452 117.928572,85.42262 97.517852,98.2738 -20.41071,12.85121 -139.851185,-30.23809 -85.422614,-61.23213 54.428572,-30.99405 68.035714,38.55357 99.785714,7.55952 31.75,-30.99405 61.23214,-37.04167 32.50595,-65.01191 -28.72619,-27.97023 -103.565473,-29.48214 -73.32738,21.16667 30.2381,50.64881 15.875,98.27381 58.20833,63.5 42.33334,-34.77381 61.23214,-101.29762 50.64881,-116.41667 -10.58333,-15.11904 -86.93452,18.89882 -63.5,36.28572 23.43453,17.3869 37.79762,40.82143 45.35715,11.33928 7.55952,-29.48214 -30.2381,-55.18452 -10.58334,-86.934516 19.65476,-31.75 32.50595,-18.898812 18.14286,-43.845239 -14.3631,-24.946429 3.77976,-48.3809522 -27.97024,-33.2619045 -31.75,15.1190475 3.02381,55.1845225 10.58334,43.8452375 7.55952,-11.339285 16.63095,-35.529762 -9.82739,-38.553571 -26.45833,-3.02381 -25.70238,-3.02381 -44.60119,15.874999 C 103.56547,48.291667 95.249999,61.142855 89.202381,36.196428 83.15476,11.25 96.761905,-5.3809524 111.88095,17.297619 127,39.976189 136.82738,21.077381 123.22024,46.779761 109.61309,72.482143 111.125,73.238094 114.14881,76.261904"
       id="path5683"
       inkscape:connector-curvature="0" />
  </g>
</svg>
