<?xml version="1.0" encoding="UTF-8" standalone="no"?>
<!-- Created with Inkscape (http://www.inkscape.org/) -->

<svg
   xmlns:dc="http://purl.org/dc/elements/1.1/"
   xmlns:cc="http://creativecommons.org/ns#"
   xmlns:rdf="http://www.w3.org/1999/02/22-rdf-syntax-ns#"
   xmlns:svg="http://www.w3.org/2000/svg"
   xmlns="http://www.w3.org/2000/svg"
   xmlns:sodipodi="http://sodipodi.sourceforge.net/DTD/sodipodi-0.dtd"
   xmlns:inkscape="http://www.inkscape.org/namespaces/inkscape"
   width="210mm"
   height="297mm"
   viewBox="0 0 210 297"
   version="1.1"
   id="svg5117"
   sodipodi:docname="new-top-5.svg"
   inkscape:version="0.92.4 (5da689c313, 2019-01-14)">
  <defs
     id="defs5111" />
  <sodipodi:namedview
     id="base"
     pagecolor="#ffffff"
     bordercolor="#666666"
     borderopacity="1.0"
     inkscape:pageopacity="0.0"
     inkscape:pageshadow="2"
     inkscape:zoom="0.35"
     inkscape:cx="-64.285714"
     inkscape:cy="560"
     inkscape:document-units="mm"
     inkscape:current-layer="layer1"
     showgrid="false"
     inkscape:window-width="1680"
     inkscape:window-height="987"
     inkscape:window-x="-8"
     inkscape:window-y="-8"
     inkscape:window-maximized="1" />
  <metadata
     id="metadata5114">
    <rdf:RDF>
      <cc:Work
         rdf:about="">
        <dc:format>image/svg+xml</dc:format>
        <dc:type
           rdf:resource="http://purl.org/dc/dcmitype/StillImage" />
        <dc:title></dc:title>
      </cc:Work>
    </rdf:RDF>
  </metadata>
  <g
     inkscape:label="Layer 1"
     inkscape:groupmode="layer"
     id="layer1">
    <path
       style="fill:none;stroke:#00e700;stroke-width:0.26458332px;stroke-linecap:butt;stroke-linejoin:miter;stroke-opacity:1"
       d="m 164.79762,-16.720238 c 0,0 76.35119,57.452381 24.19047,85.422618 -52.16071,27.970238 -81.64285,-37.797618 -52.91666,-38.55357 28.72619,-0.755954 56.69643,36.285712 28.72619,54.428569 C 136.82738,102.72024 111.88095,36.196428 84.666666,33.928571 57.452381,31.660713 24.946428,53.583334 38.553572,69.458334 c 13.607142,15.875 41.577379,-20.410715 41.577379,-23.434524 0,-3.023809 19.654763,-56.696429 -18.898809,-30.994048 -38.553571,25.702381 -16.630952,68.791666 8.315475,65.767857 24.94643,-3.02381 30.238097,-41.577382 43.845243,-21.922618 13.60714,19.65476 -3.77977,24.946427 -9.82739,42.333329 -6.047614,17.38691 5.29167,26.45834 0,34.77381"
       id="path5677"
       inkscape:connector-curvature="0" />
  </g>
</svg>
