<?xml version="1.0" encoding="UTF-8" standalone="no"?>
<!-- Created with Inkscape (http://www.inkscape.org/) -->

<svg
   xmlns:osb="http://www.openswatchbook.org/uri/2009/osb"
   xmlns:dc="http://purl.org/dc/elements/1.1/"
   xmlns:cc="http://creativecommons.org/ns#"
   xmlns:rdf="http://www.w3.org/1999/02/22-rdf-syntax-ns#"
   xmlns:svg="http://www.w3.org/2000/svg"
   xmlns="http://www.w3.org/2000/svg"
   xmlns:sodipodi="http://sodipodi.sourceforge.net/DTD/sodipodi-0.dtd"
   xmlns:inkscape="http://www.inkscape.org/namespaces/inkscape"
   width="210mm"
   height="30mm"
   viewBox="0 0 210 30"
   version="1.1"
   id="svg5117"
   sodipodi:docname="
   to-right-5.svg"
   inkscape:version="0.92.4 (5da689c313, 2019-01-14)">
               <style>
      @import "svg.css";
   </style>
  <defs
     id="defs5111">
    <inkscape:path-effect
       effect="spiro"
       id="path-effect8872"
       is_visible="true" />
    <inkscape:path-effect
       effect="spiro"
       id="path-effect8868"
       is_visible="true" />
    <inkscape:path-effect
       effect="spiro"
       id="path-effect8864"
       is_visible="true" />
    <inkscape:path-effect
       effect="spiro"
       id="path-effect8860"
       is_visible="true" />
    <inkscape:path-effect
       effect="spiro"
       id="path-effect8854"
       is_visible="true" />
    <inkscape:path-effect
       effect="spiro"
       id="path-effect8850"
       is_visible="true" />
    <inkscape:path-effect
       effect="skeletal"
       id="path-effect8838"
       is_visible="true"
       pattern="M 0,5 C 0,2.24 2.24,0 5,0 7.76,0 10,2.24 10,5 10,7.76 7.76,10 5,10 2.24,10 0,7.76 0,5 Z"
       copytype="single_stretched"
       prop_scale="0.26458333"
       scale_y_rel="false"
       spacing="0"
       normal_offset="0"
       tang_offset="0"
       prop_units="false"
       vertical_pattern="false"
       fuse_tolerance="0" />
    <inkscape:path-effect
       effect="spiro"
       id="path-effect8836"
       is_visible="true" />
    <marker
       inkscape:stockid="Arrow2Lstart"
       orient="auto"
       refY="0"
       refX="0"
       id="Arrow2Lstart"
       style="overflow:visible"
       inkscape:isstock="true">
      <path
         id="path7647"
         style="fill:#00e800;fill-opacity:1;fill-rule:evenodd;stroke:#00e800;stroke-width:0.625;stroke-linejoin:round;stroke-opacity:1"
         d="M 8.7185878,4.0337352 -2.2072895,0.01601326 8.7185884,-4.0017078 c -1.7454984,2.3720609 -1.7354408,5.6174519 -6e-7,8.035443 z"
         transform="matrix(1.1,0,0,1.1,1.1,0)"
         inkscape:connector-curvature="0" />
    </marker>
    <marker
       inkscape:stockid="Arrow1Sstart"
       orient="auto"
       refY="0"
       refX="0"
       id="Arrow1Sstart"
       style="overflow:visible"
       inkscape:isstock="true">
      <path
         id="path7641"
         d="M 0,0 5,-5 -12.5,0 5,5 Z"
         style="fill:#00e800;fill-opacity:1;fill-rule:evenodd;stroke:#00e800;stroke-width:1.00000003pt;stroke-opacity:1"
         transform="matrix(0.2,0,0,0.2,1.2,0)"
         inkscape:connector-curvature="0" />
    </marker>
    <marker
       inkscape:stockid="Arrow1Send"
       orient="auto"
       refY="0"
       refX="0"
       id="Arrow1Send"
       style="overflow:visible"
       inkscape:isstock="true">
      <path
         id="path7644"
         d="M 0,0 5,-5 -12.5,0 5,5 Z"
         style="fill:#00e800;fill-opacity:1;fill-rule:evenodd;stroke:#00e800;stroke-width:1.00000003pt;stroke-opacity:1"
         transform="matrix(-0.2,0,0,-0.2,-1.2,0)"
         inkscape:connector-curvature="0" />
    </marker>
    <marker
       inkscape:stockid="Arrow1Lend"
       orient="auto"
       refY="0"
       refX="0"
       id="Arrow1Lend"
       style="overflow:visible"
       inkscape:isstock="true">
      <path
         id="path7632"
         d="M 0,0 5,-5 -12.5,0 5,5 Z"
         style="fill:#00e800;fill-opacity:1;fill-rule:evenodd;stroke:#00e800;stroke-width:1.00000003pt;stroke-opacity:1"
         transform="matrix(-0.8,0,0,-0.8,-10,0)"
         inkscape:connector-curvature="0" />
    </marker>
    <marker
       style="overflow:visible"
       inkscape:stockid="InfiniteLineStart"
       id="InfiniteLineStart"
       refX="0"
       refY="0"
       orient="auto"
       inkscape:isstock="true">
      <g
         id="g7879"
         style="fill:#00e800;fill-opacity:1;stroke:#00e800;stroke-opacity:1"
         transform="translate(-13)">
        <circle
           id="circle7873"
           r="0.80000001"
           cy="0"
           cx="3"
           style="fill:#00e800;fill-opacity:1;stroke:#00e800;stroke-opacity:1" />
        <circle
           id="circle7875"
           r="0.80000001"
           cy="0"
           cx="6.5"
           style="fill:#00e800;fill-opacity:1;stroke:#00e800;stroke-opacity:1" />
        <circle
           id="circle7877"
           r="0.80000001"
           cy="0"
           cx="10"
           style="fill:#00e800;fill-opacity:1;stroke:#00e800;stroke-opacity:1" />
      </g>
    </marker>
    <marker
       inkscape:stockid="Scissors"
       orient="auto"
       refY="0"
       refX="0"
       id="Scissors"
       style="overflow:visible"
       inkscape:isstock="true">
      <path
         id="schere"
         d="M 9.0898857,-3.6061018 C 8.1198849,-4.7769976 6.3697607,-4.7358294 5.0623558,-4.2327734 l -8.2124046,3.0779029 c -2.3882933,-1.3067135 -4.7482873,-0.9325372 -4.7482873,-1.5687873 0,-0.4973164 0.4566662,-0.3883222 0.3883068,-1.6831941 -0.065635,-1.2432767 -1.3635771,-2.1630796 -2.5903987,-2.0816435 -1.227271,-0.00735 -2.499439,0.9331613 -2.510341,2.2300611 -0.09143,1.3063864 1.007209,2.5196896 2.306764,2.6052316 1.5223406,0.2266616 4.218258,-0.6955566 5.482945,1.57086006 -0.9422847,1.73825774 -2.6140244,1.74307674 -4.1255107,1.65607034 -1.2548743,-0.072235 -2.7620933,0.2873979 -3.3606483,1.5208605 -0.578367,1.1820862 -0.0112,2.8646022 1.316749,3.226412 1.3401912,0.4918277 3.1806689,-0.129711 3.4993722,-1.6707242 0.2456585,-1.187823 -0.5953659,-1.7459574 -0.2725074,-2.1771537 0.2436135,-0.32536 1.7907806,-0.1368452 4.5471053,-1.3748244 L 5.6763468,4.2330688 C 6.8000164,4.5467672 8.1730685,4.5362646 9.1684433,3.4313614 l -9.22008423,-3.48508362 z m -18.3078016,-1.900504 c 1.294559,0.7227998 1.1888392,2.6835702 -0.1564272,3.0632889 -1.2165179,0.423661 -2.7710269,-0.7589694 -2.3831779,-2.0774648 0.227148,-1.0818519 1.653387,-1.480632 2.5396051,-0.9858241 z m 0.056264,8.0173649 c 1.3508301,0.4988648 1.1214429,2.7844356 -0.2522207,3.091609 -0.9110594,0.3163391 -2.2135494,-0.1387976 -2.3056964,-1.2121394 -0.177609,-1.305055 1.356085,-2.4841482 2.5579171,-1.8794696 z"
         style="fill:#00e800;fill-opacity:1;stroke:#00e800;stroke-opacity:1"
         inkscape:connector-curvature="0" />
    </marker>
    <marker
       inkscape:stockid="EmptyTriangleOutL"
       orient="auto"
       refY="0"
       refX="0"
       id="EmptyTriangleOutL"
       style="overflow:visible"
       inkscape:isstock="true">
      <path
         id="path7789"
         d="M 5.77,0 -2.88,5 V -5 Z"
         style="fill:#ffffff;fill-rule:evenodd;stroke:#00e800;stroke-width:1.00000003pt;stroke-opacity:1"
         transform="matrix(0.8,0,0,0.8,-4.8,0)"
         inkscape:connector-curvature="0" />
    </marker>
    <marker
       inkscape:stockid="Tail"
       orient="auto"
       refY="0"
       refX="0"
       id="Tail"
       style="overflow:visible"
       inkscape:isstock="true">
      <g
         id="g7677"
         transform="scale(-1.2)"
         style="fill:#00e800;fill-opacity:1;stroke:#00e800;stroke-opacity:1">
        <path
           id="path7665"
           d="M -3.8048674,-3.9585227 0.54352094,0"
           style="fill:#00e800;fill-opacity:1;fill-rule:evenodd;stroke:#00e800;stroke-width:0.80000001;stroke-linecap:round;stroke-opacity:1"
           inkscape:connector-curvature="0" />
        <path
           id="path7667"
           d="M -1.2866832,-3.9585227 3.0617053,0"
           style="fill:#00e800;fill-opacity:1;fill-rule:evenodd;stroke:#00e800;stroke-width:0.80000001;stroke-linecap:round;stroke-opacity:1"
           inkscape:connector-curvature="0" />
        <path
           id="path7669"
           d="M 1.3053582,-3.9585227 5.6537466,0"
           style="fill:#00e800;fill-opacity:1;fill-rule:evenodd;stroke:#00e800;stroke-width:0.80000001;stroke-linecap:round;stroke-opacity:1"
           inkscape:connector-curvature="0" />
        <path
           id="path7671"
           d="M -3.8048674,4.1775838 0.54352094,0.21974226"
           style="fill:#00e800;fill-opacity:1;fill-rule:evenodd;stroke:#00e800;stroke-width:0.80000001;stroke-linecap:round;stroke-opacity:1"
           inkscape:connector-curvature="0" />
        <path
           id="path7673"
           d="M -1.2866832,4.1775838 3.0617053,0.21974226"
           style="fill:#00e800;fill-opacity:1;fill-rule:evenodd;stroke:#00e800;stroke-width:0.80000001;stroke-linecap:round;stroke-opacity:1"
           inkscape:connector-curvature="0" />
        <path
           id="path7675"
           d="M 1.3053582,4.1775838 5.6537466,0.21974226"
           style="fill:#00e800;fill-opacity:1;fill-rule:evenodd;stroke:#00e800;stroke-width:0.80000001;stroke-linecap:round;stroke-opacity:1"
           inkscape:connector-curvature="0" />
      </g>
    </marker>
    <marker
       inkscape:stockid="DotL"
       orient="auto"
       refY="0"
       refX="0"
       id="DotL"
       style="overflow:visible"
       inkscape:isstock="true">
      <path
         id="path7690"
         d="m -2.5,-1 c 0,2.76 -2.24,5 -5,5 -2.76,0 -5,-2.24 -5,-5 0,-2.76 2.24,-5 5,-5 2.76,0 5,2.24 5,5 z"
         style="fill:#00e800;fill-opacity:1;fill-rule:evenodd;stroke:#00e800;stroke-width:1.00000003pt;stroke-opacity:1"
         transform="matrix(0.8,0,0,0.8,5.92,0.8)"
         inkscape:connector-curvature="0" />
    </marker>
    <marker
       style="overflow:visible"
       id="DistanceStart"
       refX="0"
       refY="0"
       orient="auto"
       inkscape:stockid="DistanceStart"
       inkscape:isstock="true">
      <g
         id="g2300"
         style="fill:#00e800;fill-opacity:1;stroke:#00e800;stroke-opacity:1">
        <path
           style="fill:#00e800;fill-opacity:1;stroke:#00e800;stroke-width:1.14999998;stroke-linecap:square;stroke-opacity:1"
           d="M 0,0 H 2"
           id="path2306"
           inkscape:connector-curvature="0" />
        <path
           style="fill:#00e800;fill-opacity:1;fill-rule:evenodd;stroke:#00e800;stroke-opacity:1"
           d="M 0,0 13,4 9,0 13,-4 Z"
           id="path2302"
           inkscape:connector-curvature="0" />
        <path
           style="fill:#00e800;fill-opacity:1;stroke:#00e800;stroke-width:1;stroke-linecap:square;stroke-opacity:1"
           d="M 0,-4 V 40"
           id="path2304"
           inkscape:connector-curvature="0" />
      </g>
    </marker>
    <marker
       inkscape:stockid="Arrow1Lstart"
       orient="auto"
       refY="0"
       refX="0"
       id="Arrow1Lstart"
       style="overflow:visible"
       inkscape:isstock="true">
      <path
         id="path7629"
         d="M 0,0 5,-5 -12.5,0 5,5 Z"
         style="fill:#00e800;fill-opacity:1;fill-rule:evenodd;stroke:#00e800;stroke-width:1.00000003pt;stroke-opacity:1"
         transform="matrix(0.8,0,0,0.8,10,0)"
         inkscape:connector-curvature="0" />
    </marker>
    <linearGradient
       id="linearGradient7625"
       osb:paint="solid">
      <stop
         style="stop-color:#000000;stop-opacity:1;"
         offset="0"
         id="stop7623" />
    </linearGradient>
    <inkscape:path-effect
       effect="skeletal"
       id="path-effect6163"
       is_visible="true"
       pattern="M 0,5 C 0,2.24 2.24,0 5,0 7.76,0 10,2.24 10,5 10,7.76 7.76,10 5,10 2.24,10 0,7.76 0,5 Z"
       copytype="single_stretched"
       prop_scale="0.26458333"
       scale_y_rel="false"
       spacing="0"
       normal_offset="0"
       tang_offset="0"
       prop_units="false"
       vertical_pattern="false"
       fuse_tolerance="0" />
    <inkscape:path-effect
       effect="bspline"
       id="path-effect6161"
       is_visible="true"
       weight="33.333333"
       steps="2"
       helper_size="0"
       apply_no_weight="true"
       apply_with_weight="true"
       only_selected="false" />
    <inkscape:path-effect
       effect="skeletal"
       id="path-effect6157"
       is_visible="true"
       pattern="M 0,5 C 0,2.24 2.24,0 5,0 7.76,0 10,2.24 10,5 10,7.76 7.76,10 5,10 2.24,10 0,7.76 0,5 Z"
       copytype="single_stretched"
       prop_scale="0.26458333"
       scale_y_rel="false"
       spacing="0"
       normal_offset="0"
       tang_offset="0"
       prop_units="false"
       vertical_pattern="false"
       fuse_tolerance="0" />
    <inkscape:path-effect
       effect="skeletal"
       id="path-effect6153"
       is_visible="true"
       pattern="M 0,5 C 0,2.24 2.24,0 5,0 7.76,0 10,2.24 10,5 10,7.76 7.76,10 5,10 2.24,10 0,7.76 0,5 Z"
       copytype="single_stretched"
       prop_scale="0.26458333"
       scale_y_rel="false"
       spacing="0"
       normal_offset="0"
       tang_offset="0"
       prop_units="false"
       vertical_pattern="false"
       fuse_tolerance="0" />
    <inkscape:path-effect
       effect="powerstroke"
       id="path-effect6149"
       is_visible="true"
       offset_points="0,0.13229166"
       sort_points="true"
       interpolator_type="CubicBezierJohan"
       interpolator_beta="0.2"
       start_linecap_type="zerowidth"
       linejoin_type="extrp_arc"
       miter_limit="4"
       end_linecap_type="zerowidth" />
    <inkscape:path-effect
       effect="powerstroke"
       id="path-effect6145"
       is_visible="true"
       offset_points="0,0.13229166"
       sort_points="true"
       interpolator_type="CubicBezierJohan"
       interpolator_beta="0.2"
       start_linecap_type="zerowidth"
       linejoin_type="extrp_arc"
       miter_limit="4"
       end_linecap_type="zerowidth" />
    <inkscape:path-effect
       effect="bspline"
       id="path-effect6137"
       is_visible="true"
       weight="33.333333"
       steps="2"
       helper_size="0"
       apply_no_weight="true"
       apply_with_weight="true"
       only_selected="false" />
    <inkscape:path-effect
       effect="spiro"
       id="path-effect6133"
       is_visible="true" />
  </defs>
  <sodipodi:namedview
     id="base"
     pagecolor="#ffffff"
     bordercolor="#666666"
     borderopacity="1.0"
     inkscape:pageopacity="0.0"
     inkscape:pageshadow="2"
     inkscape:zoom="1.4"
     inkscape:cx="385.39908"
     inkscape:cy="87.030953"
     inkscape:document-units="mm"
     inkscape:current-layer="layer1"
     showgrid="false"
     inkscape:window-width="1680"
     inkscape:window-height="987"
     inkscape:window-x="-8"
     inkscape:window-y="-8"
     inkscape:window-maximized="1"
     units="mm"
     height="30mm" />
  <metadata
     id="metadata5114">
    <rdf:RDF>
      <cc:Work
         rdf:about="">
        <dc:format>image/svg+xml</dc:format>
        <dc:type
           rdf:resource="http://purl.org/dc/dcmitype/StillImage" />
        <dc:title></dc:title>
      </cc:Work>
    </rdf:RDF>
  </metadata>
  <g
     inkscape:label="Layer 1"
     inkscape:groupmode="layer"
     id="layer1"
     transform="translate(0,-267)">
    <path
      class="stroke-single"
      fill="none"
      stroke-width="0.26458332px"
      stroke-linecap="butt"
      stroke-linejoin="miter"
      stroke-opacity="1"       d="m -2.4568452,286.60565 c 2.45379702,1.33041 5.5040668,1.50434 8.0931943,0.4615 2.5891276,-1.04284 4.6672969,-3.2824 5.5139479,-5.94215 0.327618,-1.02921 0.476482,-2.14688 0.196336,-3.19002 -0.140073,-0.52156 -0.387825,-1.01735 -0.744025,-1.42327 -0.356199,-0.40593 -0.8228193,-0.71937 -1.3421914,-0.86737 -0.6793926,-0.1936 -1.4329971,-0.0926 -2.0494208,0.25244 -0.6164238,0.34508 -1.0921833,0.92603 -1.3318042,1.59059 -0.2396209,0.66456 -0.2457974,1.40687 -0.040557,2.08284 0.20524,0.67597 0.617606,1.28398 1.1539251,1.74378 0.7780715,0.66706 1.7967354,1.01364 2.8181541,1.09775 1.0214186,0.0841 2.0495936,-0.08 3.0404766,-0.3418 2.870835,-0.75841 5.45825,-2.31639 7.953221,-3.92636 2.49497,-1.60997 4.968412,-3.3051 7.73279,-4.38912 2.598559,-1.01899 5.525186,-1.46426 8.188995,-0.63061 1.331904,0.41682 2.5732,1.15379 3.517335,2.18156 0.944134,1.02778 1.580101,2.35135 1.711826,3.74072 0.09318,0.98285 -0.07898,2.02067 -0.651781,2.82476 -0.286401,0.40205 -0.669887,0.7382 -1.117147,0.94707 -0.447261,0.20886 -0.958529,0.28699 -1.44387,0.19692 -0.437033,-0.0811 -0.845966,-0.29697 -1.170166,-0.60106 -0.324201,-0.30408 -0.564156,-0.69442 -0.703932,-1.11636 -0.279553,-0.84389 -0.150515,-1.79137 0.242501,-2.58877 0.393017,-0.79739 1.032337,-1.45422 1.753458,-1.97411 0.721122,-0.51989 1.525459,-0.91184 2.334985,-1.27922 1.104858,-0.50141 2.240034,-0.96574 3.436332,-1.16822 1.196298,-0.20248 2.469324,-0.12697 3.556227,0.41226 0.835321,0.41442 1.526895,1.08621 2.048151,1.85938 0.521255,0.77317 0.879487,1.64637 1.147717,2.53943 0.53646,1.78612 0.725006,3.6679 1.339845,5.42858 0.425626,1.21884 1.057718,2.37255 1.912779,3.33981 0.855061,0.96726 1.937445,1.74401 3.153933,2.17631 1.216488,0.43229 2.567469,0.51037 3.807671,0.15173 1.240202,-0.35864 2.358346,-1.16466 3.031867,-2.26607 0.628471,-1.02774 0.853729,-2.29597 0.612504,-3.47624 -0.241226,-1.18026 -0.947573,-2.25988 -1.935421,-2.94935 -1.255583,-0.87634 -2.897254,-1.09246 -4.398858,-0.79305 -1.501604,0.29942 -2.874601,1.07522 -4.073019,2.02824 -2.396836,1.90605 -4.169839,4.52414 -6.647169,6.32433 -2.662033,1.93441 -6.007714,2.79892 -9.298357,2.79432 -3.290643,-0.005 -6.537369,-0.83592 -9.600451,-2.03837 -1.977546,-0.77631 -3.923779,-1.72878 -5.491126,-3.16292 -1.567347,-1.43414 -2.730799,-3.40813 -2.824352,-5.53053 -0.0782,-1.77401 0.60771,-3.54813 1.771945,-4.88895 1.164234,-1.34082 2.782619,-2.25568 4.506611,-2.68123 1.723991,-0.42555 3.548107,-0.37557 5.2785,0.0232 1.730393,0.39872 3.370714,1.13875 4.884908,2.06636 0.979347,0.59996 1.908952,1.27854 2.891672,1.87295 0.982721,0.59442 2.031018,1.10832 3.155946,1.33985 1.430087,0.29434 2.926997,0.11742 4.323774,-0.30778 1.396776,-0.4252 2.707186,-1.09107 3.990182,-1.788 1.282996,-0.69692 2.55034,-1.42998 3.893247,-2.00303 1.342907,-0.57305 2.774817,-0.98538 4.234762,-1.00387 1.437745,-0.0182 2.864794,0.34827 4.173109,0.94472 1.308315,0.59645 2.503811,1.41848 3.614906,2.33111 2.222189,1.82528 4.1248,4.019 6.386092,5.7956 1.751607,1.37617 3.787209,2.51602 6.006781,2.70433 1.109785,0.0942 2.248912,-0.0585 3.266054,-0.51226 1.017141,-0.45377 1.906086,-1.21704 2.444426,-2.19207 0.45696,-0.82764 0.652751,-1.78661 0.628479,-2.73171 -0.02427,-0.94509 -0.262603,-1.8772 -0.628479,-2.74894 -0.912868,-2.17501 -2.663151,-4.0024 -4.831627,-4.93067 -2.168476,-0.92827 -4.734802,-0.92441 -6.866045,0.0864 -2.131243,1.01083 -3.77443,3.03278 -4.248094,5.34354 -0.236832,1.15538 -0.189188,2.36933 0.148168,3.49946 0.337357,1.13013 0.964815,2.17377 1.81248,2.99381 1.606459,1.5541 3.917543,2.22725 6.15263,2.20963 2.235087,-0.0176 4.418277,-0.66475 6.509571,-1.45368 3.113649,-1.17461 6.093802,-2.67172 9.07143,-4.15774 3.488165,-1.74081 7.167244,-3.51275 11.063294,-3.37692 1.94803,0.0679 3.90838,0.64324 5.45751,1.82629 1.54913,1.18306 2.6477,3.00622 2.75598,4.95242 0.0551,0.99029 -0.14433,1.99638 -0.59233,2.88126 -0.448,0.88489 -1.14562,1.64494 -2.00002,2.14865 -0.8544,0.50371 -1.86379,0.74652 -2.85229,0.66532 -0.9885,-0.0812 -1.95063,-0.48942 -2.68185,-1.15952 -0.64878,-0.59456 -1.10956,-1.38659 -1.32907,-2.23878 -0.21951,-0.85219 -0.19999,-1.76151 0.0326,-2.61022 0.4652,-1.69742 1.77992,-3.10125 3.37532,-3.84445 1.59553,-0.74326 3.4206,-0.86053 5.17167,-0.68194 1.75107,0.17859 3.45927,0.63745 5.18122,1.00217 1.72195,0.36473 3.49014,0.63701 5.23872,0.43558 1.74859,-0.20144 3.49327,-0.92396 4.63012,-2.26772 0.8426,-0.99596 1.31181,-2.27393 2.20344,-3.22625 0.44582,-0.47616 1.00632,-0.86665 1.64336,-1.00687 0.31852,-0.0701 0.65269,-0.076 0.97037,-0.002 0.31769,0.0738 0.61817,0.22864 0.85247,0.45552 0.23298,0.2256 0.39709,0.51941 0.47759,0.83357 0.0805,0.31416 0.0784,0.64779 0.005,0.9636 -0.14757,0.63162 -0.57831,1.17615 -1.11681,1.53773 -0.5385,0.36158 -1.1781,0.55165 -1.82188,0.63082 -0.64378,0.0792 -1.29565,0.0521 -1.94289,0.01 -0.64723,-0.0425 -1.29494,-0.1004 -1.94332,-0.0826 -0.64838,0.0179 -1.30222,0.11386 -1.89923,0.36742 -0.59702,0.25356 -1.13589,0.67458 -1.45481,1.23939 -0.15947,0.2824 -0.26218,0.59801 -0.28845,0.92125 -0.0263,0.32325 0.0249,0.65384 0.15779,0.94969 0.17867,0.39783 0.50276,0.72401 0.88827,0.92791 0.3855,0.2039 0.82948,0.28817 1.265,0.26543 0.87103,-0.0455 1.67742,-0.50751 2.31018,-1.10782 0.63276,-0.60032 1.11771,-1.33593 1.60927,-2.05644 0.49156,-0.7205 1.00374,-1.44186 1.67579,-1.99783 0.75854,-0.62752 1.70013,-1.01949 2.67296,-1.17038 0.97282,-0.1509 1.97553,-0.0657 2.9253,0.19329 1.89953,0.51809 3.55146,1.70637 4.98508,3.05596 1.88926,1.77852 3.54008,3.9181 5.87903,5.04136 1.16948,0.56163 2.50525,0.83989 3.77964,0.5969 0.63719,-0.1215 1.25203,-0.37294 1.77729,-0.75356 0.52527,-0.38062 0.95897,-0.89187 1.22624,-1.48292 0.44861,-0.99207 0.40106,-2.17578 -0.0438,-3.16954 -0.44486,-0.99376 -1.26367,-1.79817 -2.22406,-2.31111 -1.40226,-0.74894 -3.07972,-0.88669 -4.6404,-0.58418 -1.56069,0.30251 -3.01577,1.02053 -4.34206,1.89701 -2.65257,1.75295 -4.85899,4.15406 -7.64849,5.67973 -2.1999,1.20319 -4.80331,1.81794 -7.24926,1.26608 -1.22298,-0.27593 -2.38673,-0.84303 -3.3184,-1.68194 -0.93168,-0.83892 -1.62387,-1.95326 -1.90556,-3.17492 -0.22517,-0.97656 -0.1862,-2.01261 0.11107,-2.96969 0.29726,-0.95708 0.85198,-1.83277 1.58983,-2.51096 0.73879,-0.67905 1.65338,-1.15634 2.62065,-1.42337 0.96727,-0.26702 1.98617,-0.32732 2.98463,-0.22734 1.99692,0.19996 3.88138,1.0272 5.61924,2.03095 1.73786,1.00375 3.3639,2.19128 5.09688,3.20343 1.73298,1.01216 3.60742,1.85701 5.60122,2.08597 1.92148,0.22065 3.87378,-0.14264 5.70031,-0.77869 1.82653,-0.63606 3.54632,-1.53931 5.261,-2.43411 3.32789,-1.73664 6.70475,-3.46908 10.35042,-4.36344 3.64566,-0.89435 7.63783,-0.88606 11.00523,0.77267 2.50256,1.23272 4.49503,3.27789 6.4256,5.29167 1.08825,1.13516 2.17817,2.27696 3.41033,3.25402 1.23216,0.97706 2.62022,1.79058 4.14283,2.18367 1.52261,0.3931 3.19117,0.34048 4.6093,-0.33906 0.70906,-0.33977 1.34752,-0.83269 1.83488,-1.44969 0.48736,-0.617 0.82088,-1.35877 0.93271,-2.13704 0.1993,-1.38695 -0.32891,-2.82917 -1.27429,-3.86337 -0.94539,-1.03421 -2.27384,-1.67654 -3.65238,-1.92749 -1.37854,-0.25094 -2.8062,-0.12896 -4.16822,0.20003 -1.36203,0.32899 -2.66642,0.8605 -3.94528,1.43309 -4.1476,1.85703 -8.08042,4.16221 -11.90625,6.61459 -4.59173,2.94333 -9.17245,6.16431 -14.47085,7.45818 -2.64921,0.64694 -5.45465,0.78332 -8.10015,0.12139 -2.64549,-0.66192 -5.11998,-2.16002 -6.72216,-4.36678 -1.22842,-1.69197 -1.92101,-3.83139 -1.61337,-5.89952 0.15382,-1.03406 0.55613,-2.03517 1.19284,-2.86435 0.63672,-0.82918 1.5101,-1.48148 2.4994,-1.81946 1.14484,-0.39112 2.40172,-0.35416 3.58271,-0.0917 1.18099,0.26247 2.30144,0.74079 3.40985,1.22562 2.61693,1.14469 5.22385,2.34494 7.97403,3.1164 2.75019,0.77147 5.68112,1.10076 8.46793,0.47437 3.01346,-0.67734 5.664,-2.41477 8.23368,-4.12838 2.56968,-1.7136 5.20452,-3.46799 8.20829,-4.18709 2.2745,-0.54452 4.66049,-0.46494 6.97019,-0.0973 2.3097,0.36761 4.56345,1.01676 6.82594,1.60922 4.42403,1.15848 8.90359,2.10487 13.41815,2.83482"
       id="path8870"
       inkscape:connector-curvature="0"
       inkscape:path-effect="#path-effect8872"
       inkscape:original-d="m -2.4568452,286.60565 c 4.5359788,-1.70115 9.071693,-3.65403 13.6071422,-5.48065 4.53545,-1.82662 -1.2596557,-3.65403 -1.8898804,-5.48066 -0.6302248,-1.82662 -1.5116403,3.7795 -2.2678573,5.66965 -0.7562167,1.89014 3.9060187,0.5037 5.8586307,0.75595 1.952613,0.25225 10.457606,-5.54392 15.686011,-8.31548 5.228408,-2.77156 8.945703,3.52752 13.418156,5.29167 4.472453,1.76415 -2.141601,2.64557 -3.212798,3.96875 -1.071198,1.32318 1.638162,-5.03995 2.456846,-7.55952 0.818682,-2.51958 4.661969,-0.50424 6.992559,-0.75596 2.330588,-0.25172 3.024074,6.55133 4.535713,9.82739 1.511641,3.27605 7.937764,2.26759 11.90625,3.40178 3.968485,1.13419 -0.881679,-4.28399 -1.322917,-6.42559 -0.441235,-2.1416 -10.079098,5.03941 -15.119046,7.55952 -5.039947,2.52011 -12.598942,0.5037 -18.898808,0.75595 -6.299869,0.25225 -5.543388,-5.7959 -8.315478,-8.69345 -2.77209,-2.89755 10.961575,-3.65403 16.441964,-5.48066 5.480391,-1.82662 4.032012,2.14161 6.047618,3.2128 2.015609,1.0712 10.961576,-3.40205 16.441965,-5.10268 5.480391,-1.70062 9.44967,6.04736 14.174107,9.07143 4.724437,3.02408 7.811773,-2.6e-4 11.717261,0 3.905491,2.7e-4 2.65e-4,-3.65403 0,-5.48065 -2.65e-4,-1.82662 -9.323147,4.66144 -13.985118,6.99256 -4.661972,2.33111 8.441732,0.5037 12.662201,0.75595 4.220472,0.25225 6.047886,-2.77209 9.07143,-4.15774 3.023545,-1.38565 12.851454,2.26759 19.276784,3.40179 6.42533,1.13419 -5.41739,3.02354 -8.12649,4.53571 -2.70909,1.51217 1.38618,-5.7959 2.07887,-8.69345 0.6927,-2.89755 13.48142,-1.0082 20.22173,-1.51191 6.74031,-0.5037 3.78002,-2.5201 5.66964,-3.77976 1.88962,-1.25965 -6.55132,4.91343 -9.82738,7.37054 -3.27606,2.45711 5.16594,-2.6461 7.74851,-3.96875 2.58257,-1.32265 7.05582,1.38565 10.58334,2.07887 3.52751,0.69322 8.44173,2.26759 12.6622,3.40178 4.22047,1.1342 -1.51164,-3.65403 -2.26786,-5.48065 -0.75622,-1.82662 -11.08704,4.66144 -16.63095,6.99256 -5.54392,2.33112 -8.31521,-2.39412 -12.47322,-3.59078 -4.158,-1.19666 1.1342,-3.65403 1.7009,-5.48065 0.5667,-1.82662 14.61534,3.7795 21.92262,5.66964 7.30727,1.89015 7.3078,-2.14213 10.96131,-3.2128 3.6535,-1.07066 14.23736,-2.39411 21.35565,-3.59077 7.11829,-1.19666 4.28399,3.52751 6.4256,5.29167 2.1416,1.76415 9.95363,1.00767 14.93005,1.5119 4.97643,0.50423 -8.69318,-2.77209 -13.04017,-4.15774 -4.34699,-1.38564 -7.93724,4.40946 -11.90625,6.61459 -3.96902,2.20512 -19.52851,2.1416 -29.29316,3.21279 -9.76465,1.0712 1.38618,-7.05582 2.07887,-10.58333 0.69269,-3.52751 4.66197,0.75569 6.99256,1.13393 2.33059,0.37824 10.96158,2.39358 16.44196,3.59077 5.48039,1.19719 10.96158,-5.54391 16.44197,-8.31547 5.48039,-2.77156 9.19768,1.00767 13.79613,1.5119 4.59845,0.50424 8.9457,1.88962 13.41815,2.83482" />
  </g>
</svg>
