<?xml version="1.0" encoding="UTF-8" standalone="no"?>
<!-- Created with Inkscape (http://www.inkscape.org/) -->

<svg
   xmlns:osb="http://www.openswatchbook.org/uri/2009/osb"
   xmlns:dc="http://purl.org/dc/elements/1.1/"
   xmlns:cc="http://creativecommons.org/ns#"
   xmlns:rdf="http://www.w3.org/1999/02/22-rdf-syntax-ns#"
   xmlns:svg="http://www.w3.org/2000/svg"
   xmlns="http://www.w3.org/2000/svg"
   xmlns:sodipodi="http://sodipodi.sourceforge.net/DTD/sodipodi-0.dtd"
   xmlns:inkscape="http://www.inkscape.org/namespaces/inkscape"
   width="210mm"
   height="30mm"
   viewBox="0 0 210 30"
   version="1.1"
   id="svg5117"
   sodipodi:docname="to-right-8.svg"
   inkscape:version="0.92.4 (5da689c313, 2019-01-14)">
               <style>
      @import "svg.css";
   </style>
  <defs
     id="defs5111">
    <inkscape:path-effect
       effect="spiro"
       id="path-effect8888"
       is_visible="true" />
    <inkscape:path-effect
       effect="spiro"
       id="path-effect8884"
       is_visible="true" />
    <inkscape:path-effect
       effect="spiro"
       id="path-effect8880"
       is_visible="true" />
    <inkscape:path-effect
       effect="spiro"
       id="path-effect8872"
       is_visible="true" />
    <inkscape:path-effect
       effect="spiro"
       id="path-effect8868"
       is_visible="true" />
    <inkscape:path-effect
       effect="spiro"
       id="path-effect8864"
       is_visible="true" />
    <inkscape:path-effect
       effect="spiro"
       id="path-effect8860"
       is_visible="true" />
    <inkscape:path-effect
       effect="spiro"
       id="path-effect8854"
       is_visible="true" />
    <inkscape:path-effect
       effect="spiro"
       id="path-effect8850"
       is_visible="true" />
    <inkscape:path-effect
       effect="skeletal"
       id="path-effect8838"
       is_visible="true"
       pattern="M 0,5 C 0,2.24 2.24,0 5,0 7.76,0 10,2.24 10,5 10,7.76 7.76,10 5,10 2.24,10 0,7.76 0,5 Z"
       copytype="single_stretched"
       prop_scale="0.26458333"
       scale_y_rel="false"
       spacing="0"
       normal_offset="0"
       tang_offset="0"
       prop_units="false"
       vertical_pattern="false"
       fuse_tolerance="0" />
    <inkscape:path-effect
       effect="spiro"
       id="path-effect8836"
       is_visible="true" />
    <marker
       inkscape:stockid="Arrow2Lstart"
       orient="auto"
       refY="0"
       refX="0"
       id="Arrow2Lstart"
       style="overflow:visible"
       inkscape:isstock="true">
      <path
         id="path7647"
         style="fill:#00e800;fill-opacity:1;fill-rule:evenodd;stroke:#00e800;stroke-width:0.625;stroke-linejoin:round;stroke-opacity:1"
         d="M 8.7185878,4.0337352 -2.2072895,0.01601326 8.7185884,-4.0017078 c -1.7454984,2.3720609 -1.7354408,5.6174519 -6e-7,8.035443 z"
         transform="matrix(1.1,0,0,1.1,1.1,0)"
         inkscape:connector-curvature="0" />
    </marker>
    <marker
       inkscape:stockid="Arrow1Sstart"
       orient="auto"
       refY="0"
       refX="0"
       id="Arrow1Sstart"
       style="overflow:visible"
       inkscape:isstock="true">
      <path
         id="path7641"
         d="M 0,0 5,-5 -12.5,0 5,5 Z"
         style="fill:#00e800;fill-opacity:1;fill-rule:evenodd;stroke:#00e800;stroke-width:1.00000003pt;stroke-opacity:1"
         transform="matrix(0.2,0,0,0.2,1.2,0)"
         inkscape:connector-curvature="0" />
    </marker>
    <marker
       inkscape:stockid="Arrow1Send"
       orient="auto"
       refY="0"
       refX="0"
       id="Arrow1Send"
       style="overflow:visible"
       inkscape:isstock="true">
      <path
         id="path7644"
         d="M 0,0 5,-5 -12.5,0 5,5 Z"
         style="fill:#00e800;fill-opacity:1;fill-rule:evenodd;stroke:#00e800;stroke-width:1.00000003pt;stroke-opacity:1"
         transform="matrix(-0.2,0,0,-0.2,-1.2,0)"
         inkscape:connector-curvature="0" />
    </marker>
    <marker
       inkscape:stockid="Arrow1Lend"
       orient="auto"
       refY="0"
       refX="0"
       id="Arrow1Lend"
       style="overflow:visible"
       inkscape:isstock="true">
      <path
         id="path7632"
         d="M 0,0 5,-5 -12.5,0 5,5 Z"
         style="fill:#00e800;fill-opacity:1;fill-rule:evenodd;stroke:#00e800;stroke-width:1.00000003pt;stroke-opacity:1"
         transform="matrix(-0.8,0,0,-0.8,-10,0)"
         inkscape:connector-curvature="0" />
    </marker>
    <marker
       style="overflow:visible"
       inkscape:stockid="InfiniteLineStart"
       id="InfiniteLineStart"
       refX="0"
       refY="0"
       orient="auto"
       inkscape:isstock="true">
      <g
         id="g7879"
         style="fill:#00e800;fill-opacity:1;stroke:#00e800;stroke-opacity:1"
         transform="translate(-13)">
        <circle
           id="circle7873"
           r="0.80000001"
           cy="0"
           cx="3"
           style="fill:#00e800;fill-opacity:1;stroke:#00e800;stroke-opacity:1" />
        <circle
           id="circle7875"
           r="0.80000001"
           cy="0"
           cx="6.5"
           style="fill:#00e800;fill-opacity:1;stroke:#00e800;stroke-opacity:1" />
        <circle
           id="circle7877"
           r="0.80000001"
           cy="0"
           cx="10"
           style="fill:#00e800;fill-opacity:1;stroke:#00e800;stroke-opacity:1" />
      </g>
    </marker>
    <marker
       inkscape:stockid="Scissors"
       orient="auto"
       refY="0"
       refX="0"
       id="Scissors"
       style="overflow:visible"
       inkscape:isstock="true">
      <path
         id="schere"
         d="M 9.0898857,-3.6061018 C 8.1198849,-4.7769976 6.3697607,-4.7358294 5.0623558,-4.2327734 l -8.2124046,3.0779029 c -2.3882933,-1.3067135 -4.7482873,-0.9325372 -4.7482873,-1.5687873 0,-0.4973164 0.4566662,-0.3883222 0.3883068,-1.6831941 -0.065635,-1.2432767 -1.3635771,-2.1630796 -2.5903987,-2.0816435 -1.227271,-0.00735 -2.499439,0.9331613 -2.510341,2.2300611 -0.09143,1.3063864 1.007209,2.5196896 2.306764,2.6052316 1.5223406,0.2266616 4.218258,-0.6955566 5.482945,1.57086006 -0.9422847,1.73825774 -2.6140244,1.74307674 -4.1255107,1.65607034 -1.2548743,-0.072235 -2.7620933,0.2873979 -3.3606483,1.5208605 -0.578367,1.1820862 -0.0112,2.8646022 1.316749,3.226412 1.3401912,0.4918277 3.1806689,-0.129711 3.4993722,-1.6707242 0.2456585,-1.187823 -0.5953659,-1.7459574 -0.2725074,-2.1771537 0.2436135,-0.32536 1.7907806,-0.1368452 4.5471053,-1.3748244 L 5.6763468,4.2330688 C 6.8000164,4.5467672 8.1730685,4.5362646 9.1684433,3.4313614 l -9.22008423,-3.48508362 z m -18.3078016,-1.900504 c 1.294559,0.7227998 1.1888392,2.6835702 -0.1564272,3.0632889 -1.2165179,0.423661 -2.7710269,-0.7589694 -2.3831779,-2.0774648 0.227148,-1.0818519 1.653387,-1.480632 2.5396051,-0.9858241 z m 0.056264,8.0173649 c 1.3508301,0.4988648 1.1214429,2.7844356 -0.2522207,3.091609 -0.9110594,0.3163391 -2.2135494,-0.1387976 -2.3056964,-1.2121394 -0.177609,-1.305055 1.356085,-2.4841482 2.5579171,-1.8794696 z"
         style="fill:#00e800;fill-opacity:1;stroke:#00e800;stroke-opacity:1"
         inkscape:connector-curvature="0" />
    </marker>
    <marker
       inkscape:stockid="EmptyTriangleOutL"
       orient="auto"
       refY="0"
       refX="0"
       id="EmptyTriangleOutL"
       style="overflow:visible"
       inkscape:isstock="true">
      <path
         id="path7789"
         d="M 5.77,0 -2.88,5 V -5 Z"
         style="fill:#ffffff;fill-rule:evenodd;stroke:#00e800;stroke-width:1.00000003pt;stroke-opacity:1"
         transform="matrix(0.8,0,0,0.8,-4.8,0)"
         inkscape:connector-curvature="0" />
    </marker>
    <marker
       inkscape:stockid="Tail"
       orient="auto"
       refY="0"
       refX="0"
       id="Tail"
       style="overflow:visible"
       inkscape:isstock="true">
      <g
         id="g7677"
         transform="scale(-1.2)"
         style="fill:#00e800;fill-opacity:1;stroke:#00e800;stroke-opacity:1">
        <path
           id="path7665"
           d="M -3.8048674,-3.9585227 0.54352094,0"
           style="fill:#00e800;fill-opacity:1;fill-rule:evenodd;stroke:#00e800;stroke-width:0.80000001;stroke-linecap:round;stroke-opacity:1"
           inkscape:connector-curvature="0" />
        <path
           id="path7667"
           d="M -1.2866832,-3.9585227 3.0617053,0"
           style="fill:#00e800;fill-opacity:1;fill-rule:evenodd;stroke:#00e800;stroke-width:0.80000001;stroke-linecap:round;stroke-opacity:1"
           inkscape:connector-curvature="0" />
        <path
           id="path7669"
           d="M 1.3053582,-3.9585227 5.6537466,0"
           style="fill:#00e800;fill-opacity:1;fill-rule:evenodd;stroke:#00e800;stroke-width:0.80000001;stroke-linecap:round;stroke-opacity:1"
           inkscape:connector-curvature="0" />
        <path
           id="path7671"
           d="M -3.8048674,4.1775838 0.54352094,0.21974226"
           style="fill:#00e800;fill-opacity:1;fill-rule:evenodd;stroke:#00e800;stroke-width:0.80000001;stroke-linecap:round;stroke-opacity:1"
           inkscape:connector-curvature="0" />
        <path
           id="path7673"
           d="M -1.2866832,4.1775838 3.0617053,0.21974226"
           style="fill:#00e800;fill-opacity:1;fill-rule:evenodd;stroke:#00e800;stroke-width:0.80000001;stroke-linecap:round;stroke-opacity:1"
           inkscape:connector-curvature="0" />
        <path
           id="path7675"
           d="M 1.3053582,4.1775838 5.6537466,0.21974226"
           style="fill:#00e800;fill-opacity:1;fill-rule:evenodd;stroke:#00e800;stroke-width:0.80000001;stroke-linecap:round;stroke-opacity:1"
           inkscape:connector-curvature="0" />
      </g>
    </marker>
    <marker
       inkscape:stockid="DotL"
       orient="auto"
       refY="0"
       refX="0"
       id="DotL"
       style="overflow:visible"
       inkscape:isstock="true">
      <path
         id="path7690"
         d="m -2.5,-1 c 0,2.76 -2.24,5 -5,5 -2.76,0 -5,-2.24 -5,-5 0,-2.76 2.24,-5 5,-5 2.76,0 5,2.24 5,5 z"
         style="fill:#00e800;fill-opacity:1;fill-rule:evenodd;stroke:#00e800;stroke-width:1.00000003pt;stroke-opacity:1"
         transform="matrix(0.8,0,0,0.8,5.92,0.8)"
         inkscape:connector-curvature="0" />
    </marker>
    <marker
       style="overflow:visible"
       id="DistanceStart"
       refX="0"
       refY="0"
       orient="auto"
       inkscape:stockid="DistanceStart"
       inkscape:isstock="true">
      <g
         id="g2300"
         style="fill:#00e800;fill-opacity:1;stroke:#00e800;stroke-opacity:1">
        <path
           style="fill:#00e800;fill-opacity:1;stroke:#00e800;stroke-width:1.14999998;stroke-linecap:square;stroke-opacity:1"
           d="M 0,0 H 2"
           id="path2306"
           inkscape:connector-curvature="0" />
        <path
           style="fill:#00e800;fill-opacity:1;fill-rule:evenodd;stroke:#00e800;stroke-opacity:1"
           d="M 0,0 13,4 9,0 13,-4 Z"
           id="path2302"
           inkscape:connector-curvature="0" />
        <path
           style="fill:#00e800;fill-opacity:1;stroke:#00e800;stroke-width:1;stroke-linecap:square;stroke-opacity:1"
           d="M 0,-4 V 40"
           id="path2304"
           inkscape:connector-curvature="0" />
      </g>
    </marker>
    <marker
       inkscape:stockid="Arrow1Lstart"
       orient="auto"
       refY="0"
       refX="0"
       id="Arrow1Lstart"
       style="overflow:visible"
       inkscape:isstock="true">
      <path
         id="path7629"
         d="M 0,0 5,-5 -12.5,0 5,5 Z"
         style="fill:#00e800;fill-opacity:1;fill-rule:evenodd;stroke:#00e800;stroke-width:1.00000003pt;stroke-opacity:1"
         transform="matrix(0.8,0,0,0.8,10,0)"
         inkscape:connector-curvature="0" />
    </marker>
    <linearGradient
       id="linearGradient7625"
       osb:paint="solid">
      <stop
         style="stop-color:#000000;stop-opacity:1;"
         offset="0"
         id="stop7623" />
    </linearGradient>
    <inkscape:path-effect
       effect="skeletal"
       id="path-effect6163"
       is_visible="true"
       pattern="M 0,5 C 0,2.24 2.24,0 5,0 7.76,0 10,2.24 10,5 10,7.76 7.76,10 5,10 2.24,10 0,7.76 0,5 Z"
       copytype="single_stretched"
       prop_scale="0.26458333"
       scale_y_rel="false"
       spacing="0"
       normal_offset="0"
       tang_offset="0"
       prop_units="false"
       vertical_pattern="false"
       fuse_tolerance="0" />
    <inkscape:path-effect
       effect="bspline"
       id="path-effect6161"
       is_visible="true"
       weight="33.333333"
       steps="2"
       helper_size="0"
       apply_no_weight="true"
       apply_with_weight="true"
       only_selected="false" />
    <inkscape:path-effect
       effect="skeletal"
       id="path-effect6157"
       is_visible="true"
       pattern="M 0,5 C 0,2.24 2.24,0 5,0 7.76,0 10,2.24 10,5 10,7.76 7.76,10 5,10 2.24,10 0,7.76 0,5 Z"
       copytype="single_stretched"
       prop_scale="0.26458333"
       scale_y_rel="false"
       spacing="0"
       normal_offset="0"
       tang_offset="0"
       prop_units="false"
       vertical_pattern="false"
       fuse_tolerance="0" />
    <inkscape:path-effect
       effect="skeletal"
       id="path-effect6153"
       is_visible="true"
       pattern="M 0,5 C 0,2.24 2.24,0 5,0 7.76,0 10,2.24 10,5 10,7.76 7.76,10 5,10 2.24,10 0,7.76 0,5 Z"
       copytype="single_stretched"
       prop_scale="0.26458333"
       scale_y_rel="false"
       spacing="0"
       normal_offset="0"
       tang_offset="0"
       prop_units="false"
       vertical_pattern="false"
       fuse_tolerance="0" />
    <inkscape:path-effect
       effect="powerstroke"
       id="path-effect6149"
       is_visible="true"
       offset_points="0,0.13229166"
       sort_points="true"
       interpolator_type="CubicBezierJohan"
       interpolator_beta="0.2"
       start_linecap_type="zerowidth"
       linejoin_type="extrp_arc"
       miter_limit="4"
       end_linecap_type="zerowidth" />
    <inkscape:path-effect
       effect="powerstroke"
       id="path-effect6145"
       is_visible="true"
       offset_points="0,0.13229166"
       sort_points="true"
       interpolator_type="CubicBezierJohan"
       interpolator_beta="0.2"
       start_linecap_type="zerowidth"
       linejoin_type="extrp_arc"
       miter_limit="4"
       end_linecap_type="zerowidth" />
    <inkscape:path-effect
       effect="bspline"
       id="path-effect6137"
       is_visible="true"
       weight="33.333333"
       steps="2"
       helper_size="0"
       apply_no_weight="true"
       apply_with_weight="true"
       only_selected="false" />
    <inkscape:path-effect
       effect="spiro"
       id="path-effect6133"
       is_visible="true" />
  </defs>
  <sodipodi:namedview
     id="base"
     pagecolor="#ffffff"
     bordercolor="#666666"
     borderopacity="1.0"
     inkscape:pageopacity="0.0"
     inkscape:pageshadow="2"
     inkscape:zoom="1.4"
     inkscape:cx="385.39908"
     inkscape:cy="87.030953"
     inkscape:document-units="mm"
     inkscape:current-layer="layer1"
     showgrid="false"
     inkscape:window-width="1680"
     inkscape:window-height="987"
     inkscape:window-x="-8"
     inkscape:window-y="-8"
     inkscape:window-maximized="1"
     units="mm"
     height="30mm" />
  <metadata
     id="metadata5114">
    <rdf:RDF>
      <cc:Work
         rdf:about="">
        <dc:format>image/svg+xml</dc:format>
        <dc:type
           rdf:resource="http://purl.org/dc/dcmitype/StillImage" />
        <dc:title></dc:title>
      </cc:Work>
    </rdf:RDF>
  </metadata>
  <g
     inkscape:label="Layer 1"
     inkscape:groupmode="layer"
     id="layer1"
     transform="translate(0,-267)">
    <path
      class="stroke-single"
      fill="none"
      stroke-width="0.26458332px"
      stroke-linecap="butt"
      stroke-linejoin="miter"
      stroke-opacity="1"       d="m -2.8348215,290.00744 c 2.64172023,1.2178 5.8450619,1.14018 8.4246985,-0.20414 2.5796365,-1.34432 4.478309,-3.9255 4.993456,-6.78842 0.215064,-1.19522 0.189666,-2.47479 -0.344643,-3.56535 -0.267155,-0.54528 -0.6603939,-1.03323 -1.1584733,-1.38053 -0.4980794,-0.3473 -1.1026476,-0.54922 -1.709681,-0.53477 -0.5084396,0.0121 -1.0108757,0.17566 -1.435097,0.45618 -0.4242214,0.28053 -0.7698298,0.67622 -1.0005461,1.12946 -0.4614326,0.90649 -0.4417342,2.02391 -0.021202,2.95007 0.4014292,0.88409 1.1460296,1.59427 2.0200767,2.01713 0.8740472,0.42286 1.8701563,0.56696 2.8372211,0.48005 1.9341297,-0.17381 3.6848747,-1.23313 5.1590707,-2.49718 1.861262,-1.59594 3.388098,-3.53909 5.102679,-5.29167 0.872533,-0.89187 1.800291,-1.73956 2.849336,-2.41502 1.049046,-0.67546 2.227469,-1.17597 3.465973,-1.32714 1.238504,-0.15116 2.540046,0.0643 3.600157,0.7223 0.530056,0.32898 0.995255,0.76528 1.343378,1.28296 0.348123,0.51769 0.57762,1.11697 0.647407,1.7369 0.0514,0.45658 0.01582,0.92527 -0.127117,1.36193 -0.142935,0.43667 -0.395261,0.84024 -0.741384,1.1424 -0.346122,0.30217 -0.787165,0.49947 -1.245415,0.5328 -0.45825,0.0333 -0.930832,-0.10211 -1.287872,-0.39129 -0.360998,-0.29239 -0.592507,-0.73265 -0.653902,-1.19313 -0.0614,-0.46048 0.04273,-0.93737 0.268233,-1.34352 0.225508,-0.40614 0.568689,-0.74221 0.966516,-0.98209 0.397827,-0.23989 0.848984,-0.38548 1.309035,-0.45001 1.22824,-0.17227 2.480353,0.23186 3.543473,0.87063 1.063121,0.63876 1.969731,1.50204 2.882121,2.34216 2.441417,2.24802 4.994935,4.38406 7.748513,6.23661 0.803974,0.5409 1.627979,1.05916 2.512547,1.45474 0.884569,0.39558 1.835076,0.66689 2.803702,0.69349 0.968625,0.0266 1.957509,-0.20225 2.764302,-0.73893 0.806793,-0.53668 1.414956,-1.39584 1.557842,-2.35424 0.08101,-0.54339 0.01336,-1.10596 -0.17705,-1.6213 -0.190406,-0.51535 -0.501813,-0.98345 -0.890672,-1.37156 -0.777717,-0.77621 -1.848949,-1.21776 -2.938768,-1.35792 -1.089819,-0.14017 -2.200395,0.004 -3.264824,0.27698 -1.064429,0.27266 -2.091453,0.67157 -3.12303,1.04999 -6.943899,2.54728 -14.203876,4.19744 -21.544644,5.10268 -1.790928,0.22085 -3.655465,0.39056 -5.36041,-0.20051 -0.852472,-0.29554 -1.648518,-0.7855 -2.232118,-1.47359 -0.5836,-0.68808 -0.9425,-1.58191 -0.911936,-2.48364 0.03331,-0.98261 0.52967,-1.92169 1.261528,-2.57821 0.731857,-0.65652 1.682694,-1.04222 2.655864,-1.18213 1.94634,-0.27982 3.896403,0.38145 5.721001,1.11451 3.491347,1.40271 6.865098,3.10782 10.438414,4.28617 3.573315,1.17835 7.431888,1.81564 11.106228,1.0055 3.489834,-0.76946 6.583875,-2.78528 10.016368,-3.77977 3.404244,-0.9863 7.171314,-0.90739 10.394347,0.56697 3.569961,1.63306 6.222738,4.80137 9.674792,6.67081 1.726027,0.93472 3.692867,1.53491 5.645091,1.33072 0.976113,-0.10209 1.936006,-0.40747 2.765948,-0.93131 0.829942,-0.52385 1.525995,-1.26993 1.946905,-2.15653 0.637505,-1.34283 0.60599,-2.95674 0.03893,-4.33081 -0.567058,-1.37406 -1.637685,-2.51039 -2.908343,-3.28177 -1.270659,-0.77138 -2.733429,-1.19249 -4.21048,-1.35958 -1.477052,-0.16709 -2.972508,-0.0874 -4.448384,0.0897 -1.331321,0.15982 -2.666067,0.40256 -3.900974,0.92502 -1.234907,0.52246 -2.372688,1.34488 -3.091585,2.47676 -0.654869,1.03107 -0.93303,2.28683 -0.824907,3.50349 0.108123,1.21666 0.594469,2.39006 1.338854,3.35848 0.744385,0.96843 1.740935,1.73357 2.847834,2.25003 1.1069,0.51646 2.321896,0.78757 3.542091,0.84306 2.440391,0.11098 4.8584,-0.63243 7.032644,-1.7462 2.174244,-1.11377 4.138352,-2.59011 6.096223,-4.05112 3.275083,-2.44395 6.657738,-4.91238 10.583333,-6.04762 5.020634,-1.45192 10.586084,-0.5225 15.119044,2.07887 2.42842,1.39362 4.56859,3.22747 6.79007,4.9317 2.22149,1.70423 4.58234,3.30977 7.25531,4.14319 1.33649,0.41672 2.74256,0.63345 4.14032,0.55522 1.39776,-0.0782 2.78725,-0.45732 3.99126,-1.17161 1.204,-0.71429 2.21566,-1.77089 2.80487,-3.0408 0.58922,-1.26991 0.74007,-2.75245 0.34258,-4.09478 -0.40596,-1.37092 -1.36693,-2.54812 -2.56957,-3.32134 -1.20264,-0.77322 -2.63355,-1.15625 -4.06237,-1.20805 -2.85764,-0.1036 -5.60659,1.06701 -8.10913,2.45052 -2.57461,1.42335 -5.07038,3.12085 -7.9375,3.77976 -1.97584,0.45408 -4.04586,0.38795 -6.03973,0.0211 -1.99388,-0.36688 -3.92172,-1.0279 -5.81278,-1.75868 -3.782123,-1.46155 -7.540004,-3.23358 -11.582016,-3.55406 -1.013462,-0.0804 -2.043372,-0.0664 -3.033046,0.16622 -0.989674,0.23261 -1.941128,0.69454 -2.653943,1.41943 -0.712814,0.72488 -1.168147,1.7269 -1.128592,2.74277 0.01978,0.50794 0.1622,1.01253 0.424307,1.44806 0.262106,0.43554 0.644799,0.80007 1.099607,1.0271 0.41534,0.20732 0.885285,0.29815 1.349189,0.2813 0.463904,-0.0169 0.921532,-0.13962 1.341031,-0.3384 0.838997,-0.39755 1.511389,-1.08744 2.031885,-1.85624 1.040991,-1.53759 1.530867,-3.40737 2.64843,-4.89024 1.036456,-1.37525 2.571274,-2.33533 4.224034,-2.81902 1.652759,-0.48368 3.418284,-0.5096 5.118144,-0.23384 3.39972,0.55152 6.48228,2.2562 9.55663,3.80882 4.0238,2.03211 8.20103,3.8603 12.62592,4.72095 4.4249,0.86065 9.14617,0.70065 13.26545,-1.13018 1.44321,-0.64144 2.7916,-1.47597 4.2024,-2.18587 1.4108,-0.7099 2.91506,-1.30213 4.49105,-1.4049 1.4176,-0.0924 2.83811,0.21678 4.17047,0.70971 1.33235,0.49292 2.58901,1.16676 3.84426,1.83196 1.25525,0.6652 2.51975,1.32647 3.86197,1.79185 1.34222,0.46539 2.7747,0.7309 4.18729,0.58017 1.90494,-0.20327 3.64627,-1.141 5.28644,-2.13092 1.64017,-0.98992 3.26673,-2.06448 5.10791,-2.59379 1.75209,-0.5037 3.68881,-0.47262 5.34846,0.28175 0.82983,0.37718 1.58212,0.93089 2.16828,1.62895 0.58617,0.69806 1.0035,1.54111 1.17671,2.43603 0.18667,0.96447 0.0869,1.97852 -0.25588,2.89915 -0.34275,0.92064 -0.92474,1.74719 -1.6558,2.40339 -1.46212,1.31241 -3.4868,1.90839 -5.44995,1.82937 -1.96315,-0.079 -3.86489,-0.79248 -5.53659,-1.82477 -1.6717,-1.0323 -3.1303,-2.37573 -4.48869,-3.79523 -1.46465,-1.53054 -2.83335,-3.16631 -4.47426,-4.50616 -1.6409,-1.33984 -3.61506,-2.38559 -5.73109,-2.4864 -0.7804,-0.0372 -1.57013,0.0563 -2.30937,0.30913 -0.73924,0.25283 -1.42693,0.66743 -1.97052,1.2286 -0.54359,0.56117 -0.9394,1.27067 -1.09701,2.0359 -0.1576,0.76522 -0.0711,1.58419 0.27422,2.285 0.29044,0.58937 0.75737,1.08591 1.31235,1.43764 0.55497,0.35173 1.19563,0.56076 1.84855,0.63425 1.30585,0.14698 2.62882,-0.24465 3.77709,-0.88365 2.29654,-1.278 3.94011,-3.47375 6.10219,-4.968 2.05137,-1.41774 4.53122,-2.16051 7.02132,-2.29297 2.4901,-0.13246 4.99072,0.32795 7.34177,1.15904 1.84672,0.65281 3.60584,1.53034 5.43317,2.23559 1.82733,0.70525 3.75989,1.24194 5.71713,1.16619 2.17134,-0.084 4.23953,-0.91338 6.21685,-1.81447 1.97733,-0.90109 3.94126,-1.89448 6.06737,-2.34327 2.63518,-0.55625 5.44935,-0.2267 7.88471,0.92334 2.43536,1.15003 4.47779,3.11387 5.72244,5.50226"
       id="path8886"
       inkscape:connector-curvature="0"
       inkscape:path-effect="#path-effect8888"
       inkscape:original-d="m -2.8348215,290.00744 c 4.4729829,-2.33112 8.9457011,-4.66197 13.4181545,-6.99256 4.472454,-2.33059 -2.1416002,-3.65403 -3.2127973,-5.48065 -1.0711971,-1.82662 -1.6376322,3.02354 -2.4568452,4.53571 -0.8192132,1.51217 6.6778435,-2.6e-4 10.0163685,0 3.338525,2.6e-4 3.402051,-3.52804 5.102679,-5.29167 1.700628,-1.76362 7.937765,-2.6e-4 11.906251,0 3.968485,2.7e-4 -2.267593,1.76363 -3.401788,2.64584 -1.134192,0.88221 1.260187,-2.6461 1.889882,-3.96875 0.629695,-1.32266 4.283996,2.1416 6.425594,3.21279 2.141601,1.0712 5.165939,4.15748 7.748513,6.23661 2.582572,2.07914 6.425859,-0.63022 9.638393,-0.94494 3.212533,-0.31471 -6.9293,-2.01614 -10.394344,-3.02381 -3.465047,-1.00767 -14.362832,3.40152 -21.544644,5.10268 -7.181812,1.70116 -5.669378,-2.77209 -8.504464,-4.15774 -2.835086,-1.38565 6.42586,-1.76415 9.638393,-2.64583 3.212534,-0.88168 14.363358,3.52751 21.544642,5.29167 7.181284,1.76415 6.677845,-2.52011 10.016368,-3.77977 3.338526,-1.25965 6.929829,0.37772 10.394347,0.56697 3.464518,0.18925 13.355423,3.27553 20.032736,4.91369 6.677316,1.63816 -7.685251,-5.92189 -11.528274,-8.88244 -3.84302,-2.96055 -4.66144,2.26759 -6.992559,3.40178 -2.331117,1.1342 13.355423,2.77156 20.032739,4.15774 6.677313,1.38618 7.055821,-4.03201 10.583333,-6.04762 3.527514,-2.01561 10.079634,1.38565 15.119044,2.07887 5.03942,0.69322 16.8832,0.88168 25.32441,1.32292 8.4412,0.44123 -9.82712,-1.38618 -14.74107,-2.07887 -4.91396,-0.69269 -5.2914,2.51958 -7.9375,3.77976 -2.6461,1.26019 -15.622754,-3.52804 -23.434526,-5.29167 -7.811773,-1.76362 -3.527515,4.53545 -5.291667,6.80358 -1.764154,2.26812 4.913956,-4.53598 7.370535,-6.80358 2.45658,-2.26759 12.599468,0.50371 18.898808,0.75596 6.29934,0.25225 17.26118,2.39358 25.89137,3.59077 8.63019,1.19719 5.7959,-2.39411 8.69345,-3.59077 2.89756,-1.19666 10.70959,3.27553 16.06399,4.91369 5.3544,1.63816 6.92983,-3.15007 10.39435,-4.72471 3.46451,-1.57463 5.7959,2.89756 8.69345,4.34673 2.89755,1.44917 -11.59101,1.00767 -17.38691,1.51191 -5.7959,0.50423 -6.8033,-4.66198 -10.20535,-6.99256 -3.40205,-2.33059 -3.40153,3.90549 -5.10268,5.85863 -1.70116,1.95314 8.69371,-2.52011 13.04018,-3.77976 4.34646,-1.25966 9.57566,-0.75622 14.36309,-1.13393 4.78744,-0.37771 7.4338,2.26759 11.1503,3.40178 3.7165,1.1342 8.18975,-2.77209 12.28422,-4.15774 4.09448,-1.38564 9.0717,4.28347 13.60715,6.4256" />
  </g>
</svg>
