<?xml version="1.0" encoding="UTF-8" standalone="no"?>
<!-- Created with Inkscape (http://www.inkscape.org/) -->

<svg
   xmlns:osb="http://www.openswatchbook.org/uri/2009/osb"
   xmlns:dc="http://purl.org/dc/elements/1.1/"
   xmlns:cc="http://creativecommons.org/ns#"
   xmlns:rdf="http://www.w3.org/1999/02/22-rdf-syntax-ns#"
   xmlns:svg="http://www.w3.org/2000/svg"
   xmlns="http://www.w3.org/2000/svg"
   xmlns:sodipodi="http://sodipodi.sourceforge.net/DTD/sodipodi-0.dtd"
   xmlns:inkscape="http://www.inkscape.org/namespaces/inkscape"
   width="210mm"
   height="30mm"
   viewBox="0 0 210 30"
   version="1.1"
   id="svg5117"
   sodipodi:docname="to-right-7.svg"
   inkscape:version="0.92.4 (5da689c313, 2019-01-14)">
               <style>
      @import "svg.css";
   </style>
  <defs
     id="defs5111">
    <inkscape:path-effect
       effect="spiro"
       id="path-effect8884"
       is_visible="true" />
    <inkscape:path-effect
       effect="spiro"
       id="path-effect8880"
       is_visible="true" />
    <inkscape:path-effect
       effect="spiro"
       id="path-effect8872"
       is_visible="true" />
    <inkscape:path-effect
       effect="spiro"
       id="path-effect8868"
       is_visible="true" />
    <inkscape:path-effect
       effect="spiro"
       id="path-effect8864"
       is_visible="true" />
    <inkscape:path-effect
       effect="spiro"
       id="path-effect8860"
       is_visible="true" />
    <inkscape:path-effect
       effect="spiro"
       id="path-effect8854"
       is_visible="true" />
    <inkscape:path-effect
       effect="spiro"
       id="path-effect8850"
       is_visible="true" />
    <inkscape:path-effect
       effect="skeletal"
       id="path-effect8838"
       is_visible="true"
       pattern="M 0,5 C 0,2.24 2.24,0 5,0 7.76,0 10,2.24 10,5 10,7.76 7.76,10 5,10 2.24,10 0,7.76 0,5 Z"
       copytype="single_stretched"
       prop_scale="0.26458333"
       scale_y_rel="false"
       spacing="0"
       normal_offset="0"
       tang_offset="0"
       prop_units="false"
       vertical_pattern="false"
       fuse_tolerance="0" />
    <inkscape:path-effect
       effect="spiro"
       id="path-effect8836"
       is_visible="true" />
    <marker
       inkscape:stockid="Arrow2Lstart"
       orient="auto"
       refY="0"
       refX="0"
       id="Arrow2Lstart"
       style="overflow:visible"
       inkscape:isstock="true">
      <path
         id="path7647"
         style="fill:#00e800;fill-opacity:1;fill-rule:evenodd;stroke:#00e800;stroke-width:0.625;stroke-linejoin:round;stroke-opacity:1"
         d="M 8.7185878,4.0337352 -2.2072895,0.01601326 8.7185884,-4.0017078 c -1.7454984,2.3720609 -1.7354408,5.6174519 -6e-7,8.035443 z"
         transform="matrix(1.1,0,0,1.1,1.1,0)"
         inkscape:connector-curvature="0" />
    </marker>
    <marker
       inkscape:stockid="Arrow1Sstart"
       orient="auto"
       refY="0"
       refX="0"
       id="Arrow1Sstart"
       style="overflow:visible"
       inkscape:isstock="true">
      <path
         id="path7641"
         d="M 0,0 5,-5 -12.5,0 5,5 Z"
         style="fill:#00e800;fill-opacity:1;fill-rule:evenodd;stroke:#00e800;stroke-width:1.00000003pt;stroke-opacity:1"
         transform="matrix(0.2,0,0,0.2,1.2,0)"
         inkscape:connector-curvature="0" />
    </marker>
    <marker
       inkscape:stockid="Arrow1Send"
       orient="auto"
       refY="0"
       refX="0"
       id="Arrow1Send"
       style="overflow:visible"
       inkscape:isstock="true">
      <path
         id="path7644"
         d="M 0,0 5,-5 -12.5,0 5,5 Z"
         style="fill:#00e800;fill-opacity:1;fill-rule:evenodd;stroke:#00e800;stroke-width:1.00000003pt;stroke-opacity:1"
         transform="matrix(-0.2,0,0,-0.2,-1.2,0)"
         inkscape:connector-curvature="0" />
    </marker>
    <marker
       inkscape:stockid="Arrow1Lend"
       orient="auto"
       refY="0"
       refX="0"
       id="Arrow1Lend"
       style="overflow:visible"
       inkscape:isstock="true">
      <path
         id="path7632"
         d="M 0,0 5,-5 -12.5,0 5,5 Z"
         style="fill:#00e800;fill-opacity:1;fill-rule:evenodd;stroke:#00e800;stroke-width:1.00000003pt;stroke-opacity:1"
         transform="matrix(-0.8,0,0,-0.8,-10,0)"
         inkscape:connector-curvature="0" />
    </marker>
    <marker
       style="overflow:visible"
       inkscape:stockid="InfiniteLineStart"
       id="InfiniteLineStart"
       refX="0"
       refY="0"
       orient="auto"
       inkscape:isstock="true">
      <g
         id="g7879"
         style="fill:#00e800;fill-opacity:1;stroke:#00e800;stroke-opacity:1"
         transform="translate(-13)">
        <circle
           id="circle7873"
           r="0.80000001"
           cy="0"
           cx="3"
           style="fill:#00e800;fill-opacity:1;stroke:#00e800;stroke-opacity:1" />
        <circle
           id="circle7875"
           r="0.80000001"
           cy="0"
           cx="6.5"
           style="fill:#00e800;fill-opacity:1;stroke:#00e800;stroke-opacity:1" />
        <circle
           id="circle7877"
           r="0.80000001"
           cy="0"
           cx="10"
           style="fill:#00e800;fill-opacity:1;stroke:#00e800;stroke-opacity:1" />
      </g>
    </marker>
    <marker
       inkscape:stockid="Scissors"
       orient="auto"
       refY="0"
       refX="0"
       id="Scissors"
       style="overflow:visible"
       inkscape:isstock="true">
      <path
         id="schere"
         d="M 9.0898857,-3.6061018 C 8.1198849,-4.7769976 6.3697607,-4.7358294 5.0623558,-4.2327734 l -8.2124046,3.0779029 c -2.3882933,-1.3067135 -4.7482873,-0.9325372 -4.7482873,-1.5687873 0,-0.4973164 0.4566662,-0.3883222 0.3883068,-1.6831941 -0.065635,-1.2432767 -1.3635771,-2.1630796 -2.5903987,-2.0816435 -1.227271,-0.00735 -2.499439,0.9331613 -2.510341,2.2300611 -0.09143,1.3063864 1.007209,2.5196896 2.306764,2.6052316 1.5223406,0.2266616 4.218258,-0.6955566 5.482945,1.57086006 -0.9422847,1.73825774 -2.6140244,1.74307674 -4.1255107,1.65607034 -1.2548743,-0.072235 -2.7620933,0.2873979 -3.3606483,1.5208605 -0.578367,1.1820862 -0.0112,2.8646022 1.316749,3.226412 1.3401912,0.4918277 3.1806689,-0.129711 3.4993722,-1.6707242 0.2456585,-1.187823 -0.5953659,-1.7459574 -0.2725074,-2.1771537 0.2436135,-0.32536 1.7907806,-0.1368452 4.5471053,-1.3748244 L 5.6763468,4.2330688 C 6.8000164,4.5467672 8.1730685,4.5362646 9.1684433,3.4313614 l -9.22008423,-3.48508362 z m -18.3078016,-1.900504 c 1.294559,0.7227998 1.1888392,2.6835702 -0.1564272,3.0632889 -1.2165179,0.423661 -2.7710269,-0.7589694 -2.3831779,-2.0774648 0.227148,-1.0818519 1.653387,-1.480632 2.5396051,-0.9858241 z m 0.056264,8.0173649 c 1.3508301,0.4988648 1.1214429,2.7844356 -0.2522207,3.091609 -0.9110594,0.3163391 -2.2135494,-0.1387976 -2.3056964,-1.2121394 -0.177609,-1.305055 1.356085,-2.4841482 2.5579171,-1.8794696 z"
         style="fill:#00e800;fill-opacity:1;stroke:#00e800;stroke-opacity:1"
         inkscape:connector-curvature="0" />
    </marker>
    <marker
       inkscape:stockid="EmptyTriangleOutL"
       orient="auto"
       refY="0"
       refX="0"
       id="EmptyTriangleOutL"
       style="overflow:visible"
       inkscape:isstock="true">
      <path
         id="path7789"
         d="M 5.77,0 -2.88,5 V -5 Z"
         style="fill:#ffffff;fill-rule:evenodd;stroke:#00e800;stroke-width:1.00000003pt;stroke-opacity:1"
         transform="matrix(0.8,0,0,0.8,-4.8,0)"
         inkscape:connector-curvature="0" />
    </marker>
    <marker
       inkscape:stockid="Tail"
       orient="auto"
       refY="0"
       refX="0"
       id="Tail"
       style="overflow:visible"
       inkscape:isstock="true">
      <g
         id="g7677"
         transform="scale(-1.2)"
         style="fill:#00e800;fill-opacity:1;stroke:#00e800;stroke-opacity:1">
        <path
           id="path7665"
           d="M -3.8048674,-3.9585227 0.54352094,0"
           style="fill:#00e800;fill-opacity:1;fill-rule:evenodd;stroke:#00e800;stroke-width:0.80000001;stroke-linecap:round;stroke-opacity:1"
           inkscape:connector-curvature="0" />
        <path
           id="path7667"
           d="M -1.2866832,-3.9585227 3.0617053,0"
           style="fill:#00e800;fill-opacity:1;fill-rule:evenodd;stroke:#00e800;stroke-width:0.80000001;stroke-linecap:round;stroke-opacity:1"
           inkscape:connector-curvature="0" />
        <path
           id="path7669"
           d="M 1.3053582,-3.9585227 5.6537466,0"
           style="fill:#00e800;fill-opacity:1;fill-rule:evenodd;stroke:#00e800;stroke-width:0.80000001;stroke-linecap:round;stroke-opacity:1"
           inkscape:connector-curvature="0" />
        <path
           id="path7671"
           d="M -3.8048674,4.1775838 0.54352094,0.21974226"
           style="fill:#00e800;fill-opacity:1;fill-rule:evenodd;stroke:#00e800;stroke-width:0.80000001;stroke-linecap:round;stroke-opacity:1"
           inkscape:connector-curvature="0" />
        <path
           id="path7673"
           d="M -1.2866832,4.1775838 3.0617053,0.21974226"
           style="fill:#00e800;fill-opacity:1;fill-rule:evenodd;stroke:#00e800;stroke-width:0.80000001;stroke-linecap:round;stroke-opacity:1"
           inkscape:connector-curvature="0" />
        <path
           id="path7675"
           d="M 1.3053582,4.1775838 5.6537466,0.21974226"
           style="fill:#00e800;fill-opacity:1;fill-rule:evenodd;stroke:#00e800;stroke-width:0.80000001;stroke-linecap:round;stroke-opacity:1"
           inkscape:connector-curvature="0" />
      </g>
    </marker>
    <marker
       inkscape:stockid="DotL"
       orient="auto"
       refY="0"
       refX="0"
       id="DotL"
       style="overflow:visible"
       inkscape:isstock="true">
      <path
         id="path7690"
         d="m -2.5,-1 c 0,2.76 -2.24,5 -5,5 -2.76,0 -5,-2.24 -5,-5 0,-2.76 2.24,-5 5,-5 2.76,0 5,2.24 5,5 z"
         style="fill:#00e800;fill-opacity:1;fill-rule:evenodd;stroke:#00e800;stroke-width:1.00000003pt;stroke-opacity:1"
         transform="matrix(0.8,0,0,0.8,5.92,0.8)"
         inkscape:connector-curvature="0" />
    </marker>
    <marker
       style="overflow:visible"
       id="DistanceStart"
       refX="0"
       refY="0"
       orient="auto"
       inkscape:stockid="DistanceStart"
       inkscape:isstock="true">
      <g
         id="g2300"
         style="fill:#00e800;fill-opacity:1;stroke:#00e800;stroke-opacity:1">
        <path
           style="fill:#00e800;fill-opacity:1;stroke:#00e800;stroke-width:1.14999998;stroke-linecap:square;stroke-opacity:1"
           d="M 0,0 H 2"
           id="path2306"
           inkscape:connector-curvature="0" />
        <path
           style="fill:#00e800;fill-opacity:1;fill-rule:evenodd;stroke:#00e800;stroke-opacity:1"
           d="M 0,0 13,4 9,0 13,-4 Z"
           id="path2302"
           inkscape:connector-curvature="0" />
        <path
           style="fill:#00e800;fill-opacity:1;stroke:#00e800;stroke-width:1;stroke-linecap:square;stroke-opacity:1"
           d="M 0,-4 V 40"
           id="path2304"
           inkscape:connector-curvature="0" />
      </g>
    </marker>
    <marker
       inkscape:stockid="Arrow1Lstart"
       orient="auto"
       refY="0"
       refX="0"
       id="Arrow1Lstart"
       style="overflow:visible"
       inkscape:isstock="true">
      <path
         id="path7629"
         d="M 0,0 5,-5 -12.5,0 5,5 Z"
         style="fill:#00e800;fill-opacity:1;fill-rule:evenodd;stroke:#00e800;stroke-width:1.00000003pt;stroke-opacity:1"
         transform="matrix(0.8,0,0,0.8,10,0)"
         inkscape:connector-curvature="0" />
    </marker>
    <linearGradient
       id="linearGradient7625"
       osb:paint="solid">
      <stop
         style="stop-color:#000000;stop-opacity:1;"
         offset="0"
         id="stop7623" />
    </linearGradient>
    <inkscape:path-effect
       effect="skeletal"
       id="path-effect6163"
       is_visible="true"
       pattern="M 0,5 C 0,2.24 2.24,0 5,0 7.76,0 10,2.24 10,5 10,7.76 7.76,10 5,10 2.24,10 0,7.76 0,5 Z"
       copytype="single_stretched"
       prop_scale="0.26458333"
       scale_y_rel="false"
       spacing="0"
       normal_offset="0"
       tang_offset="0"
       prop_units="false"
       vertical_pattern="false"
       fuse_tolerance="0" />
    <inkscape:path-effect
       effect="bspline"
       id="path-effect6161"
       is_visible="true"
       weight="33.333333"
       steps="2"
       helper_size="0"
       apply_no_weight="true"
       apply_with_weight="true"
       only_selected="false" />
    <inkscape:path-effect
       effect="skeletal"
       id="path-effect6157"
       is_visible="true"
       pattern="M 0,5 C 0,2.24 2.24,0 5,0 7.76,0 10,2.24 10,5 10,7.76 7.76,10 5,10 2.24,10 0,7.76 0,5 Z"
       copytype="single_stretched"
       prop_scale="0.26458333"
       scale_y_rel="false"
       spacing="0"
       normal_offset="0"
       tang_offset="0"
       prop_units="false"
       vertical_pattern="false"
       fuse_tolerance="0" />
    <inkscape:path-effect
       effect="skeletal"
       id="path-effect6153"
       is_visible="true"
       pattern="M 0,5 C 0,2.24 2.24,0 5,0 7.76,0 10,2.24 10,5 10,7.76 7.76,10 5,10 2.24,10 0,7.76 0,5 Z"
       copytype="single_stretched"
       prop_scale="0.26458333"
       scale_y_rel="false"
       spacing="0"
       normal_offset="0"
       tang_offset="0"
       prop_units="false"
       vertical_pattern="false"
       fuse_tolerance="0" />
    <inkscape:path-effect
       effect="powerstroke"
       id="path-effect6149"
       is_visible="true"
       offset_points="0,0.13229166"
       sort_points="true"
       interpolator_type="CubicBezierJohan"
       interpolator_beta="0.2"
       start_linecap_type="zerowidth"
       linejoin_type="extrp_arc"
       miter_limit="4"
       end_linecap_type="zerowidth" />
    <inkscape:path-effect
       effect="powerstroke"
       id="path-effect6145"
       is_visible="true"
       offset_points="0,0.13229166"
       sort_points="true"
       interpolator_type="CubicBezierJohan"
       interpolator_beta="0.2"
       start_linecap_type="zerowidth"
       linejoin_type="extrp_arc"
       miter_limit="4"
       end_linecap_type="zerowidth" />
    <inkscape:path-effect
       effect="bspline"
       id="path-effect6137"
       is_visible="true"
       weight="33.333333"
       steps="2"
       helper_size="0"
       apply_no_weight="true"
       apply_with_weight="true"
       only_selected="false" />
    <inkscape:path-effect
       effect="spiro"
       id="path-effect6133"
       is_visible="true" />
  </defs>
  <sodipodi:namedview
     id="base"
     pagecolor="#ffffff"
     bordercolor="#666666"
     borderopacity="1.0"
     inkscape:pageopacity="0.0"
     inkscape:pageshadow="2"
     inkscape:zoom="1.4"
     inkscape:cx="385.39908"
     inkscape:cy="87.030953"
     inkscape:document-units="mm"
     inkscape:current-layer="layer1"
     showgrid="false"
     inkscape:window-width="1680"
     inkscape:window-height="987"
     inkscape:window-x="-8"
     inkscape:window-y="-8"
     inkscape:window-maximized="1"
     units="mm"
     height="30mm" />
  <metadata
     id="metadata5114">
    <rdf:RDF>
      <cc:Work
         rdf:about="">
        <dc:format>image/svg+xml</dc:format>
        <dc:type
           rdf:resource="http://purl.org/dc/dcmitype/StillImage" />
        <dc:title></dc:title>
      </cc:Work>
    </rdf:RDF>
  </metadata>
  <g
     inkscape:label="Layer 1"
     inkscape:groupmode="layer"
     id="layer1"
     transform="translate(0,-267)">
    <path
      class="stroke-single"
      fill="none"
      stroke-width="0.26458332px"
      stroke-linecap="butt"
      stroke-linejoin="miter"
      stroke-opacity="1"       d="m -1.8898809,272.80952 c 3.0985858,-0.16214 6.2408406,0.64014 8.8824402,2.26786 1.9368856,1.19348 3.6510427,2.8965 4.3916437,5.04765 0.370301,1.07557 0.485066,2.24686 0.264953,3.36289 -0.220113,1.11604 -0.783533,2.17195 -1.632787,2.92875 -0.8721811,0.77723 -2.0454133,1.22134 -3.2123887,1.16692 -1.1669754,-0.0544 -2.3105243,-0.62 -3.0242185,-1.5449 -0.5515926,-0.71482 -0.8379249,-1.62177 -0.8386531,-2.52467 -7.282e-4,-0.90289 0.2778439,-1.79839 0.7549951,-2.56491 0.4771511,-0.76652 1.1484073,-1.40537 1.9156805,-1.88131 0.7672732,-0.47594 1.6289564,-0.79145 2.5147038,-0.96661 1.9576589,-0.38713 4.0064739,-0.0882 5.8850509,0.58499 1.878578,0.67323 3.606252,1.70773 5.265247,2.8168 2.103815,1.40644 4.127131,2.94796 6.363538,4.13227 2.236406,1.18431 4.741085,2.00697 7.265776,1.83365 1.262345,-0.0867 2.514221,-0.4263 3.6146,-1.05096 1.100379,-0.62465 2.044565,-1.53983 2.64385,-2.65423 0.599284,-1.1144 0.84214,-2.42872 0.614356,-3.67337 -0.227784,-1.24464 -0.938448,-2.40648 -1.981288,-3.12308 -0.57988,-0.39847 -1.260294,-0.65922 -1.962256,-0.70704 -0.701963,-0.0478 -1.423826,0.12367 -2.006494,0.51805 -0.407489,0.27581 -0.74146,0.65501 -0.982325,1.08408 -0.240864,0.42907 -0.389867,0.90714 -0.456769,1.39462 -0.133804,0.97498 0.05893,1.97131 0.393171,2.89692 0.668491,1.85122 1.89528,3.4863 2.36884,5.3967 0.358047,1.44441 0.256218,2.99758 -0.27719,4.38682 -0.533408,1.38925 -1.494619,2.60918 -2.714292,3.46178 -1.219673,0.85259 -2.69223,1.3358 -4.179621,1.38255 -1.487391,0.0468 -2.984411,-0.34165 -4.267049,-1.09621 -1.282638,-0.75456 -2.347602,-1.87174 -3.049678,-3.18384 -0.702077,-1.3121 -1.04046,-2.81486 -0.979557,-4.30174 0.0609,-1.48688 0.51972,-2.95425 1.307321,-4.21686 0.7876,-1.26262 1.901278,-2.31834 3.198757,-3.04708 0.916315,-0.51466 1.913732,-0.86519 2.873698,-1.29295 0.959967,-0.42775 1.904416,-0.94923 2.606957,-1.73086 0.682021,-0.7588 1.103968,-1.74342 1.202204,-2.75894 0.09824,-1.01552 -0.124744,-2.057 -0.613224,-2.95272 -0.488479,-0.89572 -1.238474,-1.64382 -2.125965,-2.1471 -0.887492,-0.50327 -1.909075,-0.7624 -2.929335,-0.76263 -2.04052,-4.4e-4 -4.022961,1.05946 -5.27373,2.67169 -1.25077,1.61223 -1.785248,3.72869 -1.599236,5.76071 0.09189,1.00386 0.353943,1.99783 0.825224,2.88894 0.471282,0.8911 1.156457,1.67678 2.009597,2.21374 1.353187,0.85169 3.041044,1.02977 4.628255,0.83678 1.587212,-0.19299 3.109237,-0.72773 4.632162,-1.21475 3.819514,-1.22145 7.736371,-2.16301 11.717261,-2.64584 6.531397,-0.79218 13.387207,-0.28666 19.276787,2.64584 1.661771,0.82742 3.234231,1.84041 4.956952,2.53203 1.722722,0.69161 3.665545,1.04555 5.437392,0.49178 1.139201,-0.35604 2.141286,-1.06766 2.992015,-1.90481 0.850729,-0.83714 1.563762,-1.80153 2.275812,-2.75941 0.712049,-0.95788 1.431139,-1.91847 2.291688,-2.74551 0.860548,-0.82705 1.876531,-1.52163 3.023818,-1.85069 1.066022,-0.30575 2.211716,-0.28363 3.290352,-0.0259 1.078636,0.25774 2.093476,0.7447 3.024117,1.34785 1.861284,1.20631 3.380726,2.85888 5.024816,4.34768 1.477211,1.33768 3.147997,2.58961 5.106733,2.9569 0.979367,0.18364 2.014214,0.13152 2.940494,-0.23576 0.92628,-0.36727 1.73485,-1.06313 2.15813,-1.96519 0.25457,-0.54251 0.36713,-1.14975 0.33283,-1.74804 -0.0343,-0.59828 -0.21457,-1.18667 -0.51357,-1.70602 -0.59799,-1.03871 -1.6711,-1.7756 -2.84307,-2.02659 -1.05532,-0.226 -2.172582,-0.0735 -3.172309,0.33311 -0.999727,0.4066 -1.887314,1.05802 -2.653694,1.81791 -1.532759,1.5198 -2.581088,3.44666 -3.812388,5.21952 -1.161607,1.67251 -2.515111,3.2375 -4.173202,4.4196 -1.658091,1.18209 -3.642703,1.96579 -5.679,1.9766 -1.018148,0.005 -2.040265,-0.18304 -2.976931,-0.58218 -0.936665,-0.39914 -1.786039,-1.01104 -2.43604,-1.79472 -0.650001,-0.78368 -1.096771,-1.7399 -1.248391,-2.74671 -0.15162,-1.00681 -0.0032,-2.06157 0.449575,-2.97349 0.602558,-1.21346 1.721005,-2.12919 2.980165,-2.62927 1.25916,-0.50009 2.650359,-0.60723 3.997952,-0.46736 2.695187,0.27972 5.186808,1.50059 7.762955,2.34068 6.119147,1.99547 12.777038,1.83194 19.087798,0.56696 5.42324,-1.08708 10.66862,-2.96377 15.68601,-5.29166 1.78111,-0.82637 3.53917,-1.71151 5.38237,-2.38816 1.8432,-0.67665 3.7891,-1.14361 5.75199,-1.09548 1.96288,0.0481 3.95081,0.64311 5.45932,1.89993 0.75426,0.62842 1.38007,1.41609 1.79017,2.30807 0.4101,0.89198 0.60097,1.88845 0.51496,2.86641 -0.0807,0.91706 -0.40369,1.80861 -0.90775,2.57895 -0.50405,0.77034 -1.18664,1.41975 -1.96763,1.90713 -1.562,0.97477 -3.48943,1.28085 -5.31403,1.03424 -1.8246,-0.24662 -3.55111,-1.01856 -5.0772,-2.04863 -1.52609,-1.03006 -2.86449,-2.31422 -4.12029,-3.66068 -1.17885,-1.26395 -2.29439,-2.59079 -3.56139,-3.76634 -1.26701,-1.17556 -2.70639,-2.20681 -4.34448,-2.75808 -1.63809,-0.55127 -3.49686,-0.58447 -5.05329,0.16704 -0.77822,0.37576 -1.46809,0.94303 -1.95753,1.65525 -0.48944,0.71222 -0.77329,1.57011 -0.76933,2.43428 0.004,0.82806 0.27025,1.64621 0.71319,2.34585 0.44295,0.69965 1.05781,1.28303 1.75332,1.73245 1.391,0.89883 3.06554,1.25421 4.71504,1.40235 5.86188,0.52644 11.69553,-1.3602 16.98552,-3.93988 5.29,-2.57968 10.21417,-5.86308 15.51487,-8.42071 5.30069,-2.55762 11.15638,-4.39657 17.01123,-3.79692 2.92742,0.29982 5.81176,1.22233 8.26813,2.8428 2.45637,1.62048 4.46805,3.95618 5.53126,6.70013 0.65173,1.68201 0.93869,3.57716 0.37798,5.29166 -0.37265,1.13947 -1.1234,2.16126 -2.13131,2.81039 -1.00792,0.64914 -2.27084,0.90963 -3.44293,0.65766 -1.17208,-0.25198 -2.23235,-1.02785 -2.77929,-2.09469 -0.27347,-0.53341 -0.41976,-1.13244 -0.4156,-1.73186 0.004,-0.59942 0.15948,-1.19808 0.45365,-1.72036 0.30978,-0.55 0.76956,-1.01003 1.30273,-1.34794 0.53318,-0.33791 1.13826,-0.55577 1.75947,-0.66779 1.24244,-0.22404 2.52636,-0.0281 3.74137,0.31483 1.61142,0.45478 3.13909,1.16302 4.72471,1.7009 2.47763,0.84048 5.21392,1.25275 7.69937,0.43571 1.24273,-0.40853 2.39534,-1.12737 3.23743,-2.12844 0.8421,-1.00107 1.35896,-2.29084 1.34742,-3.59894 -0.011,-1.24382 -0.51075,-2.48278 -1.38997,-3.36266 -0.87922,-0.87987 -2.13229,-1.38263 -3.37464,-1.3213 -1.24236,0.0613 -2.45138,0.69564 -3.18167,1.70255 -0.73028,1.00692 -0.95582,2.36978 -0.55818,3.54837 0.30783,0.91237 0.96279,1.68635 1.76,2.22639 0.79721,0.54003 1.73072,0.8568 2.68034,1.01618 1.89924,0.31878 3.84004,0.0266 5.76502,-0.0298 5.4884,-0.16064 11.01369,1.68113 15.30803,5.10268"
       id="path8882"
       inkscape:connector-curvature="0"
       inkscape:path-effect="#path-effect8884"
       inkscape:original-d="m -1.8898809,272.80952 c 2.961078,0.6927 5.9218914,1.51164 8.8824402,2.26786 2.9605491,0.75622 2.0161377,7.55926 3.0238097,11.33929 1.007672,3.78002 -4.1574736,-0.25225 -6.2366072,-0.37798 -2.0791336,-0.12573 2.898082,-5.29193 4.3467263,-7.9375 1.448644,-2.64557 7.4337959,2.26759 11.1502979,3.40179 3.716501,1.13419 12.347486,-3.02408 18.520832,-4.53572 6.173348,-1.51164 -2.645569,-0.12626 -3.96875,-0.18899 -1.323181,-0.0627 0.882211,7.18129 1.322917,10.77232 0.440708,3.59104 -7.307273,-4.40998 -10.961309,-6.61458 -3.654034,-2.20459 3.654036,-2.01614 5.480655,-3.02381 1.82662,-1.00767 -7.559259,-0.12625 -11.339286,-0.18899 -3.780026,-0.0627 1.890146,3.40153 2.834821,5.10268 0.944676,1.70116 6.173875,-0.25225 9.260417,-0.37797 3.086542,-0.12573 7.811772,-1.76416 11.717261,-2.64584 3.90549,-0.88168 12.851455,1.76363 19.276787,2.64584 6.425329,0.88221 6.929826,2.0156 10.394344,3.02381 3.464518,1.0082 7.055821,-6.17388 10.583333,-9.26042 3.527515,-3.08654 7.559789,3.7795 11.339285,5.66964 3.779499,1.89015 6.803837,0.50371 10.205357,0.75595 3.40152,0.25225 -2.01561,-3.65403 -3.02381,-5.48065 -1.008199,-1.82662 -6.425328,4.91343 -9.638391,7.37054 -3.213063,2.45711 -10.709061,-1.1342 -16.063989,-1.7009 -5.354926,-0.5667 9.827646,-0.50423 14.741072,-0.75595 4.913426,-0.25172 12.725468,0.37771 19.087798,0.56696 6.36234,0.18926 10.45761,-3.52804 15.68601,-5.29166 5.22841,-1.76363 12.59947,2.39358 18.89881,3.59077 6.29934,1.19719 -11.591,-0.12626 -17.3869,-0.18899 -5.7959,-0.0627 -10.45708,-1.51217 -15.68602,-2.26785 -5.22893,-0.75569 4.78797,3.6535 7.18155,5.48065 2.39359,1.82715 42.20761,-4.40999 63.31101,-6.61458 21.10341,-2.2046 0.25225,3.52751 0.37798,5.29166 0.12573,1.76416 -5.54339,-1.38617 -8.31548,-2.07886 -2.77209,-0.6927 4.53598,-1.1342 6.80357,-1.7009 2.2676,-0.5667 3.15007,1.13367 4.72471,1.7009 1.57463,0.56722 8.18974,-3.52805 12.28422,-5.29167 4.09448,-1.76363 -5.66938,0.37771 -8.50446,0.56696 -2.83509,0.18926 6.80383,2.1416 10.20536,3.2128 3.40152,1.0712 10.20562,3.40152 15.30803,5.10268" />
  </g>
</svg>
