<?xml version="1.0" encoding="UTF-8" standalone="no"?>
<!-- Created with Inkscape (http://www.inkscape.org/) -->

<svg
   xmlns:osb="http://www.openswatchbook.org/uri/2009/osb"
   xmlns:dc="http://purl.org/dc/elements/1.1/"
   xmlns:cc="http://creativecommons.org/ns#"
   xmlns:rdf="http://www.w3.org/1999/02/22-rdf-syntax-ns#"
   xmlns:svg="http://www.w3.org/2000/svg"
   xmlns="http://www.w3.org/2000/svg"
   xmlns:sodipodi="http://sodipodi.sourceforge.net/DTD/sodipodi-0.dtd"
   xmlns:inkscape="http://www.inkscape.org/namespaces/inkscape"
   width="210mm"
   height="30mm"
   viewBox="0 0 210 30"
   version="1.1"
   id="svg5117"
   sodipodi:docname="to-right-2.svg"
   inkscape:version="0.92.4 (5da689c313, 2019-01-14)">
               <style>
      @import "svg.css";
   </style>
  <defs
     id="defs5111">
    <inkscape:path-effect
       effect="spiro"
       id="path-effect8860"
       is_visible="true" />
    <inkscape:path-effect
       effect="spiro"
       id="path-effect8854"
       is_visible="true" />
    <inkscape:path-effect
       effect="spiro"
       id="path-effect8850"
       is_visible="true" />
    <inkscape:path-effect
       effect="skeletal"
       id="path-effect8838"
       is_visible="true"
       pattern="M 0,5 C 0,2.24 2.24,0 5,0 7.76,0 10,2.24 10,5 10,7.76 7.76,10 5,10 2.24,10 0,7.76 0,5 Z"
       copytype="single_stretched"
       prop_scale="0.26458333"
       scale_y_rel="false"
       spacing="0"
       normal_offset="0"
       tang_offset="0"
       prop_units="false"
       vertical_pattern="false"
       fuse_tolerance="0" />
    <inkscape:path-effect
       effect="spiro"
       id="path-effect8836"
       is_visible="true" />
    <marker
       inkscape:stockid="Arrow2Lstart"
       orient="auto"
       refY="0"
       refX="0"
       id="Arrow2Lstart"
       style="overflow:visible"
       inkscape:isstock="true">
      <path
         id="path7647"
         style="fill:#00e800;fill-opacity:1;fill-rule:evenodd;stroke:#00e800;stroke-width:0.625;stroke-linejoin:round;stroke-opacity:1"
         d="M 8.7185878,4.0337352 -2.2072895,0.01601326 8.7185884,-4.0017078 c -1.7454984,2.3720609 -1.7354408,5.6174519 -6e-7,8.035443 z"
         transform="matrix(1.1,0,0,1.1,1.1,0)"
         inkscape:connector-curvature="0" />
    </marker>
    <marker
       inkscape:stockid="Arrow1Sstart"
       orient="auto"
       refY="0"
       refX="0"
       id="Arrow1Sstart"
       style="overflow:visible"
       inkscape:isstock="true">
      <path
         id="path7641"
         d="M 0,0 5,-5 -12.5,0 5,5 Z"
         style="fill:#00e800;fill-opacity:1;fill-rule:evenodd;stroke:#00e800;stroke-width:1.00000003pt;stroke-opacity:1"
         transform="matrix(0.2,0,0,0.2,1.2,0)"
         inkscape:connector-curvature="0" />
    </marker>
    <marker
       inkscape:stockid="Arrow1Send"
       orient="auto"
       refY="0"
       refX="0"
       id="Arrow1Send"
       style="overflow:visible"
       inkscape:isstock="true">
      <path
         id="path7644"
         d="M 0,0 5,-5 -12.5,0 5,5 Z"
         style="fill:#00e800;fill-opacity:1;fill-rule:evenodd;stroke:#00e800;stroke-width:1.00000003pt;stroke-opacity:1"
         transform="matrix(-0.2,0,0,-0.2,-1.2,0)"
         inkscape:connector-curvature="0" />
    </marker>
    <marker
       inkscape:stockid="Arrow1Lend"
       orient="auto"
       refY="0"
       refX="0"
       id="Arrow1Lend"
       style="overflow:visible"
       inkscape:isstock="true">
      <path
         id="path7632"
         d="M 0,0 5,-5 -12.5,0 5,5 Z"
         style="fill:#00e800;fill-opacity:1;fill-rule:evenodd;stroke:#00e800;stroke-width:1.00000003pt;stroke-opacity:1"
         transform="matrix(-0.8,0,0,-0.8,-10,0)"
         inkscape:connector-curvature="0" />
    </marker>
    <marker
       style="overflow:visible"
       inkscape:stockid="InfiniteLineStart"
       id="InfiniteLineStart"
       refX="0"
       refY="0"
       orient="auto"
       inkscape:isstock="true">
      <g
         id="g7879"
         style="fill:#00e800;fill-opacity:1;stroke:#00e800;stroke-opacity:1"
         transform="translate(-13)">
        <circle
           id="circle7873"
           r="0.80000001"
           cy="0"
           cx="3"
           style="fill:#00e800;fill-opacity:1;stroke:#00e800;stroke-opacity:1" />
        <circle
           id="circle7875"
           r="0.80000001"
           cy="0"
           cx="6.5"
           style="fill:#00e800;fill-opacity:1;stroke:#00e800;stroke-opacity:1" />
        <circle
           id="circle7877"
           r="0.80000001"
           cy="0"
           cx="10"
           style="fill:#00e800;fill-opacity:1;stroke:#00e800;stroke-opacity:1" />
      </g>
    </marker>
    <marker
       inkscape:stockid="Scissors"
       orient="auto"
       refY="0"
       refX="0"
       id="Scissors"
       style="overflow:visible"
       inkscape:isstock="true">
      <path
         id="schere"
         d="M 9.0898857,-3.6061018 C 8.1198849,-4.7769976 6.3697607,-4.7358294 5.0623558,-4.2327734 l -8.2124046,3.0779029 c -2.3882933,-1.3067135 -4.7482873,-0.9325372 -4.7482873,-1.5687873 0,-0.4973164 0.4566662,-0.3883222 0.3883068,-1.6831941 -0.065635,-1.2432767 -1.3635771,-2.1630796 -2.5903987,-2.0816435 -1.227271,-0.00735 -2.499439,0.9331613 -2.510341,2.2300611 -0.09143,1.3063864 1.007209,2.5196896 2.306764,2.6052316 1.5223406,0.2266616 4.218258,-0.6955566 5.482945,1.57086006 -0.9422847,1.73825774 -2.6140244,1.74307674 -4.1255107,1.65607034 -1.2548743,-0.072235 -2.7620933,0.2873979 -3.3606483,1.5208605 -0.578367,1.1820862 -0.0112,2.8646022 1.316749,3.226412 1.3401912,0.4918277 3.1806689,-0.129711 3.4993722,-1.6707242 0.2456585,-1.187823 -0.5953659,-1.7459574 -0.2725074,-2.1771537 0.2436135,-0.32536 1.7907806,-0.1368452 4.5471053,-1.3748244 L 5.6763468,4.2330688 C 6.8000164,4.5467672 8.1730685,4.5362646 9.1684433,3.4313614 l -9.22008423,-3.48508362 z m -18.3078016,-1.900504 c 1.294559,0.7227998 1.1888392,2.6835702 -0.1564272,3.0632889 -1.2165179,0.423661 -2.7710269,-0.7589694 -2.3831779,-2.0774648 0.227148,-1.0818519 1.653387,-1.480632 2.5396051,-0.9858241 z m 0.056264,8.0173649 c 1.3508301,0.4988648 1.1214429,2.7844356 -0.2522207,3.091609 -0.9110594,0.3163391 -2.2135494,-0.1387976 -2.3056964,-1.2121394 -0.177609,-1.305055 1.356085,-2.4841482 2.5579171,-1.8794696 z"
         style="fill:#00e800;fill-opacity:1;stroke:#00e800;stroke-opacity:1"
         inkscape:connector-curvature="0" />
    </marker>
    <marker
       inkscape:stockid="EmptyTriangleOutL"
       orient="auto"
       refY="0"
       refX="0"
       id="EmptyTriangleOutL"
       style="overflow:visible"
       inkscape:isstock="true">
      <path
         id="path7789"
         d="M 5.77,0 -2.88,5 V -5 Z"
         style="fill:#ffffff;fill-rule:evenodd;stroke:#00e800;stroke-width:1.00000003pt;stroke-opacity:1"
         transform="matrix(0.8,0,0,0.8,-4.8,0)"
         inkscape:connector-curvature="0" />
    </marker>
    <marker
       inkscape:stockid="Tail"
       orient="auto"
       refY="0"
       refX="0"
       id="Tail"
       style="overflow:visible"
       inkscape:isstock="true">
      <g
         id="g7677"
         transform="scale(-1.2)"
         style="fill:#00e800;fill-opacity:1;stroke:#00e800;stroke-opacity:1">
        <path
           id="path7665"
           d="M -3.8048674,-3.9585227 0.54352094,0"
           style="fill:#00e800;fill-opacity:1;fill-rule:evenodd;stroke:#00e800;stroke-width:0.80000001;stroke-linecap:round;stroke-opacity:1"
           inkscape:connector-curvature="0" />
        <path
           id="path7667"
           d="M -1.2866832,-3.9585227 3.0617053,0"
           style="fill:#00e800;fill-opacity:1;fill-rule:evenodd;stroke:#00e800;stroke-width:0.80000001;stroke-linecap:round;stroke-opacity:1"
           inkscape:connector-curvature="0" />
        <path
           id="path7669"
           d="M 1.3053582,-3.9585227 5.6537466,0"
           style="fill:#00e800;fill-opacity:1;fill-rule:evenodd;stroke:#00e800;stroke-width:0.80000001;stroke-linecap:round;stroke-opacity:1"
           inkscape:connector-curvature="0" />
        <path
           id="path7671"
           d="M -3.8048674,4.1775838 0.54352094,0.21974226"
           style="fill:#00e800;fill-opacity:1;fill-rule:evenodd;stroke:#00e800;stroke-width:0.80000001;stroke-linecap:round;stroke-opacity:1"
           inkscape:connector-curvature="0" />
        <path
           id="path7673"
           d="M -1.2866832,4.1775838 3.0617053,0.21974226"
           style="fill:#00e800;fill-opacity:1;fill-rule:evenodd;stroke:#00e800;stroke-width:0.80000001;stroke-linecap:round;stroke-opacity:1"
           inkscape:connector-curvature="0" />
        <path
           id="path7675"
           d="M 1.3053582,4.1775838 5.6537466,0.21974226"
           style="fill:#00e800;fill-opacity:1;fill-rule:evenodd;stroke:#00e800;stroke-width:0.80000001;stroke-linecap:round;stroke-opacity:1"
           inkscape:connector-curvature="0" />
      </g>
    </marker>
    <marker
       inkscape:stockid="DotL"
       orient="auto"
       refY="0"
       refX="0"
       id="DotL"
       style="overflow:visible"
       inkscape:isstock="true">
      <path
         id="path7690"
         d="m -2.5,-1 c 0,2.76 -2.24,5 -5,5 -2.76,0 -5,-2.24 -5,-5 0,-2.76 2.24,-5 5,-5 2.76,0 5,2.24 5,5 z"
         style="fill:#00e800;fill-opacity:1;fill-rule:evenodd;stroke:#00e800;stroke-width:1.00000003pt;stroke-opacity:1"
         transform="matrix(0.8,0,0,0.8,5.92,0.8)"
         inkscape:connector-curvature="0" />
    </marker>
    <marker
       style="overflow:visible"
       id="DistanceStart"
       refX="0"
       refY="0"
       orient="auto"
       inkscape:stockid="DistanceStart"
       inkscape:isstock="true">
      <g
         id="g2300"
         style="fill:#00e800;fill-opacity:1;stroke:#00e800;stroke-opacity:1">
        <path
           style="fill:#00e800;fill-opacity:1;stroke:#00e800;stroke-width:1.14999998;stroke-linecap:square;stroke-opacity:1"
           d="M 0,0 H 2"
           id="path2306"
           inkscape:connector-curvature="0" />
        <path
           style="fill:#00e800;fill-opacity:1;fill-rule:evenodd;stroke:#00e800;stroke-opacity:1"
           d="M 0,0 13,4 9,0 13,-4 Z"
           id="path2302"
           inkscape:connector-curvature="0" />
        <path
           style="fill:#00e800;fill-opacity:1;stroke:#00e800;stroke-width:1;stroke-linecap:square;stroke-opacity:1"
           d="M 0,-4 V 40"
           id="path2304"
           inkscape:connector-curvature="0" />
      </g>
    </marker>
    <marker
       inkscape:stockid="Arrow1Lstart"
       orient="auto"
       refY="0"
       refX="0"
       id="Arrow1Lstart"
       style="overflow:visible"
       inkscape:isstock="true">
      <path
         id="path7629"
         d="M 0,0 5,-5 -12.5,0 5,5 Z"
         style="fill:#00e800;fill-opacity:1;fill-rule:evenodd;stroke:#00e800;stroke-width:1.00000003pt;stroke-opacity:1"
         transform="matrix(0.8,0,0,0.8,10,0)"
         inkscape:connector-curvature="0" />
    </marker>
    <linearGradient
       id="linearGradient7625"
       osb:paint="solid">
      <stop
         style="stop-color:#000000;stop-opacity:1;"
         offset="0"
         id="stop7623" />
    </linearGradient>
    <inkscape:path-effect
       effect="skeletal"
       id="path-effect6163"
       is_visible="true"
       pattern="M 0,5 C 0,2.24 2.24,0 5,0 7.76,0 10,2.24 10,5 10,7.76 7.76,10 5,10 2.24,10 0,7.76 0,5 Z"
       copytype="single_stretched"
       prop_scale="0.26458333"
       scale_y_rel="false"
       spacing="0"
       normal_offset="0"
       tang_offset="0"
       prop_units="false"
       vertical_pattern="false"
       fuse_tolerance="0" />
    <inkscape:path-effect
       effect="bspline"
       id="path-effect6161"
       is_visible="true"
       weight="33.333333"
       steps="2"
       helper_size="0"
       apply_no_weight="true"
       apply_with_weight="true"
       only_selected="false" />
    <inkscape:path-effect
       effect="skeletal"
       id="path-effect6157"
       is_visible="true"
       pattern="M 0,5 C 0,2.24 2.24,0 5,0 7.76,0 10,2.24 10,5 10,7.76 7.76,10 5,10 2.24,10 0,7.76 0,5 Z"
       copytype="single_stretched"
       prop_scale="0.26458333"
       scale_y_rel="false"
       spacing="0"
       normal_offset="0"
       tang_offset="0"
       prop_units="false"
       vertical_pattern="false"
       fuse_tolerance="0" />
    <inkscape:path-effect
       effect="skeletal"
       id="path-effect6153"
       is_visible="true"
       pattern="M 0,5 C 0,2.24 2.24,0 5,0 7.76,0 10,2.24 10,5 10,7.76 7.76,10 5,10 2.24,10 0,7.76 0,5 Z"
       copytype="single_stretched"
       prop_scale="0.26458333"
       scale_y_rel="false"
       spacing="0"
       normal_offset="0"
       tang_offset="0"
       prop_units="false"
       vertical_pattern="false"
       fuse_tolerance="0" />
    <inkscape:path-effect
       effect="powerstroke"
       id="path-effect6149"
       is_visible="true"
       offset_points="0,0.13229166"
       sort_points="true"
       interpolator_type="CubicBezierJohan"
       interpolator_beta="0.2"
       start_linecap_type="zerowidth"
       linejoin_type="extrp_arc"
       miter_limit="4"
       end_linecap_type="zerowidth" />
    <inkscape:path-effect
       effect="powerstroke"
       id="path-effect6145"
       is_visible="true"
       offset_points="0,0.13229166"
       sort_points="true"
       interpolator_type="CubicBezierJohan"
       interpolator_beta="0.2"
       start_linecap_type="zerowidth"
       linejoin_type="extrp_arc"
       miter_limit="4"
       end_linecap_type="zerowidth" />
    <inkscape:path-effect
       effect="bspline"
       id="path-effect6137"
       is_visible="true"
       weight="33.333333"
       steps="2"
       helper_size="0"
       apply_no_weight="true"
       apply_with_weight="true"
       only_selected="false" />
    <inkscape:path-effect
       effect="spiro"
       id="path-effect6133"
       is_visible="true" />
  </defs>
  <sodipodi:namedview
     id="base"
     pagecolor="#ffffff"
     bordercolor="#666666"
     borderopacity="1.0"
     inkscape:pageopacity="0.0"
     inkscape:pageshadow="2"
     inkscape:zoom="1.4"
     inkscape:cx="385.39908"
     inkscape:cy="87.030953"
     inkscape:document-units="mm"
     inkscape:current-layer="layer1"
     showgrid="false"
     inkscape:window-width="1680"
     inkscape:window-height="987"
     inkscape:window-x="-8"
     inkscape:window-y="-8"
     inkscape:window-maximized="1"
     units="mm"
     height="30mm" />
  <metadata
     id="metadata5114">
    <rdf:RDF>
      <cc:Work
         rdf:about="">
        <dc:format>image/svg+xml</dc:format>
        <dc:type
           rdf:resource="http://purl.org/dc/dcmitype/StillImage" />
        <dc:title></dc:title>
      </cc:Work>
    </rdf:RDF>
  </metadata>
  <g
     inkscape:label="Layer 1"
     inkscape:groupmode="layer"
     id="layer1"
     transform="translate(0,-267)">
    <path
      class="stroke-single"
      fill="none"
      stroke-width="0.26458332px"
      stroke-linecap="butt"
      stroke-linejoin="miter"
      stroke-opacity="1"       d="m -1.5119047,273.1875 c -0.6744718,1.48972 -0.9146051,3.17304 -0.6835894,4.79193 0.2310156,1.61889 0.932397,3.16785 1.99662868,4.40946 1.06423169,1.2416 2.48770592,2.17163 4.05221702,2.64752 1.5645111,0.4759 3.2647554,0.49604 4.8401007,0.0573 1.2813876,-0.35684 2.5066287,-1.03861 3.3131217,-2.09637 0.403247,-0.52888 0.69543,-1.14618 0.819423,-1.79959 0.123993,-0.65341 0.07652,-1.34253 -0.163795,-1.96267 -0.396159,-1.02231 -1.327121,-1.81418 -2.394681,-2.06394 -1.0675598,-0.24976 -2.242449,0.0406 -3.0859735,0.74102 -0.7163692,0.5948 -1.1911025,1.47078 -1.3052826,2.39487 -0.1141801,0.92409 0.131772,1.88678 0.6694942,2.64693 0.5377223,0.76015 1.3610088,1.31162 2.266999,1.52646 0.9059901,0.21484 1.8866969,0.0926 2.7155159,-0.33165 0.669615,-0.3428 1.233383,-0.87169 1.677926,-1.47855 0.444543,-0.60686 0.774415,-1.29106 1.041916,-1.99415 0.535003,-1.40619 0.829313,-2.89987 1.437896,-4.27581 0.938381,-2.12158 2.636164,-3.9039 4.724702,-4.91369 0.704775,-0.34075 1.456783,-0.59675 2.234562,-0.68551 0.777779,-0.0888 1.583443,-0.005 2.301152,0.30753 0.748129,0.32584 1.380005,0.89269 1.835777,1.56955 0.455773,0.67686 0.740396,1.46047 0.885908,2.2634 0.291025,1.60586 0.0357,3.25639 -0.264839,4.8605 -0.213431,1.13918 -0.456301,2.29282 -1.006308,3.31301 -0.275003,0.51009 -0.626532,0.98251 -1.06228,1.36454 -0.435748,0.38203 -0.957768,0.67176 -1.522186,0.80311 -0.637528,0.14836 -1.319797,0.0894 -1.927044,-0.15496 -0.607248,-0.24435 -1.137749,-0.6715 -1.516065,-1.20566 -0.378317,-0.53417 -0.604569,-1.17289 -0.659113,-1.82518 -0.05454,-0.65229 0.06143,-1.31662 0.32246,-1.91688 0.3543,-0.81475 0.971026,-1.50363 1.709355,-1.99782 0.738329,-0.49419 1.594563,-0.79876 2.471046,-0.94412 1.752964,-0.29072 3.547702,0.044 5.269003,0.48509 3.419303,0.87614 6.72434,2.17399 10.169439,2.94246 3.445098,0.76847 7.139199,0.97937 10.430262,-0.29662 1.346266,-0.52197 2.635123,-1.31984 3.443376,-2.51634 0.404126,-0.59825 0.678923,-1.28949 0.752419,-2.0077 0.07349,-0.7182 -0.05984,-1.46258 -0.416031,-2.09055 -0.267562,-0.47172 -0.656979,-0.87225 -1.115655,-1.1616 -0.458677,-0.28935 -0.985428,-0.46786 -1.524498,-0.52713 -1.078139,-0.11854 -2.186629,0.25012 -3.02949,0.93278 -1.051799,0.85188 -1.686759,2.17032 -1.792604,3.51968 -0.105844,1.34937 0.297009,2.71732 1.03665,3.85086 0.665987,1.02066 1.597741,1.85924 2.658965,2.45848 1.061224,0.59924 2.249411,0.96218 3.459313,1.10855 2.419806,0.29274 4.882789,-0.27672 7.116309,-1.25271 4.467039,-1.95196 8.09304,-5.45515 12.467795,-7.60599 1.9589,-0.96309 4.108674,-1.65341 6.289435,-1.55795 1.090381,0.0477 2.177374,0.29504 3.157079,0.77607 0.979705,0.48102 1.849336,1.20002 2.459735,2.1048 0.840309,1.24557 1.158465,2.81426 0.958639,4.30343 -0.199826,1.48917 -0.900531,2.89336 -1.903579,4.01204 -1.070882,1.19433 -2.480186,2.0705 -4.006199,2.56498 -1.526013,0.49447 -3.164974,0.61259 -4.755929,0.40744 -3.181911,-0.41028 -6.103094,-2.09274 -8.435789,-4.29533 -2.466518,-2.32895 -4.340011,-5.22745 -6.80357,-7.55953 -1.924632,-1.82192 -4.208673,-3.28221 -6.715602,-4.14181 -2.506928,-0.85959 -5.238487,-1.10636 -7.836481,-0.58289 -2.048348,0.41272 -4.045274,1.33534 -5.442318,2.88916 -0.698522,0.7769 -1.236838,1.70392 -1.521214,2.70922 -0.284376,1.00531 -0.309906,2.08878 -0.02903,3.09507 0.351879,1.26066 1.178111,2.36693 2.232746,3.14206 1.054635,0.77513 2.327484,1.22861 3.625883,1.39366 1.782982,0.22665 3.607845,-0.0792 5.293748,-0.70218 1.685903,-0.623 3.242707,-1.55507 4.707706,-2.59631 2.929999,-2.08247 5.547427,-4.62818 8.708368,-6.33991 2.923895,-1.58337 6.227967,-2.39538 9.545197,-2.62385 3.317229,-0.22847 6.654054,0.11265 9.920577,0.73397 6.602165,1.25579 12.961415,3.6551 18.898813,6.80357 1.48815,0.78914 2.9567,1.62799 4.52573,2.24074 1.56904,0.61275 3.26127,0.99535 4.93725,0.82672 0.83798,-0.0843 1.66512,-0.3075 2.4158,-0.68937 0.75067,-0.38186 1.42352,-0.92457 1.92688,-1.59982 0.50337,-0.67524 0.83353,-1.48425 0.91059,-2.32294 0.0771,-0.83868 -0.10432,-1.70461 -0.54215,-2.42408 -0.55601,-0.91369 -1.51485,-1.5598 -2.56042,-1.78511 -1.04557,-0.22531 -2.16488,-0.04 -3.10922,0.4622 -1.02565,0.54543 -1.83077,1.43557 -2.47611,2.40149 -0.64534,0.96591 -1.14928,2.0177 -1.71858,3.0303 -0.56929,1.0126 -1.21679,2.00145 -2.09071,2.76677 -0.87392,0.76533 -2.0031,1.29304 -3.164,1.25084 -0.897362,-0.0326 -1.775255,-0.41225 -2.423777,-1.03333 -0.648523,-0.62108 -1.064425,-1.47637 -1.167002,-2.36845 -0.08684,-0.75521 0.04669,-1.53087 0.355813,-2.22537 0.309123,-0.6945 0.790845,-1.30794 1.374596,-1.79489 1.167501,-0.97391 2.71446,-1.42169 4.23475,-1.43853 1.52029,-0.0168 3.02102,0.37092 4.44005,0.91673 1.41903,0.54581 2.77103,1.24921 4.14687,1.89622 3.05922,1.43865 6.26372,2.60695 9.59015,3.2098 3.32643,0.60284 6.78364,0.62868 10.06462,-0.18599 4.15034,-1.03054 7.84391,-3.34172 11.58588,-5.41173 3.74198,-2.07001 7.76183,-3.9679 12.03763,-4.03767 2.35652,-0.0385 4.79869,0.53302 6.62165,2.02683 0.91148,0.7469 1.6497,1.71617 2.06826,2.81774 0.41856,1.10158 0.50831,2.33558 0.19253,3.4709 -0.38248,1.37515 -1.37272,2.57354 -2.6604,3.18934 -1.28768,0.6158 -2.85197,0.63183 -4.14317,0.0235 -1.33468,-0.62886 -2.29988,-1.83948 -3.08176,-3.09067 -0.78188,-1.2512 -1.43806,-2.59325 -2.3989,-3.7129 -1.46584,-1.70812 -3.60872,-2.8028 -5.84534,-3.05559 -2.23662,-0.25279 -4.54678,0.32454 -6.43888,1.54369 -1.30784,0.84269 -2.44279,2.01804 -3.01146,3.46621 -0.28434,0.72408 -0.42251,1.5089 -0.36994,2.28503 0.0526,0.77614 0.29893,1.54244 0.73556,2.18626 0.59578,0.87849 1.53133,1.50209 2.55003,1.80034 1.0187,0.29826 2.11497,0.28335 3.14954,0.0459 2.06914,-0.47485 3.8373,-1.78945 5.45073,-3.16918 3.37983,-2.89028 6.4564,-6.26188 10.44349,-8.23168 1.99354,-0.9849 4.20753,-1.5929 6.42889,-1.49393 2.22136,0.099 4.44704,0.94797 5.99518,2.54406 0.81471,0.83995 1.42145,1.85426 2.09003,2.8146 0.66858,0.96035 1.43006,1.89587 2.44568,2.47707 0.95903,0.54881 2.12073,0.74441 3.20068,0.51066 1.07994,-0.23375 2.06507,-0.90116 2.65796,-1.83358 0.6985,-1.0985 0.82367,-2.51533 0.43749,-3.75849 -0.38618,-1.24317 -1.25302,-2.31 -2.32738,-3.04508 -1.58653,-1.08551 -3.59943,-1.45844 -5.50779,-1.22689 -1.90835,0.23156 -3.71653,1.03519 -5.30526,2.11748 -3.17747,2.16457 -5.46839,5.36463 -8.08576,8.18084 -1.08098,1.1631 -2.23223,2.27318 -3.54364,3.16846 -1.31142,0.89528 -2.79357,1.5726 -4.36421,1.80585 -1.57065,0.23325 -3.23423,9e-5 -4.60203,-0.80643 -0.6839,-0.40326 -1.28793,-0.94576 -1.74417,-1.59551 -0.45625,-0.64975 -0.76269,-1.40707 -0.86499,-2.19439 -0.17803,-1.37017 0.27865,-2.78746 1.1295,-3.8761 0.85084,-1.08864 2.07204,-1.8584 3.38782,-2.28006 2.63156,-0.84332 5.50362,-0.32592 8.14488,0.48651 3.08163,0.94788 6.02916,2.28286 9.0692,3.35668 3.04004,1.07383 6.23083,1.89231 9.45163,1.746 3.83304,-0.17412 7.45752,-1.69415 11.01595,-3.12945 3.55844,-1.43529 7.25996,-2.82868 11.09566,-2.72918 2.41274,0.0626 4.8788,0.77003 6.68566,2.37017 0.90343,0.80007 1.62559,1.8143 2.03008,2.95127 0.4045,1.13696 0.48341,2.39653 0.1667,3.561 -0.30553,1.12334 -0.9826,2.14723 -1.91534,2.84382 -0.93274,0.6966 -2.11791,1.05612 -3.27848,0.96485 -1.16057,-0.0913 -2.28442,-0.63927 -3.04869,-1.51742 -0.76426,-0.87815 -1.15283,-2.07988 -1.01791,-3.23619 0.0866,-0.74233 0.38036,-1.45429 0.80857,-2.06682 0.42821,-0.61253 0.9882,-1.1275 1.61187,-1.53933 1.24733,-0.82364 2.72356,-1.22895 4.19415,-1.49653 3.11571,-0.56691 6.33369,-0.56691 9.4494,0"
       id="path8858"
       inkscape:connector-curvature="0"
       inkscape:path-effect="#path-effect8860"
       inkscape:original-d="m -1.5119047,273.1875 c 3.4020502,3.96849 6.8038359,7.93724 10.205357,11.90625 3.4015207,3.96901 2.6460977,-3.90602 3.9687497,-5.85863 1.322652,-1.95261 -3.653505,-0.88221 -5.4806545,-1.32292 -1.8271495,-0.44071 2.8980825,4.15748 4.3467265,6.23661 1.448644,2.07913 2.77209,-5.16594 4.157738,-7.74851 1.385648,-2.58258 3.150066,-3.27606 4.724702,-4.91369 1.574636,-1.63764 3.024074,-0.25225 4.535714,-0.37798 1.51164,-0.12573 1.638162,5.79537 2.456846,8.69345 0.818684,2.89808 -2.393585,3.65351 -3.590774,5.48066 -1.197189,1.82715 -2.519577,-3.40205 -3.779762,-5.10268 -1.260185,-1.70063 6.299868,-1.63816 9.449404,-2.45685 3.149537,-0.81868 13.733399,1.76363 20.599701,2.64584 6.866306,0.88221 2.520106,-4.40999 3.779764,-6.61459 1.259655,-2.20459 -3.779499,-0.50423 -5.669643,-0.75595 -1.890146,-0.25172 -0.503703,4.91343 -0.755954,7.37054 -0.252248,2.45711 17.135187,-3.52805 25.702382,-5.29167 8.567195,-1.76362 7.937764,0.88168 11.906249,1.32292 3.968486,0.44123 -0.629695,5.54338 -0.94494,8.31547 -0.315244,2.77209 -11.465013,-0.88221 -17.197917,-1.32291 -5.732902,-0.44071 -4.535448,-5.03995 -6.80357,-7.55953 -2.268122,-2.51957 -9.701125,-3.15006 -14.552083,-4.7247 -4.850961,-1.57464 -4.661442,5.79537 -6.992559,8.69345 -2.331119,2.89808 3.906017,3.02355 5.858629,4.53572 1.952614,1.51217 12.47348,-6.42586 18.709822,-9.6384 6.236343,-3.21253 12.977448,-1.26018 19.465774,-1.88988 6.488327,-0.62969 12.599472,4.53545 18.898813,6.80357 6.29933,2.26813 9.44966,-2.64609 14.1741,-3.96875 4.72444,-1.32265 -3.7795,-0.8822 -5.66964,-1.32291 -1.89015,-0.44071 -6.29934,6.29934 -9.4494,9.4494 -3.15007,3.15007 -2.393589,-2.26812 -3.590779,-3.40178 -1.197189,-1.13367 9.701659,-1.76416 14.552079,-2.64584 4.85044,-0.88168 13.10344,2.01561 19.65477,3.02381 6.55132,1.0082 15.74927,-6.29986 23.62351,-9.4494 7.87424,-3.14954 5.92189,5.54338 8.88244,8.31547 2.96055,2.77209 -4.53545,2.14161 -6.80357,3.2128 -2.26813,1.0712 -3.65351,-4.53598 -5.48066,-6.80357 -1.82715,-2.26759 -8.18922,-1.0082 -12.28422,-1.5119 -4.09501,-0.50371 -1.76363,5.2914 -2.64584,7.9375 -0.88221,2.64609 7.4338,-0.88221 11.1503,-1.32292 3.7165,-0.44071 15.2453,-4.78796 22.86756,-7.18155 7.62226,-2.39358 3.02407,3.52752 4.53571,5.29167 1.51164,1.76415 3.90602,-0.88221 5.85864,-1.32292 1.95261,-0.44071 -1.25966,-4.53598 -1.88989,-6.80357 -0.63022,-2.26759 -12.59894,6.04736 -18.89881,9.07143 -6.29986,3.02407 -10.0791,0.25172 -15.11904,0.37798 -5.03995,0.12625 8.44173,-3.78003 12.6622,-5.66965 4.22047,-1.88961 12.34749,3.40152 18.52083,5.10268 6.17335,1.70116 14.74134,-3.90602 22.11161,-5.85863 7.37027,-1.95261 5.92189,5.92136 8.88244,8.88244 2.96055,2.96108 -6.17335,-0.63022 -9.26042,-0.94494 -3.08707,-0.31472 4.40999,-3.40205 6.61459,-5.10268 2.20459,-1.70063 6.29987,-2.6e-4 9.4494,0" />
  </g>
</svg>
