<?xml version="1.0" encoding="UTF-8" standalone="no"?>
<!-- Created with Inkscape (http://www.inkscape.org/) -->

<svg
   xmlns:osb="http://www.openswatchbook.org/uri/2009/osb"
   xmlns:dc="http://purl.org/dc/elements/1.1/"
   xmlns:cc="http://creativecommons.org/ns#"
   xmlns:rdf="http://www.w3.org/1999/02/22-rdf-syntax-ns#"
   xmlns:svg="http://www.w3.org/2000/svg"
   xmlns="http://www.w3.org/2000/svg"
   xmlns:sodipodi="http://sodipodi.sourceforge.net/DTD/sodipodi-0.dtd"
   xmlns:inkscape="http://www.inkscape.org/namespaces/inkscape"
   width="210mm"
   height="30mm"
   viewBox="0 0 210 30"
   version="1.1"
   id="svg5117"
   sodipodi:docname="to-right-9.svg"
   inkscape:version="0.92.4 (5da689c313, 2019-01-14)">
               <style>
      @import "svg.css";
   </style>
  <defs
     id="defs5111">
    <inkscape:path-effect
       effect="spiro"
       id="path-effect8900"
       is_visible="true" />
    <inkscape:path-effect
       effect="spiro"
       id="path-effect8892"
       is_visible="true" />
    <inkscape:path-effect
       effect="spiro"
       id="path-effect8888"
       is_visible="true" />
    <inkscape:path-effect
       effect="spiro"
       id="path-effect8884"
       is_visible="true" />
    <inkscape:path-effect
       effect="spiro"
       id="path-effect8880"
       is_visible="true" />
    <inkscape:path-effect
       effect="spiro"
       id="path-effect8872"
       is_visible="true" />
    <inkscape:path-effect
       effect="spiro"
       id="path-effect8868"
       is_visible="true" />
    <inkscape:path-effect
       effect="spiro"
       id="path-effect8864"
       is_visible="true" />
    <inkscape:path-effect
       effect="spiro"
       id="path-effect8860"
       is_visible="true" />
    <inkscape:path-effect
       effect="spiro"
       id="path-effect8854"
       is_visible="true" />
    <inkscape:path-effect
       effect="spiro"
       id="path-effect8850"
       is_visible="true" />
    <inkscape:path-effect
       effect="skeletal"
       id="path-effect8838"
       is_visible="true"
       pattern="M 0,5 C 0,2.24 2.24,0 5,0 7.76,0 10,2.24 10,5 10,7.76 7.76,10 5,10 2.24,10 0,7.76 0,5 Z"
       copytype="single_stretched"
       prop_scale="0.26458333"
       scale_y_rel="false"
       spacing="0"
       normal_offset="0"
       tang_offset="0"
       prop_units="false"
       vertical_pattern="false"
       fuse_tolerance="0" />
    <inkscape:path-effect
       effect="spiro"
       id="path-effect8836"
       is_visible="true" />
    <marker
       inkscape:stockid="Arrow2Lstart"
       orient="auto"
       refY="0"
       refX="0"
       id="Arrow2Lstart"
       style="overflow:visible"
       inkscape:isstock="true">
      <path
         id="path7647"
         style="fill:#00e800;fill-opacity:1;fill-rule:evenodd;stroke:#00e800;stroke-width:0.625;stroke-linejoin:round;stroke-opacity:1"
         d="M 8.7185878,4.0337352 -2.2072895,0.01601326 8.7185884,-4.0017078 c -1.7454984,2.3720609 -1.7354408,5.6174519 -6e-7,8.035443 z"
         transform="matrix(1.1,0,0,1.1,1.1,0)"
         inkscape:connector-curvature="0" />
    </marker>
    <marker
       inkscape:stockid="Arrow1Sstart"
       orient="auto"
       refY="0"
       refX="0"
       id="Arrow1Sstart"
       style="overflow:visible"
       inkscape:isstock="true">
      <path
         id="path7641"
         d="M 0,0 5,-5 -12.5,0 5,5 Z"
         style="fill:#00e800;fill-opacity:1;fill-rule:evenodd;stroke:#00e800;stroke-width:1.00000003pt;stroke-opacity:1"
         transform="matrix(0.2,0,0,0.2,1.2,0)"
         inkscape:connector-curvature="0" />
    </marker>
    <marker
       inkscape:stockid="Arrow1Send"
       orient="auto"
       refY="0"
       refX="0"
       id="Arrow1Send"
       style="overflow:visible"
       inkscape:isstock="true">
      <path
         id="path7644"
         d="M 0,0 5,-5 -12.5,0 5,5 Z"
         style="fill:#00e800;fill-opacity:1;fill-rule:evenodd;stroke:#00e800;stroke-width:1.00000003pt;stroke-opacity:1"
         transform="matrix(-0.2,0,0,-0.2,-1.2,0)"
         inkscape:connector-curvature="0" />
    </marker>
    <marker
       inkscape:stockid="Arrow1Lend"
       orient="auto"
       refY="0"
       refX="0"
       id="Arrow1Lend"
       style="overflow:visible"
       inkscape:isstock="true">
      <path
         id="path7632"
         d="M 0,0 5,-5 -12.5,0 5,5 Z"
         style="fill:#00e800;fill-opacity:1;fill-rule:evenodd;stroke:#00e800;stroke-width:1.00000003pt;stroke-opacity:1"
         transform="matrix(-0.8,0,0,-0.8,-10,0)"
         inkscape:connector-curvature="0" />
    </marker>
    <marker
       style="overflow:visible"
       inkscape:stockid="InfiniteLineStart"
       id="InfiniteLineStart"
       refX="0"
       refY="0"
       orient="auto"
       inkscape:isstock="true">
      <g
         id="g7879"
         style="fill:#00e800;fill-opacity:1;stroke:#00e800;stroke-opacity:1"
         transform="translate(-13)">
        <circle
           id="circle7873"
           r="0.80000001"
           cy="0"
           cx="3"
           style="fill:#00e800;fill-opacity:1;stroke:#00e800;stroke-opacity:1" />
        <circle
           id="circle7875"
           r="0.80000001"
           cy="0"
           cx="6.5"
           style="fill:#00e800;fill-opacity:1;stroke:#00e800;stroke-opacity:1" />
        <circle
           id="circle7877"
           r="0.80000001"
           cy="0"
           cx="10"
           style="fill:#00e800;fill-opacity:1;stroke:#00e800;stroke-opacity:1" />
      </g>
    </marker>
    <marker
       inkscape:stockid="Scissors"
       orient="auto"
       refY="0"
       refX="0"
       id="Scissors"
       style="overflow:visible"
       inkscape:isstock="true">
      <path
         id="schere"
         d="M 9.0898857,-3.6061018 C 8.1198849,-4.7769976 6.3697607,-4.7358294 5.0623558,-4.2327734 l -8.2124046,3.0779029 c -2.3882933,-1.3067135 -4.7482873,-0.9325372 -4.7482873,-1.5687873 0,-0.4973164 0.4566662,-0.3883222 0.3883068,-1.6831941 -0.065635,-1.2432767 -1.3635771,-2.1630796 -2.5903987,-2.0816435 -1.227271,-0.00735 -2.499439,0.9331613 -2.510341,2.2300611 -0.09143,1.3063864 1.007209,2.5196896 2.306764,2.6052316 1.5223406,0.2266616 4.218258,-0.6955566 5.482945,1.57086006 -0.9422847,1.73825774 -2.6140244,1.74307674 -4.1255107,1.65607034 -1.2548743,-0.072235 -2.7620933,0.2873979 -3.3606483,1.5208605 -0.578367,1.1820862 -0.0112,2.8646022 1.316749,3.226412 1.3401912,0.4918277 3.1806689,-0.129711 3.4993722,-1.6707242 0.2456585,-1.187823 -0.5953659,-1.7459574 -0.2725074,-2.1771537 0.2436135,-0.32536 1.7907806,-0.1368452 4.5471053,-1.3748244 L 5.6763468,4.2330688 C 6.8000164,4.5467672 8.1730685,4.5362646 9.1684433,3.4313614 l -9.22008423,-3.48508362 z m -18.3078016,-1.900504 c 1.294559,0.7227998 1.1888392,2.6835702 -0.1564272,3.0632889 -1.2165179,0.423661 -2.7710269,-0.7589694 -2.3831779,-2.0774648 0.227148,-1.0818519 1.653387,-1.480632 2.5396051,-0.9858241 z m 0.056264,8.0173649 c 1.3508301,0.4988648 1.1214429,2.7844356 -0.2522207,3.091609 -0.9110594,0.3163391 -2.2135494,-0.1387976 -2.3056964,-1.2121394 -0.177609,-1.305055 1.356085,-2.4841482 2.5579171,-1.8794696 z"
         style="fill:#00e800;fill-opacity:1;stroke:#00e800;stroke-opacity:1"
         inkscape:connector-curvature="0" />
    </marker>
    <marker
       inkscape:stockid="EmptyTriangleOutL"
       orient="auto"
       refY="0"
       refX="0"
       id="EmptyTriangleOutL"
       style="overflow:visible"
       inkscape:isstock="true">
      <path
         id="path7789"
         d="M 5.77,0 -2.88,5 V -5 Z"
         style="fill:#ffffff;fill-rule:evenodd;stroke:#00e800;stroke-width:1.00000003pt;stroke-opacity:1"
         transform="matrix(0.8,0,0,0.8,-4.8,0)"
         inkscape:connector-curvature="0" />
    </marker>
    <marker
       inkscape:stockid="Tail"
       orient="auto"
       refY="0"
       refX="0"
       id="Tail"
       style="overflow:visible"
       inkscape:isstock="true">
      <g
         id="g7677"
         transform="scale(-1.2)"
         style="fill:#00e800;fill-opacity:1;stroke:#00e800;stroke-opacity:1">
        <path
           id="path7665"
           d="M -3.8048674,-3.9585227 0.54352094,0"
           style="fill:#00e800;fill-opacity:1;fill-rule:evenodd;stroke:#00e800;stroke-width:0.80000001;stroke-linecap:round;stroke-opacity:1"
           inkscape:connector-curvature="0" />
        <path
           id="path7667"
           d="M -1.2866832,-3.9585227 3.0617053,0"
           style="fill:#00e800;fill-opacity:1;fill-rule:evenodd;stroke:#00e800;stroke-width:0.80000001;stroke-linecap:round;stroke-opacity:1"
           inkscape:connector-curvature="0" />
        <path
           id="path7669"
           d="M 1.3053582,-3.9585227 5.6537466,0"
           style="fill:#00e800;fill-opacity:1;fill-rule:evenodd;stroke:#00e800;stroke-width:0.80000001;stroke-linecap:round;stroke-opacity:1"
           inkscape:connector-curvature="0" />
        <path
           id="path7671"
           d="M -3.8048674,4.1775838 0.54352094,0.21974226"
           style="fill:#00e800;fill-opacity:1;fill-rule:evenodd;stroke:#00e800;stroke-width:0.80000001;stroke-linecap:round;stroke-opacity:1"
           inkscape:connector-curvature="0" />
        <path
           id="path7673"
           d="M -1.2866832,4.1775838 3.0617053,0.21974226"
           style="fill:#00e800;fill-opacity:1;fill-rule:evenodd;stroke:#00e800;stroke-width:0.80000001;stroke-linecap:round;stroke-opacity:1"
           inkscape:connector-curvature="0" />
        <path
           id="path7675"
           d="M 1.3053582,4.1775838 5.6537466,0.21974226"
           style="fill:#00e800;fill-opacity:1;fill-rule:evenodd;stroke:#00e800;stroke-width:0.80000001;stroke-linecap:round;stroke-opacity:1"
           inkscape:connector-curvature="0" />
      </g>
    </marker>
    <marker
       inkscape:stockid="DotL"
       orient="auto"
       refY="0"
       refX="0"
       id="DotL"
       style="overflow:visible"
       inkscape:isstock="true">
      <path
         id="path7690"
         d="m -2.5,-1 c 0,2.76 -2.24,5 -5,5 -2.76,0 -5,-2.24 -5,-5 0,-2.76 2.24,-5 5,-5 2.76,0 5,2.24 5,5 z"
         style="fill:#00e800;fill-opacity:1;fill-rule:evenodd;stroke:#00e800;stroke-width:1.00000003pt;stroke-opacity:1"
         transform="matrix(0.8,0,0,0.8,5.92,0.8)"
         inkscape:connector-curvature="0" />
    </marker>
    <marker
       style="overflow:visible"
       id="DistanceStart"
       refX="0"
       refY="0"
       orient="auto"
       inkscape:stockid="DistanceStart"
       inkscape:isstock="true">
      <g
         id="g2300"
         style="fill:#00e800;fill-opacity:1;stroke:#00e800;stroke-opacity:1">
        <path
           style="fill:#00e800;fill-opacity:1;stroke:#00e800;stroke-width:1.14999998;stroke-linecap:square;stroke-opacity:1"
           d="M 0,0 H 2"
           id="path2306"
           inkscape:connector-curvature="0" />
        <path
           style="fill:#00e800;fill-opacity:1;fill-rule:evenodd;stroke:#00e800;stroke-opacity:1"
           d="M 0,0 13,4 9,0 13,-4 Z"
           id="path2302"
           inkscape:connector-curvature="0" />
        <path
           style="fill:#00e800;fill-opacity:1;stroke:#00e800;stroke-width:1;stroke-linecap:square;stroke-opacity:1"
           d="M 0,-4 V 40"
           id="path2304"
           inkscape:connector-curvature="0" />
      </g>
    </marker>
    <marker
       inkscape:stockid="Arrow1Lstart"
       orient="auto"
       refY="0"
       refX="0"
       id="Arrow1Lstart"
       style="overflow:visible"
       inkscape:isstock="true">
      <path
         id="path7629"
         d="M 0,0 5,-5 -12.5,0 5,5 Z"
         style="fill:#00e800;fill-opacity:1;fill-rule:evenodd;stroke:#00e800;stroke-width:1.00000003pt;stroke-opacity:1"
         transform="matrix(0.8,0,0,0.8,10,0)"
         inkscape:connector-curvature="0" />
    </marker>
    <linearGradient
       id="linearGradient7625"
       osb:paint="solid">
      <stop
         style="stop-color:#000000;stop-opacity:1;"
         offset="0"
         id="stop7623" />
    </linearGradient>
    <inkscape:path-effect
       effect="skeletal"
       id="path-effect6163"
       is_visible="true"
       pattern="M 0,5 C 0,2.24 2.24,0 5,0 7.76,0 10,2.24 10,5 10,7.76 7.76,10 5,10 2.24,10 0,7.76 0,5 Z"
       copytype="single_stretched"
       prop_scale="0.26458333"
       scale_y_rel="false"
       spacing="0"
       normal_offset="0"
       tang_offset="0"
       prop_units="false"
       vertical_pattern="false"
       fuse_tolerance="0" />
    <inkscape:path-effect
       effect="bspline"
       id="path-effect6161"
       is_visible="true"
       weight="33.333333"
       steps="2"
       helper_size="0"
       apply_no_weight="true"
       apply_with_weight="true"
       only_selected="false" />
    <inkscape:path-effect
       effect="skeletal"
       id="path-effect6157"
       is_visible="true"
       pattern="M 0,5 C 0,2.24 2.24,0 5,0 7.76,0 10,2.24 10,5 10,7.76 7.76,10 5,10 2.24,10 0,7.76 0,5 Z"
       copytype="single_stretched"
       prop_scale="0.26458333"
       scale_y_rel="false"
       spacing="0"
       normal_offset="0"
       tang_offset="0"
       prop_units="false"
       vertical_pattern="false"
       fuse_tolerance="0" />
    <inkscape:path-effect
       effect="skeletal"
       id="path-effect6153"
       is_visible="true"
       pattern="M 0,5 C 0,2.24 2.24,0 5,0 7.76,0 10,2.24 10,5 10,7.76 7.76,10 5,10 2.24,10 0,7.76 0,5 Z"
       copytype="single_stretched"
       prop_scale="0.26458333"
       scale_y_rel="false"
       spacing="0"
       normal_offset="0"
       tang_offset="0"
       prop_units="false"
       vertical_pattern="false"
       fuse_tolerance="0" />
    <inkscape:path-effect
       effect="powerstroke"
       id="path-effect6149"
       is_visible="true"
       offset_points="0,0.13229166"
       sort_points="true"
       interpolator_type="CubicBezierJohan"
       interpolator_beta="0.2"
       start_linecap_type="zerowidth"
       linejoin_type="extrp_arc"
       miter_limit="4"
       end_linecap_type="zerowidth" />
    <inkscape:path-effect
       effect="powerstroke"
       id="path-effect6145"
       is_visible="true"
       offset_points="0,0.13229166"
       sort_points="true"
       interpolator_type="CubicBezierJohan"
       interpolator_beta="0.2"
       start_linecap_type="zerowidth"
       linejoin_type="extrp_arc"
       miter_limit="4"
       end_linecap_type="zerowidth" />
    <inkscape:path-effect
       effect="bspline"
       id="path-effect6137"
       is_visible="true"
       weight="33.333333"
       steps="2"
       helper_size="0"
       apply_no_weight="true"
       apply_with_weight="true"
       only_selected="false" />
    <inkscape:path-effect
       effect="spiro"
       id="path-effect6133"
       is_visible="true" />
  </defs>
  <sodipodi:namedview
     id="base"
     pagecolor="#ffffff"
     bordercolor="#666666"
     borderopacity="1.0"
     inkscape:pageopacity="0.0"
     inkscape:pageshadow="2"
     inkscape:zoom="1.4"
     inkscape:cx="385.39908"
     inkscape:cy="87.030953"
     inkscape:document-units="mm"
     inkscape:current-layer="layer1"
     showgrid="false"
     inkscape:window-width="1680"
     inkscape:window-height="987"
     inkscape:window-x="-8"
     inkscape:window-y="-8"
     inkscape:window-maximized="1"
     units="mm"
     height="30mm" />
  <metadata
     id="metadata5114">
    <rdf:RDF>
      <cc:Work
         rdf:about="">
        <dc:format>image/svg+xml</dc:format>
        <dc:type
           rdf:resource="http://purl.org/dc/dcmitype/StillImage" />
        <dc:title></dc:title>
      </cc:Work>
    </rdf:RDF>
  </metadata>
  <g
     inkscape:label="Layer 1"
     inkscape:groupmode="layer"
     id="layer1"
     transform="translate(0,-267)">
    <path
      class="stroke-single"
      fill="none"
      stroke-width="0.26458332px"
      stroke-linecap="butt"
      stroke-linejoin="miter"
      stroke-opacity="1"
       d="m -1.8898809,272.99851 c 0.2519615,0.004 0.5039908,0.004 0.7559523,0 2.4777651,-0.0406 4.9389292,-0.4805 7.4169926,-0.46735 1.2390318,0.007 2.4840299,0.12808 3.6767344,0.46378 1.1927046,0.33571 2.3342296,0.89159 3.2693686,1.70446 0.714585,0.62115 1.305526,1.39413 1.662092,2.27124 0.356565,0.87712 0.471821,1.85985 0.269438,2.78479 -0.202382,0.92493 -0.731727,1.78492 -1.501528,2.33616 -0.769801,0.55125 -1.779297,0.77489 -2.69786,0.54531 -0.702726,-0.17563 -1.3346719,-0.60855 -1.7691031,-1.18816 -0.4344312,-0.5796 -0.6717829,-1.30046 -0.6877418,-2.02463 -0.026295,-1.19318 0.5499486,-2.36036 1.4345889,-3.16148 0.88464,-0.80112 2.052741,-1.25229 3.238912,-1.38412 1.186171,-0.13183 2.391423,0.0413 3.537491,0.37429 1.146069,0.33303 2.239808,0.82324 3.317282,1.33649 4.666652,2.22296 9.101722,4.90464 13.418154,7.74851 1.278227,0.84216 2.552204,1.70204 3.931913,2.36498 1.379709,0.66295 2.881637,1.12664 4.412351,1.12389 1.530714,-0.003 3.094626,-0.50685 4.197186,-1.56866 0.551281,-0.53091 0.979121,-1.19412 1.207988,-1.92446 0.228867,-0.73034 0.254989,-1.52714 0.04669,-2.26361 -0.186273,-0.6586 -0.556454,-1.26043 -1.040219,-1.74461 -0.483765,-0.48418 -1.07888,-0.85208 -1.718387,-1.09598 -1.279013,-0.48781 -2.70758,-0.47516 -4.044967,-0.18322 -2.77985,0.60681 -5.170117,2.34042 -7.351512,4.16725 -2.181395,1.82682 -4.281217,3.81365 -6.822594,5.09317 -1.27917,0.64403 -2.661845,1.0992 -4.085863,1.2516 -1.424019,0.1524 -2.890608,-0.004 -4.219713,-0.53783 -1.329106,-0.53342 -2.514332,-1.4526 -3.290066,-2.65647 -0.775733,-1.20386 -1.123801,-2.6941 -0.877572,-4.10492 0.289769,-1.6603 1.388131,-3.12487 2.813152,-4.02481 1.425021,-0.89993 3.148905,-1.26351 4.833223,-1.20318 3.368637,0.12066 6.449131,1.83174 9.362553,3.5271 2.546749,1.48199 5.092227,2.99192 7.823481,4.09757 2.731254,1.10566 5.680712,1.79947 8.618484,1.57207 2.976408,-0.23039 5.802687,-1.38966 8.463206,-2.74381 2.66052,-1.35416 5.21964,-2.91987 7.978758,-4.05976 1.989948,-0.82212 4.092661,-1.42013 6.242873,-1.53132 2.150212,-0.11119 4.355306,0.28402 6.23034,1.34233 2.421309,1.36664 4.132526,3.71933 6.425596,5.29167 0.932917,0.6397 1.969354,1.14931 3.078075,1.37354 1.108722,0.22423 2.294726,0.14989 3.320897,-0.32605 1.026171,-0.47594 1.873678,-1.37544 2.175822,-2.46551 0.151072,-0.54503 0.165248,-1.12946 0.02543,-1.67749 -0.139815,-0.54803 -0.435095,-1.0577 -0.851716,-1.44021 -0.609093,-0.55922 -1.445732,-0.82312 -2.27136,-0.86852 -0.825629,-0.0454 -1.648765,0.11083 -2.453342,0.30156 -5.507315,1.30555 -10.474656,4.21726 -15.686013,6.42559 -1.620342,0.68663 -3.279194,1.30975 -5.008081,1.63825 -1.728887,0.3285 -3.540003,0.35301 -5.227652,-0.14579 -1.68765,-0.4988 -3.24364,-1.55293 -4.157732,-3.05673 -0.457046,-0.7519 -0.748705,-1.60735 -0.818381,-2.48449 -0.06968,-0.87715 0.08554,-1.77472 0.470776,-2.56582 0.572946,-1.17657 1.638968,-2.07711 2.85046,-2.57195 1.211493,-0.49485 2.558874,-0.60328 3.858023,-0.44582 2.598299,0.31491 4.946648,1.63652 7.276636,2.82878 4.467421,2.28599 9.364253,4.22154 14.363096,3.77976 2.777993,-0.24551 5.442804,-1.21824 7.974602,-2.38764 2.531798,-1.16941 4.967065,-2.54298 7.52242,-3.65998 1.48438,-0.64885 3.01778,-1.21291 4.61479,-1.48488 1.59701,-0.27196 3.26763,-0.24193 4.80256,0.27613 1.53493,0.51807 2.92418,1.55273 3.70131,2.97416 0.38856,0.71072 0.62027,1.50975 0.64765,2.31929 0.0274,0.80954 -0.15207,1.62828 -0.53714,2.3409 -0.409,0.7569 -1.06277,1.39565 -1.86539,1.70547 -0.40131,0.1549 -0.83586,0.22652 -1.26501,0.19694 -0.42916,-0.0296 -0.85229,-0.16134 -1.21633,-0.39051 -0.40559,-0.25533 -0.73321,-0.62926 -0.94626,-1.05858 -0.21305,-0.42931 -0.31252,-0.91243 -0.30123,-1.39156 0.0226,-0.95827 0.4896,-1.87681 1.17698,-2.54486 0.68738,-0.66806 1.5805,-1.09919 2.50889,-1.33771 0.92838,-0.23852 1.89482,-0.29314 2.85329,-0.28187 4.05105,0.0476 7.98659,1.24338 11.90625,2.26786 2.00448,0.52391 4.05497,1.01951 5.82899,2.08968 0.88701,0.53508 1.69618,1.21374 2.31255,2.04633 0.61636,0.83258 1.03426,1.8241 1.11887,2.85655 0.0728,0.88873 -0.10386,1.79518 -0.4953,2.59638 -0.39144,0.8012 -0.9956,1.49576 -1.72861,2.00353 -1.46604,1.01556 -3.431,1.23499 -5.1135,0.64357 -1.68251,-0.59142 -3.05797,-1.95689 -3.739,-3.60516 -0.68103,-1.64827 -0.67913,-3.55152 -0.0739,-5.2291 0.45617,-1.26436 1.24291,-2.40326 2.24018,-3.30444 0.99728,-0.90118 2.20177,-1.56583 3.48561,-1.96388 2.56768,-0.79611 5.40639,-0.50582 7.88135,0.54362 2.98465,1.26557 5.44393,3.55773 8.42537,4.83085 1.49071,0.63656 3.13019,1.0085 4.73799,0.80251 0.8039,-0.103 1.59234,-0.35126 2.29326,-0.75818 0.70091,-0.40692 1.31249,-0.97464 1.7413,-1.66238 0.68077,-1.09186 0.87149,-2.45907 0.60252,-3.71734 -0.26897,-1.25828 -0.97867,-2.40388 -1.92544,-3.27522 -1.32067,-1.21545 -3.11665,-1.90506 -4.91112,-1.86789 -1.79447,0.0372 -3.56637,0.80502 -4.80768,2.10142 -1.24131,1.29639 -1.93252,3.10761 -1.85274,4.90069 0.0798,1.79308 0.93421,3.54181 2.31112,4.69316 1.62165,1.356 3.86654,1.83196 5.96223,1.55521 2.09569,-0.27675 4.05189,-1.24802 5.75503,-2.50015 2.22846,-1.63834 4.06171,-3.7479 6.13777,-5.57551 2.07606,-1.82762 4.52708,-3.4214 7.28039,-3.68491 1.13813,-0.10893 2.30233,0.0177 3.37804,0.40509 1.07571,0.38735 2.06036,1.03819 2.81008,1.9014 0.74971,0.86321 1.25918,1.93958 1.41441,3.07233 0.15522,1.13274 -0.0501,2.31776 -0.60997,3.31463 -0.67329,1.19881 -1.87586,2.10471 -3.22903,2.34848 -0.67658,0.12189 -1.38302,0.0814 -2.03829,-0.12658 -0.65526,-0.20796 -1.25773,-0.58393 -1.72524,-1.08797 -0.54198,-0.58433 -0.89642,-1.33519 -1.02895,-2.12108 -0.13253,-0.78588 -0.046,-1.60425 0.22337,-2.35435 0.53862,-1.5002 1.79559,-2.68326 3.25777,-3.31789 1.46217,-0.63463 3.11157,-0.75544 4.69183,-0.54694 1.58027,0.2085 3.10259,0.73295 4.57324,1.3477 1.57596,0.65877 3.15739,1.46388 4.23508,2.78911 0.53884,0.66262 0.93765,1.44978 1.08173,2.2916 0.14407,0.84181 0.0226,1.73844 -0.40312,2.47882 -0.38647,0.67208 -1.0152,1.1971 -1.73738,1.47906 -0.72218,0.28196 -1.53251,0.32299 -2.28538,0.13794 -0.75286,-0.18506 -1.44642,-0.59245 -1.99163,-1.14363 -0.54522,-0.55117 -0.94279,-1.24318 -1.16716,-1.98528 -0.37344,-1.23513 -0.25871,-2.60436 0.28137,-3.77624 0.54008,-1.17189 1.49491,-2.14095 2.64186,-2.73215 1.14694,-0.5912 2.47754,-0.80709 3.75789,-0.64671 1.28034,0.16039 2.50703,0.69155 3.52424,1.48546 1.69716,1.32459 2.7705,3.31024 4.42433,4.68855 0.82692,0.68915 1.81865,1.2234 2.88965,1.33149 0.5355,0.054 1.08461,-8.2e-4 1.59036,-0.18491 0.50576,-0.18408 0.96664,-0.49969 1.30102,-0.92144 0.44426,-0.56034 0.64951,-1.29223 0.61956,-2.00668 -0.0299,-0.71446 -0.28559,-1.40994 -0.67652,-2.00871 -0.78185,-1.19754 -2.05491,-1.98155 -3.34483,-2.59919 -4.21011,-2.01589 -9.0005,-2.64965 -13.65339,-2.2763 -4.6529,0.37335 -9.18533,1.71948 -13.50061,3.49913 -8.63057,3.55931 -16.48072,8.84802 -25.1957,12.19532 -1.86141,0.71494 -3.76947,1.34212 -5.74252,1.63036 -1.97304,0.28824 -4.02307,0.2268 -5.91249,-0.41045 -1.88942,-0.63724 -3.60837,-1.88304 -4.61028,-3.60704 -0.50096,-0.86199 -0.81786,-1.8341 -0.89123,-2.82839 -0.0734,-0.99429 0.0997,-2.0095 0.52557,-2.91097 0.61848,-1.30927 1.7541,-2.33895 3.06151,-2.96135 1.30741,-0.6224 2.77781,-0.8558 4.22536,-0.81952 2.8951,0.0726 5.64687,1.17897 8.39914,2.07998 8.76784,2.87033 18.41638,3.72171 27.21429,0.94494 2.96948,-0.93722 5.80126,-2.27004 8.76308,-3.23115 2.96183,-0.96112 6.13912,-1.5459 9.19078,-0.92659 3.89082,0.78961 7.10545,3.40914 10.36287,5.67875 1.62872,1.1348 3.31899,2.20639 5.16405,2.93868 1.84505,0.73229 3.86388,1.1145 5.82874,0.83198 2.20072,-0.31643 4.26729,-1.48749 5.66964,-3.2128"
       id="path8898"
       inkscape:connector-curvature="0"
       inkscape:path-effect="#path-effect8900"
       inkscape:original-d="m -1.8898809,272.99851 c 0.2522487,-2.6e-4 0.5042328,-2.6e-4 0.7559523,0 0.25171959,2.7e-4 9.5756614,1.13367 14.3630956,1.70089 4.787433,0.56723 -1.511641,5.29141 -2.267858,7.9375 -0.756216,2.6461 -1.6376319,-2.14213 -2.4568449,-3.21279 -0.8192129,-1.07067 7.6857799,-1.89015 11.5282739,-2.83482 3.842493,-0.94468 8.945701,5.16541 13.418154,7.74851 4.472453,2.5831 9.197687,-1.51217 13.796132,-2.26786 4.598445,-0.75569 -4.535451,-2.01614 -6.803573,-3.02381 -2.268122,-1.00767 -9.449138,6.17335 -14.174106,9.26042 -4.724967,3.08707 -8.315212,-4.03201 -12.473214,-6.04762 -4.158003,-2.01561 11.33955,-1.13419 17.008928,-1.70089 5.669378,-0.5667 10.961573,3.77949 16.441965,5.66964 5.480388,1.89014 10.961573,-4.53598 16.441964,-6.80357 5.480389,-2.2676 8.315741,-0.12626 12.473213,-0.18899 4.157474,-0.0627 4.283995,3.52751 6.425596,5.29167 2.141601,1.76415 5.16594,-3.02408 7.748511,-4.53572 2.582574,-1.51164 -3.149536,-0.37824 -4.724702,-0.56696 -1.575165,-0.18873 -10.457076,4.28346 -15.686013,6.42559 -5.228934,2.14213 -9.827114,-4.40998 -14.74107,-6.61458 -4.913955,-2.2046 9.323676,-0.12626 13.985119,-0.18899 4.661442,-0.0627 9.575662,2.51958 14.363096,3.77976 4.787432,1.26019 10.331614,-4.03201 15.497022,-6.04762 5.16541,-2.0156 8.81971,4.28347 13.22917,6.4256 4.40945,2.14213 -2.89756,1.00767 -4.34673,1.5119 -1.44917,0.50424 3.52804,-4.40998 5.29167,-6.61458 1.76362,-2.2046 7.93776,1.51164 11.90625,2.26786 3.96848,0.75621 6.17387,4.66144 9.26041,6.99256 3.08655,2.33111 -7.43326,-2.39412 -11.15029,-3.59078 -3.71703,-1.19666 9.07169,-3.15006 13.60714,-4.7247 4.53545,-1.57464 11.46554,2.1416 17.19792,3.2128 5.73237,1.0712 -0.88169,-4.66197 -1.32292,-6.99256 -0.44124,-2.33059 -6.17335,6.55132 -9.26042,9.82738 -3.08707,3.27606 7.81178,-0.63023 11.71726,-0.94494 3.90549,-0.31472 8.94571,-6.17388 13.41816,-9.26042 4.47245,-3.08654 4.66197,5.79537 6.99256,8.69345 2.33059,2.89809 -4.66144,0.75569 -6.99256,1.13393 -2.33112,0.37824 7.81177,-4.66197 11.71726,-6.99256 3.90549,-2.33058 3.27606,5.03942 4.91369,7.55953 1.63763,2.5201 -4.78743,-1.0082 -7.18155,-1.51191 -2.39411,-0.5037 6.80384,-3.78002 10.20536,-5.66964 3.40152,-1.88962 6.80384,3.27553 10.20536,4.91369 3.40152,1.63816 -2.2676,-4.40999 -3.40179,-6.61458 -1.13419,-2.2046 -34.89953,8.94517 -52.3497,13.41815 -17.45017,4.47298 -11.08704,-5.41792 -16.63095,-8.12649 -5.54392,-2.70856 10.4576,-1.13419 15.68601,-1.70089 5.22841,-0.5667 18.14312,0.6297 27.21429,0.94494 9.07116,0.31525 11.9695,-2.77209 17.95386,-4.15774 5.98436,-1.38564 14.23737,6.29934 21.35566,9.44941 7.11829,3.15006 3.78002,-2.14213 5.66964,-3.2128" />
  </g>
</svg>
