<?xml version="1.0" encoding="UTF-8" standalone="no"?>
<!-- Created with Inkscape (http://www.inkscape.org/) -->

<svg
   xmlns:osb="http://www.openswatchbook.org/uri/2009/osb"
   xmlns:dc="http://purl.org/dc/elements/1.1/"
   xmlns:cc="http://creativecommons.org/ns#"
   xmlns:rdf="http://www.w3.org/1999/02/22-rdf-syntax-ns#"
   xmlns:svg="http://www.w3.org/2000/svg"
   xmlns="http://www.w3.org/2000/svg"
   xmlns:sodipodi="http://sodipodi.sourceforge.net/DTD/sodipodi-0.dtd"
   xmlns:inkscape="http://www.inkscape.org/namespaces/inkscape"
   width="210mm"
   height="30mm"
   viewBox="0 0 210 30"
   version="1.1"
   id="svg5117"
   sodipodi:docname="to-right-6.svg"
   inkscape:version="0.92.4 (5da689c313, 2019-01-14)">
               <style>
      @import "svg.css";
   </style>
  <defs
     id="defs5111">
    <inkscape:path-effect
       effect="spiro"
       id="path-effect8880"
       is_visible="true" />
    <inkscape:path-effect
       effect="spiro"
       id="path-effect8872"
       is_visible="true" />
    <inkscape:path-effect
       effect="spiro"
       id="path-effect8868"
       is_visible="true" />
    <inkscape:path-effect
       effect="spiro"
       id="path-effect8864"
       is_visible="true" />
    <inkscape:path-effect
       effect="spiro"
       id="path-effect8860"
       is_visible="true" />
    <inkscape:path-effect
       effect="spiro"
       id="path-effect8854"
       is_visible="true" />
    <inkscape:path-effect
       effect="spiro"
       id="path-effect8850"
       is_visible="true" />
    <inkscape:path-effect
       effect="skeletal"
       id="path-effect8838"
       is_visible="true"
       pattern="M 0,5 C 0,2.24 2.24,0 5,0 7.76,0 10,2.24 10,5 10,7.76 7.76,10 5,10 2.24,10 0,7.76 0,5 Z"
       copytype="single_stretched"
       prop_scale="0.26458333"
       scale_y_rel="false"
       spacing="0"
       normal_offset="0"
       tang_offset="0"
       prop_units="false"
       vertical_pattern="false"
       fuse_tolerance="0" />
    <inkscape:path-effect
       effect="spiro"
       id="path-effect8836"
       is_visible="true" />
    <marker
       inkscape:stockid="Arrow2Lstart"
       orient="auto"
       refY="0"
       refX="0"
       id="Arrow2Lstart"
       style="overflow:visible"
       inkscape:isstock="true">
      <path
         id="path7647"
         style="fill:#00e800;fill-opacity:1;fill-rule:evenodd;stroke:#00e800;stroke-width:0.625;stroke-linejoin:round;stroke-opacity:1"
         d="M 8.7185878,4.0337352 -2.2072895,0.01601326 8.7185884,-4.0017078 c -1.7454984,2.3720609 -1.7354408,5.6174519 -6e-7,8.035443 z"
         transform="matrix(1.1,0,0,1.1,1.1,0)"
         inkscape:connector-curvature="0" />
    </marker>
    <marker
       inkscape:stockid="Arrow1Sstart"
       orient="auto"
       refY="0"
       refX="0"
       id="Arrow1Sstart"
       style="overflow:visible"
       inkscape:isstock="true">
      <path
         id="path7641"
         d="M 0,0 5,-5 -12.5,0 5,5 Z"
         style="fill:#00e800;fill-opacity:1;fill-rule:evenodd;stroke:#00e800;stroke-width:1.00000003pt;stroke-opacity:1"
         transform="matrix(0.2,0,0,0.2,1.2,0)"
         inkscape:connector-curvature="0" />
    </marker>
    <marker
       inkscape:stockid="Arrow1Send"
       orient="auto"
       refY="0"
       refX="0"
       id="Arrow1Send"
       style="overflow:visible"
       inkscape:isstock="true">
      <path
         id="path7644"
         d="M 0,0 5,-5 -12.5,0 5,5 Z"
         style="fill:#00e800;fill-opacity:1;fill-rule:evenodd;stroke:#00e800;stroke-width:1.00000003pt;stroke-opacity:1"
         transform="matrix(-0.2,0,0,-0.2,-1.2,0)"
         inkscape:connector-curvature="0" />
    </marker>
    <marker
       inkscape:stockid="Arrow1Lend"
       orient="auto"
       refY="0"
       refX="0"
       id="Arrow1Lend"
       style="overflow:visible"
       inkscape:isstock="true">
      <path
         id="path7632"
         d="M 0,0 5,-5 -12.5,0 5,5 Z"
         style="fill:#00e800;fill-opacity:1;fill-rule:evenodd;stroke:#00e800;stroke-width:1.00000003pt;stroke-opacity:1"
         transform="matrix(-0.8,0,0,-0.8,-10,0)"
         inkscape:connector-curvature="0" />
    </marker>
    <marker
       style="overflow:visible"
       inkscape:stockid="InfiniteLineStart"
       id="InfiniteLineStart"
       refX="0"
       refY="0"
       orient="auto"
       inkscape:isstock="true">
      <g
         id="g7879"
         style="fill:#00e800;fill-opacity:1;stroke:#00e800;stroke-opacity:1"
         transform="translate(-13)">
        <circle
           id="circle7873"
           r="0.80000001"
           cy="0"
           cx="3"
           style="fill:#00e800;fill-opacity:1;stroke:#00e800;stroke-opacity:1" />
        <circle
           id="circle7875"
           r="0.80000001"
           cy="0"
           cx="6.5"
           style="fill:#00e800;fill-opacity:1;stroke:#00e800;stroke-opacity:1" />
        <circle
           id="circle7877"
           r="0.80000001"
           cy="0"
           cx="10"
           style="fill:#00e800;fill-opacity:1;stroke:#00e800;stroke-opacity:1" />
      </g>
    </marker>
    <marker
       inkscape:stockid="Scissors"
       orient="auto"
       refY="0"
       refX="0"
       id="Scissors"
       style="overflow:visible"
       inkscape:isstock="true">
      <path
         id="schere"
         d="M 9.0898857,-3.6061018 C 8.1198849,-4.7769976 6.3697607,-4.7358294 5.0623558,-4.2327734 l -8.2124046,3.0779029 c -2.3882933,-1.3067135 -4.7482873,-0.9325372 -4.7482873,-1.5687873 0,-0.4973164 0.4566662,-0.3883222 0.3883068,-1.6831941 -0.065635,-1.2432767 -1.3635771,-2.1630796 -2.5903987,-2.0816435 -1.227271,-0.00735 -2.499439,0.9331613 -2.510341,2.2300611 -0.09143,1.3063864 1.007209,2.5196896 2.306764,2.6052316 1.5223406,0.2266616 4.218258,-0.6955566 5.482945,1.57086006 -0.9422847,1.73825774 -2.6140244,1.74307674 -4.1255107,1.65607034 -1.2548743,-0.072235 -2.7620933,0.2873979 -3.3606483,1.5208605 -0.578367,1.1820862 -0.0112,2.8646022 1.316749,3.226412 1.3401912,0.4918277 3.1806689,-0.129711 3.4993722,-1.6707242 0.2456585,-1.187823 -0.5953659,-1.7459574 -0.2725074,-2.1771537 0.2436135,-0.32536 1.7907806,-0.1368452 4.5471053,-1.3748244 L 5.6763468,4.2330688 C 6.8000164,4.5467672 8.1730685,4.5362646 9.1684433,3.4313614 l -9.22008423,-3.48508362 z m -18.3078016,-1.900504 c 1.294559,0.7227998 1.1888392,2.6835702 -0.1564272,3.0632889 -1.2165179,0.423661 -2.7710269,-0.7589694 -2.3831779,-2.0774648 0.227148,-1.0818519 1.653387,-1.480632 2.5396051,-0.9858241 z m 0.056264,8.0173649 c 1.3508301,0.4988648 1.1214429,2.7844356 -0.2522207,3.091609 -0.9110594,0.3163391 -2.2135494,-0.1387976 -2.3056964,-1.2121394 -0.177609,-1.305055 1.356085,-2.4841482 2.5579171,-1.8794696 z"
         style="fill:#00e800;fill-opacity:1;stroke:#00e800;stroke-opacity:1"
         inkscape:connector-curvature="0" />
    </marker>
    <marker
       inkscape:stockid="EmptyTriangleOutL"
       orient="auto"
       refY="0"
       refX="0"
       id="EmptyTriangleOutL"
       style="overflow:visible"
       inkscape:isstock="true">
      <path
         id="path7789"
         d="M 5.77,0 -2.88,5 V -5 Z"
         style="fill:#ffffff;fill-rule:evenodd;stroke:#00e800;stroke-width:1.00000003pt;stroke-opacity:1"
         transform="matrix(0.8,0,0,0.8,-4.8,0)"
         inkscape:connector-curvature="0" />
    </marker>
    <marker
       inkscape:stockid="Tail"
       orient="auto"
       refY="0"
       refX="0"
       id="Tail"
       style="overflow:visible"
       inkscape:isstock="true">
      <g
         id="g7677"
         transform="scale(-1.2)"
         style="fill:#00e800;fill-opacity:1;stroke:#00e800;stroke-opacity:1">
        <path
           id="path7665"
           d="M -3.8048674,-3.9585227 0.54352094,0"
           style="fill:#00e800;fill-opacity:1;fill-rule:evenodd;stroke:#00e800;stroke-width:0.80000001;stroke-linecap:round;stroke-opacity:1"
           inkscape:connector-curvature="0" />
        <path
           id="path7667"
           d="M -1.2866832,-3.9585227 3.0617053,0"
           style="fill:#00e800;fill-opacity:1;fill-rule:evenodd;stroke:#00e800;stroke-width:0.80000001;stroke-linecap:round;stroke-opacity:1"
           inkscape:connector-curvature="0" />
        <path
           id="path7669"
           d="M 1.3053582,-3.9585227 5.6537466,0"
           style="fill:#00e800;fill-opacity:1;fill-rule:evenodd;stroke:#00e800;stroke-width:0.80000001;stroke-linecap:round;stroke-opacity:1"
           inkscape:connector-curvature="0" />
        <path
           id="path7671"
           d="M -3.8048674,4.1775838 0.54352094,0.21974226"
           style="fill:#00e800;fill-opacity:1;fill-rule:evenodd;stroke:#00e800;stroke-width:0.80000001;stroke-linecap:round;stroke-opacity:1"
           inkscape:connector-curvature="0" />
        <path
           id="path7673"
           d="M -1.2866832,4.1775838 3.0617053,0.21974226"
           style="fill:#00e800;fill-opacity:1;fill-rule:evenodd;stroke:#00e800;stroke-width:0.80000001;stroke-linecap:round;stroke-opacity:1"
           inkscape:connector-curvature="0" />
        <path
           id="path7675"
           d="M 1.3053582,4.1775838 5.6537466,0.21974226"
           style="fill:#00e800;fill-opacity:1;fill-rule:evenodd;stroke:#00e800;stroke-width:0.80000001;stroke-linecap:round;stroke-opacity:1"
           inkscape:connector-curvature="0" />
      </g>
    </marker>
    <marker
       inkscape:stockid="DotL"
       orient="auto"
       refY="0"
       refX="0"
       id="DotL"
       style="overflow:visible"
       inkscape:isstock="true">
      <path
         id="path7690"
         d="m -2.5,-1 c 0,2.76 -2.24,5 -5,5 -2.76,0 -5,-2.24 -5,-5 0,-2.76 2.24,-5 5,-5 2.76,0 5,2.24 5,5 z"
         style="fill:#00e800;fill-opacity:1;fill-rule:evenodd;stroke:#00e800;stroke-width:1.00000003pt;stroke-opacity:1"
         transform="matrix(0.8,0,0,0.8,5.92,0.8)"
         inkscape:connector-curvature="0" />
    </marker>
    <marker
       style="overflow:visible"
       id="DistanceStart"
       refX="0"
       refY="0"
       orient="auto"
       inkscape:stockid="DistanceStart"
       inkscape:isstock="true">
      <g
         id="g2300"
         style="fill:#00e800;fill-opacity:1;stroke:#00e800;stroke-opacity:1">
        <path
           style="fill:#00e800;fill-opacity:1;stroke:#00e800;stroke-width:1.14999998;stroke-linecap:square;stroke-opacity:1"
           d="M 0,0 H 2"
           id="path2306"
           inkscape:connector-curvature="0" />
        <path
           style="fill:#00e800;fill-opacity:1;fill-rule:evenodd;stroke:#00e800;stroke-opacity:1"
           d="M 0,0 13,4 9,0 13,-4 Z"
           id="path2302"
           inkscape:connector-curvature="0" />
        <path
           style="fill:#00e800;fill-opacity:1;stroke:#00e800;stroke-width:1;stroke-linecap:square;stroke-opacity:1"
           d="M 0,-4 V 40"
           id="path2304"
           inkscape:connector-curvature="0" />
      </g>
    </marker>
    <marker
       inkscape:stockid="Arrow1Lstart"
       orient="auto"
       refY="0"
       refX="0"
       id="Arrow1Lstart"
       style="overflow:visible"
       inkscape:isstock="true">
      <path
         id="path7629"
         d="M 0,0 5,-5 -12.5,0 5,5 Z"
         style="fill:#00e800;fill-opacity:1;fill-rule:evenodd;stroke:#00e800;stroke-width:1.00000003pt;stroke-opacity:1"
         transform="matrix(0.8,0,0,0.8,10,0)"
         inkscape:connector-curvature="0" />
    </marker>
    <linearGradient
       id="linearGradient7625"
       osb:paint="solid">
      <stop
         style="stop-color:#000000;stop-opacity:1;"
         offset="0"
         id="stop7623" />
    </linearGradient>
    <inkscape:path-effect
       effect="skeletal"
       id="path-effect6163"
       is_visible="true"
       pattern="M 0,5 C 0,2.24 2.24,0 5,0 7.76,0 10,2.24 10,5 10,7.76 7.76,10 5,10 2.24,10 0,7.76 0,5 Z"
       copytype="single_stretched"
       prop_scale="0.26458333"
       scale_y_rel="false"
       spacing="0"
       normal_offset="0"
       tang_offset="0"
       prop_units="false"
       vertical_pattern="false"
       fuse_tolerance="0" />
    <inkscape:path-effect
       effect="bspline"
       id="path-effect6161"
       is_visible="true"
       weight="33.333333"
       steps="2"
       helper_size="0"
       apply_no_weight="true"
       apply_with_weight="true"
       only_selected="false" />
    <inkscape:path-effect
       effect="skeletal"
       id="path-effect6157"
       is_visible="true"
       pattern="M 0,5 C 0,2.24 2.24,0 5,0 7.76,0 10,2.24 10,5 10,7.76 7.76,10 5,10 2.24,10 0,7.76 0,5 Z"
       copytype="single_stretched"
       prop_scale="0.26458333"
       scale_y_rel="false"
       spacing="0"
       normal_offset="0"
       tang_offset="0"
       prop_units="false"
       vertical_pattern="false"
       fuse_tolerance="0" />
    <inkscape:path-effect
       effect="skeletal"
       id="path-effect6153"
       is_visible="true"
       pattern="M 0,5 C 0,2.24 2.24,0 5,0 7.76,0 10,2.24 10,5 10,7.76 7.76,10 5,10 2.24,10 0,7.76 0,5 Z"
       copytype="single_stretched"
       prop_scale="0.26458333"
       scale_y_rel="false"
       spacing="0"
       normal_offset="0"
       tang_offset="0"
       prop_units="false"
       vertical_pattern="false"
       fuse_tolerance="0" />
    <inkscape:path-effect
       effect="powerstroke"
       id="path-effect6149"
       is_visible="true"
       offset_points="0,0.13229166"
       sort_points="true"
       interpolator_type="CubicBezierJohan"
       interpolator_beta="0.2"
       start_linecap_type="zerowidth"
       linejoin_type="extrp_arc"
       miter_limit="4"
       end_linecap_type="zerowidth" />
    <inkscape:path-effect
       effect="powerstroke"
       id="path-effect6145"
       is_visible="true"
       offset_points="0,0.13229166"
       sort_points="true"
       interpolator_type="CubicBezierJohan"
       interpolator_beta="0.2"
       start_linecap_type="zerowidth"
       linejoin_type="extrp_arc"
       miter_limit="4"
       end_linecap_type="zerowidth" />
    <inkscape:path-effect
       effect="bspline"
       id="path-effect6137"
       is_visible="true"
       weight="33.333333"
       steps="2"
       helper_size="0"
       apply_no_weight="true"
       apply_with_weight="true"
       only_selected="false" />
    <inkscape:path-effect
       effect="spiro"
       id="path-effect6133"
       is_visible="true" />
  </defs>
  <sodipodi:namedview
     id="base"
     pagecolor="#ffffff"
     bordercolor="#666666"
     borderopacity="1.0"
     inkscape:pageopacity="0.0"
     inkscape:pageshadow="2"
     inkscape:zoom="1.4"
     inkscape:cx="385.39908"
     inkscape:cy="87.030953"
     inkscape:document-units="mm"
     inkscape:current-layer="layer1"
     showgrid="false"
     inkscape:window-width="1680"
     inkscape:window-height="987"
     inkscape:window-x="-8"
     inkscape:window-y="-8"
     inkscape:window-maximized="1"
     units="mm"
     height="30mm" />
  <metadata
     id="metadata5114">
    <rdf:RDF>
      <cc:Work
         rdf:about="">
        <dc:format>image/svg+xml</dc:format>
        <dc:type
           rdf:resource="http://purl.org/dc/dcmitype/StillImage" />
        <dc:title></dc:title>
      </cc:Work>
    </rdf:RDF>
  </metadata>
  <g
     inkscape:label="Layer 1"
     inkscape:groupmode="layer"
     id="layer1"
     transform="translate(0,-267)">
    <path
      class="stroke-single"
      fill="none"
      stroke-width="0.26458332px"
      stroke-linecap="butt"
      stroke-linejoin="miter"
      stroke-opacity="1"       d="m -3.2127975,278.47917 c 2.0504596,-0.89134 4.3817936,-1.12281 6.5674876,-0.65204 2.1856939,0.47076 4.215028,1.64145 5.7167383,3.29787 0.5285043,0.58295 0.9954626,1.22837 1.3223006,1.94415 0.326837,0.71577 0.510168,1.50516 0.464553,2.2907 -0.04561,0.78554 -0.329121,1.56579 -0.849503,2.15601 -0.520383,0.59021 -1.2844284,0.97548 -2.0712791,0.97968 -0.6720778,0.004 -1.3365332,-0.27022 -1.8307422,-0.7257 -0.494209,-0.45547 -0.8184222,-1.08497 -0.930993,-1.74757 -0.1125709,-0.66259 -0.017432,-1.35491 0.2427288,-1.9746 0.2601607,-0.61969 0.6819025,-1.16695 1.1960897,-1.59975 0.6697862,-0.56377 1.4926563,-0.9335 2.349478,-1.11323 0.8568218,-0.17973 1.7470268,-0.1735 2.6116008,-0.0358 1.729149,0.27537 3.33197,1.06142 4.866302,1.90499 2.960838,1.62786 5.822761,3.52575 9.059473,4.49538 1.618356,0.48482 3.324017,0.72786 5.004766,0.55697 1.680749,-0.17089 3.33702,-0.77101 4.645582,-1.83955 0.674629,-0.55089 1.254835,-1.22567 1.649841,-2.00193 0.395006,-0.77625 0.600091,-1.65606 0.534693,-2.52458 -0.0654,-0.86851 -0.4092,-1.72226 -1.003896,-2.35861 -0.594695,-0.63635 -1.443654,-1.04171 -2.314566,-1.05238 -0.922835,-0.0113 -1.832889,0.4253 -2.433248,1.12624 -0.600359,0.70095 -0.891064,1.64865 -0.8287,2.56944 0.06236,0.9208 0.468236,1.80754 1.093665,2.48621 0.625429,0.67867 1.462633,1.15096 2.35727,1.37763 0.862555,0.21854 1.772969,0.21346 2.648558,0.055 0.875588,-0.15845 1.718752,-0.46711 2.52335,-0.84709 1.609198,-0.75995 3.069347,-1.80272 4.655473,-2.60972 1.01378,-0.5158 2.105888,-0.93998 3.243121,-0.96231 0.568616,-0.0112 1.142667,0.0807 1.66648,0.30222 0.523813,0.22151 0.995853,0.5757 1.327007,1.03807 0.43832,0.612 0.612181,1.39959 0.507137,2.14499 -0.105045,0.74541 -0.480949,1.44399 -1.020624,1.96879 -0.539675,0.52481 -1.237315,0.8778 -1.972882,1.03783 -0.735567,0.16002 -1.507287,0.13062 -2.238333,-0.0489 -1.007491,-0.24745 -1.932923,-0.77445 -2.728575,-1.44019 -0.795652,-0.66574 -1.467505,-1.46819 -2.07018,-2.31261 -1.205349,-1.68885 -2.153938,-3.56506 -3.516721,-5.12964 -1.948168,-2.23664 -4.794457,-3.757 -7.760383,-3.79162 -1.482964,-0.0173 -2.974425,0.33424 -4.272135,1.05217 -1.29771,0.71794 -2.395549,1.80516 -3.08653,3.11742 -0.446305,0.84759 -0.723585,1.79144 -0.744255,2.74913 -0.02067,0.95769 0.22236,1.92827 0.744255,2.73153 0.502484,0.77338 1.252193,1.37455 2.096498,1.74571 0.844306,0.37116 1.779805,0.51718 2.701097,0.47438 1.842584,-0.0856 3.58204,-0.90765 5.095908,-1.96153 1.513867,-1.05387 2.846516,-2.34288 4.26855,-3.51772 1.422035,-1.17485 2.971073,-2.25479 4.736756,-2.78846 2.227296,-0.67319 4.693041,-0.41268 6.803573,0.56696 2.093146,0.97157 3.832081,2.60041 5.940774,3.53776 1.054346,0.46868 2.211421,0.75805 3.360792,0.65682 0.574685,-0.0506 1.14272,-0.1995 1.658265,-0.45842 0.515546,-0.25891 0.977646,-0.62924 1.324394,-1.09032 0.689689,-0.91709 0.876509,-2.1023 1.237808,-3.19142 0.18065,-0.54456 0.41279,-1.07974 0.766217,-1.5317 0.353428,-0.45196 0.8387,-0.81755 1.39776,-0.94652 0.437083,-0.10083 0.903892,-0.0522 1.319799,0.11578 0.415907,0.16802 0.781031,0.45243 1.063892,0.80056 0.565723,0.69627 0.790356,1.62195 0.782811,2.51904 -0.01509,1.79419 -0.879173,3.47597 -1.087634,5.25807 -0.141828,1.21247 0.02863,2.46093 0.496147,3.58859 0.467515,1.12766 1.231631,2.13166 2.197829,2.87775 0.966198,0.74609 2.132491,1.23185 3.343459,1.38594 1.210968,0.1541 2.46342,-0.0246 3.580448,-0.51699 1.117027,-0.49238 2.095045,-1.29768 2.787464,-2.30304 0.692418,-1.00536 1.096392,-2.20803 1.145036,-3.42779 0.04865,-1.21977 -0.259024,-2.45248 -0.880524,-3.50316 -0.6215,-1.05068 -1.555268,-1.91502 -2.653488,-2.44803 -1.006303,-0.4884 -2.137152,-0.6972 -3.255473,-0.67391 -1.11832,0.0233 -2.225057,0.27371 -3.272977,0.66493 -2.095838,0.78242 -3.937235,2.10784 -5.755778,3.41077 -1.345566,0.96406 -2.700232,1.92796 -4.17557,2.67852 -1.475337,0.75056 -3.086798,1.28523 -4.741374,1.33353 -1.654576,0.0483 -3.357393,-0.42218 -4.620644,-1.49183 -0.631625,-0.53482 -1.145458,-1.21304 -1.462736,-1.97745 -0.317279,-0.76441 -0.434611,-1.6148 -0.307711,-2.43265 0.108929,-0.70203 0.395693,-1.37301 0.80867,-1.95108 0.412976,-0.57807 0.950399,-1.06386 1.554837,-1.43718 1.208877,-0.74665 2.664261,-1.03282 4.084333,-0.98531 2.840146,0.095 5.461422,1.4392 8.104243,2.48369 6.679311,2.63977 14.030662,3.45764 21.166667,2.64583 3.58145,-0.40744 7.109459,-1.21529 10.694618,-1.58869 3.585158,-0.3734 7.304407,-0.292 10.661037,1.02172 0.64263,0.25151 1.26915,0.54709 1.92801,0.75236 0.65886,0.20527 1.36218,0.31825 2.04074,0.19258 0.65233,-0.12082 1.25818,-0.4636 1.71369,-0.94593 0.45551,-0.48233 0.76124,-1.10022 0.88991,-1.75105 0.12866,-0.65083 0.0824,-1.33271 -0.11191,-1.96704 -0.19431,-0.63433 -0.53468,-1.221 -0.97236,-1.71956 -0.87537,-0.99712 -2.12216,-1.62381 -3.41943,-1.9024 -1.29727,-0.2786 -2.64666,-0.2283 -3.95853,-0.0295 -5.666123,0.85867 -10.572229,4.38317 -14.741074,8.31547 -1.225213,1.15569 -2.411839,2.35854 -3.740554,3.39357 -1.328716,1.03503 -2.81888,1.90588 -4.457333,2.29607 -1.638453,0.39019 -3.441298,0.26316 -4.896386,-0.58507 -0.727544,-0.42411 -1.357026,-1.02317 -1.78793,-1.74671 -0.430905,-0.72355 -0.658699,-1.57192 -0.614818,-2.41291 0.04585,-0.8788 0.386891,-1.73215 0.918552,-2.43338 0.531662,-0.70122 1.248323,-1.25304 2.040338,-1.63658 1.58403,-0.76707 3.419196,-0.85635 5.167596,-0.65475 4.405782,0.50802 8.397145,2.71918 12.450627,4.5187 2.02674,0.89976 4.108099,1.70831 6.280674,2.15235 2.172578,0.44403 4.449998,0.51304 6.593108,-0.0565 2.25098,-0.59816 4.26123,-1.86878 6.14981,-3.23185 1.88858,-1.36308 3.7068,-2.8435 5.75644,-3.9497 1.88181,-1.01562 3.95767,-1.70423 6.09068,-1.85564 2.13302,-0.15142 4.32407,0.25052 6.19354,1.28867 1.80107,1.00016 3.23715,2.53713 4.58325,4.09668 1.34609,1.55955 2.6508,3.18318 4.28739,4.43447 0.8183,0.62564 1.71762,1.15382 2.68851,1.49793 0.97089,0.3441 2.01577,0.50056 3.0395,0.38647 1.02374,-0.11409 2.0246,-0.5062 2.8111,-1.17138 0.78649,-0.66519 1.34707,-1.60934 1.48906,-2.62958 0.11128,-0.79961 -0.0343,-1.62747 -0.37617,-2.35882 -0.34187,-0.73135 -0.87546,-1.36689 -1.51264,-1.86262 -1.27438,-0.99144 -2.92271,-1.4061 -4.53678,-1.44821 -2.05105,-0.0535 -4.08282,0.45338 -6.00048,1.18293 -1.91766,0.72955 -3.74167,1.68059 -5.59546,2.55987 -1.85378,0.87928 -3.756,1.69323 -5.76181,2.12495 -2.00581,0.43172 -4.13517,0.46508 -6.07678,-0.1981 -2.15793,-0.73707 -3.93436,-2.26656 -5.72174,-3.68262 -1.78738,-1.41605 -3.73908,-2.79168 -5.99552,-3.12095 -2.18756,-0.31922 -4.51142,0.45118 -6.06083,2.02808 -1.54942,1.57691 -2.279001,3.92459 -1.87667,6.0984 0.25986,1.40404 0.96665,2.71298 1.95359,3.74488 0.98693,1.0319 2.24677,1.78976 3.60209,2.23917 2.71063,0.8988 5.72394,0.55192 8.37924,-0.49916 2.6553,-1.05109 4.99711,-2.76306 7.17487,-4.61044 2.17775,-1.84738 4.22569,-3.84919 6.48247,-5.59915 2.464,-1.91064 5.19193,-3.5219 8.163,-4.46772 2.97107,-0.94582 6.19939,-1.20366 9.22391,-0.44597 3.42792,0.85875 6.39364,2.94029 9.45337,4.70836 1.52987,0.88403 3.10941,1.70092 4.78911,2.24919 1.67971,0.54827 3.4701,0.82188 5.22329,0.60198 1.77408,-0.22252 3.45696,-0.94262 4.98197,-1.87601 1.52502,-0.93338 2.90743,-2.07899 4.27845,-3.22667 1.61495,-1.35187 3.22769,-2.71655 4.99349,-3.86441 1.7658,-1.14785 3.70038,-2.07971 5.76748,-2.4831 2.0671,-0.4034 4.27918,-0.25093 6.17185,0.67289 0.94633,0.46191 1.80386,1.11261 2.47792,1.92166 0.67405,0.80905 1.16177,1.7774 1.37795,2.80802 0.34062,1.62387 -0.0184,3.37444 -0.93478,4.75762 -0.9164,1.38319 -2.3717,2.38975 -3.97891,2.8019 -2.09959,0.53842 -4.3431,0.0798 -6.34482,-0.7516 -2.00172,-0.83142 -3.83104,-2.02113 -5.75042,-3.02816 -1.09145,-0.57264 -2.22345,-1.09317 -3.18851,-1.85988 -0.48252,-0.38336 -0.92062,-0.82794 -1.26041,-1.34208 -0.33979,-0.51414 -0.57938,-1.09996 -0.65376,-1.71173 -0.13206,-1.0862 0.2801,-2.21002 1.02919,-3.00761 0.74908,-0.79759 1.81167,-1.27346 2.90064,-1.38029 1.08898,-0.10683 2.19893,0.14243 3.1769,0.6332 0.97797,0.49077 1.8277,1.21611 2.53166,2.0538 1.26627,1.50683 2.07201,3.36863 3.41309,4.80928 0.67054,0.72033 1.4835,1.33183 2.41945,1.63596 0.93594,0.30412 2.00392,0.27514 2.86092,-0.20863 0.47376,-0.26744 0.86803,-0.66192 1.18134,-1.10668 0.31331,-0.44476 0.54892,-0.93982 0.74928,-1.44561 0.40072,-1.0116 0.66976,-2.0831 1.21423,-3.02515 0.27224,-0.47102 0.61445,-0.90721 1.04313,-1.24218 0.42868,-0.33498 0.94781,-0.56515 1.49039,-0.60494 0.54258,-0.0398 1.10683,0.12126 1.51456,0.48144 0.20386,0.18009 0.36678,0.40742 0.46549,0.66089 0.0987,0.25348 0.1324,0.53287 0.0901,0.80158 -0.058,0.36813 -0.25586,0.70485 -0.51543,0.97225 -0.25956,0.2674 -0.57874,0.47025 -0.91042,0.64015 -0.66336,0.33981 -1.39742,0.56351 -1.97594,1.03343 -0.70782,0.57496 -1.10972,1.49485 -1.09178,2.40659 0.0179,0.91174 0.44296,1.80018 1.11376,2.41794 0.6708,0.61775 1.574,0.96592 2.48523,1.00129 0.91123,0.0354 1.82539,-0.2347 2.59547,-0.72314 0.86877,-0.55104 1.54146,-1.35578 2.1919,-2.15285 0.65043,-0.79708 1.30644,-1.61196 2.15483,-2.19388 1.33105,-0.91298 3.09539,-1.16113 4.62663,-0.65072 1.53124,0.51042 2.79383,1.76754 3.31087,3.29656"
       id="path8878"
       inkscape:connector-curvature="0"
       inkscape:path-effect="#path-effect8880"
       inkscape:original-d="m -3.2127975,278.47917 c 4.09500651,0.88168 8.1897486,1.76362 12.2842259,2.64583 4.0944776,0.88221 -0.7556878,4.91343 -1.1339285,7.37054 -0.3782407,2.4571 -0.8816798,-4.03202 -1.3229167,-6.04762 -0.4412368,-2.01561 6.5518518,0.5037 9.8273808,0.75595 3.275529,0.25225 12.473478,2.1416 18.709821,3.2128 6.236342,1.07119 -0.755688,-5.29193 -1.133928,-7.9375 -0.37824,-2.64557 0.126257,5.03941 0.188987,7.55952 0.06273,2.52011 6.551853,-2.26812 9.827381,-3.40179 3.275529,-1.13366 4.158004,0.25172 6.236608,0.37798 2.078603,0.12626 -3.149537,3.40152 -4.724702,5.10268 -1.575165,1.70116 -5.543386,-5.92189 -8.315476,-8.88244 -2.772089,-2.96055 -10.0791,0.25172 -15.119048,0.37797 -5.039947,0.12626 2.65e-4,3.65351 0,5.48066 -2.65e-4,1.82715 12.599472,-4.03201 18.898809,-6.04762 6.299338,-2.01561 4.53598,0.37771 6.803573,0.56696 2.26759,0.18926 8.189748,1.76363 12.284225,2.64584 4.094478,0.88221 2.268122,-3.78003 3.401785,-5.66964 1.133663,-1.88962 1.386179,5.79537 2.078868,8.69345 0.692693,2.89808 6.677846,-2.89808 10.016371,-4.34673 3.338523,-1.44864 -8.189219,2.26759 -12.284228,3.40179 -4.095006,1.13419 -10.20509,-1.26019 -15.308035,-1.88988 -5.102942,-0.6297 9.701654,-1.26019 14.552083,-1.88988 4.850432,-0.6297 14.111378,1.76362 21.166667,2.64583 7.055292,0.88221 14.237369,-0.37824 21.355655,-0.56697 7.11829,-0.18872 2.6461,0.6297 3.96875,0.94494 1.32265,0.31525 -3.90549,-5.54391 -5.85863,-8.31547 -1.95314,-2.77156 -9.827118,5.54338 -14.741074,8.31547 -4.913952,2.77209 -10.331082,0.6297 -15.497021,0.94495 -5.165939,0.31524 5.417923,-3.15007 8.126486,-4.72471 2.708566,-1.57463 16.883203,4.40946 25.324409,6.61459 8.4412,2.20512 7.93776,-4.78797 11.90625,-7.18155 3.96848,-2.39359 8.18975,-0.37824 12.28422,-0.56697 4.09448,-0.18872 12.59947,4.40946 18.89881,6.61459 6.29934,2.20512 -4.28347,-3.78003 -6.42559,-5.66965 -2.14213,-1.88961 -15.62275,3.7795 -23.43453,5.66965 -7.81177,1.89014 -7.81124,-4.53598 -11.71726,-6.80357 -3.90602,-2.2676 -5.2914,5.41739 -7.9375,8.12648 -2.646098,2.7091 18.39511,-3.15006 27.59226,-4.7247 9.19716,-1.57463 11.59154,-3.27606 17.38691,-4.91369 5.79537,-1.63763 12.97744,5.03942 19.46577,7.55953 6.48833,2.5201 6.17388,-3.40205 9.26042,-5.10268 3.08654,-1.70063 13.85939,-0.63023 20.78869,-0.94494 6.9293,-0.31472 -3.27553,5.03941 -4.91369,7.55952 -1.63816,2.52011 -8.06323,-2.52011 -12.09524,-3.77976 -4.03201,-1.25966 -3.40152,-3.27606 -5.10268,-4.91369 -1.70116,-1.63763 6.42586,-1.1342 9.63839,-1.7009 3.21254,-0.56669 5.7959,4.15748 8.69346,6.23661 2.89755,2.07914 5.16594,-3.65403 7.74851,-5.48065 2.58257,-1.82662 -2.2676,1.76362 -3.40179,2.64583 -1.13419,0.88221 3.40205,3.40152 5.10268,5.10268 1.70063,1.70116 2.89808,-2.89808 4.34673,-4.34673 1.44864,-1.44864 5.29193,1.76363 7.9375,2.64584" />
  </g>
</svg>
