<?xml version="1.0" encoding="UTF-8" standalone="no"?>
<!-- Created with Inkscape (http://www.inkscape.org/) -->

<svg
   xmlns:osb="http://www.openswatchbook.org/uri/2009/osb"
   xmlns:dc="http://purl.org/dc/elements/1.1/"
   xmlns:cc="http://creativecommons.org/ns#"
   xmlns:rdf="http://www.w3.org/1999/02/22-rdf-syntax-ns#"
   xmlns:svg="http://www.w3.org/2000/svg"
   xmlns="http://www.w3.org/2000/svg"
   xmlns:sodipodi="http://sodipodi.sourceforge.net/DTD/sodipodi-0.dtd"
   xmlns:inkscape="http://www.inkscape.org/namespaces/inkscape"
   width="210mm"
   height="30mm"
   viewBox="0 0 210 30"
   version="1.1"
   id="svg5117"
   sodipodi:docname="to-right-3.svg"
   inkscape:version="0.92.4 (5da689c313, 2019-01-14)">
               <style>
      @import "svg.css";
   </style>
  <defs
     id="defs5111">
    <inkscape:path-effect
       effect="spiro"
       id="path-effect8864"
       is_visible="true" />
    <inkscape:path-effect
       effect="spiro"
       id="path-effect8860"
       is_visible="true" />
    <inkscape:path-effect
       effect="spiro"
       id="path-effect8854"
       is_visible="true" />
    <inkscape:path-effect
       effect="spiro"
       id="path-effect8850"
       is_visible="true" />
    <inkscape:path-effect
       effect="skeletal"
       id="path-effect8838"
       is_visible="true"
       pattern="M 0,5 C 0,2.24 2.24,0 5,0 7.76,0 10,2.24 10,5 10,7.76 7.76,10 5,10 2.24,10 0,7.76 0,5 Z"
       copytype="single_stretched"
       prop_scale="0.26458333"
       scale_y_rel="false"
       spacing="0"
       normal_offset="0"
       tang_offset="0"
       prop_units="false"
       vertical_pattern="false"
       fuse_tolerance="0" />
    <inkscape:path-effect
       effect="spiro"
       id="path-effect8836"
       is_visible="true" />
    <marker
       inkscape:stockid="Arrow2Lstart"
       orient="auto"
       refY="0"
       refX="0"
       id="Arrow2Lstart"
       style="overflow:visible"
       inkscape:isstock="true">
      <path
         id="path7647"
         style="fill:#00e800;fill-opacity:1;fill-rule:evenodd;stroke:#00e800;stroke-width:0.625;stroke-linejoin:round;stroke-opacity:1"
         d="M 8.7185878,4.0337352 -2.2072895,0.01601326 8.7185884,-4.0017078 c -1.7454984,2.3720609 -1.7354408,5.6174519 -6e-7,8.035443 z"
         transform="matrix(1.1,0,0,1.1,1.1,0)"
         inkscape:connector-curvature="0" />
    </marker>
    <marker
       inkscape:stockid="Arrow1Sstart"
       orient="auto"
       refY="0"
       refX="0"
       id="Arrow1Sstart"
       style="overflow:visible"
       inkscape:isstock="true">
      <path
         id="path7641"
         d="M 0,0 5,-5 -12.5,0 5,5 Z"
         style="fill:#00e800;fill-opacity:1;fill-rule:evenodd;stroke:#00e800;stroke-width:1.00000003pt;stroke-opacity:1"
         transform="matrix(0.2,0,0,0.2,1.2,0)"
         inkscape:connector-curvature="0" />
    </marker>
    <marker
       inkscape:stockid="Arrow1Send"
       orient="auto"
       refY="0"
       refX="0"
       id="Arrow1Send"
       style="overflow:visible"
       inkscape:isstock="true">
      <path
         id="path7644"
         d="M 0,0 5,-5 -12.5,0 5,5 Z"
         style="fill:#00e800;fill-opacity:1;fill-rule:evenodd;stroke:#00e800;stroke-width:1.00000003pt;stroke-opacity:1"
         transform="matrix(-0.2,0,0,-0.2,-1.2,0)"
         inkscape:connector-curvature="0" />
    </marker>
    <marker
       inkscape:stockid="Arrow1Lend"
       orient="auto"
       refY="0"
       refX="0"
       id="Arrow1Lend"
       style="overflow:visible"
       inkscape:isstock="true">
      <path
         id="path7632"
         d="M 0,0 5,-5 -12.5,0 5,5 Z"
         style="fill:#00e800;fill-opacity:1;fill-rule:evenodd;stroke:#00e800;stroke-width:1.00000003pt;stroke-opacity:1"
         transform="matrix(-0.8,0,0,-0.8,-10,0)"
         inkscape:connector-curvature="0" />
    </marker>
    <marker
       style="overflow:visible"
       inkscape:stockid="InfiniteLineStart"
       id="InfiniteLineStart"
       refX="0"
       refY="0"
       orient="auto"
       inkscape:isstock="true">
      <g
         id="g7879"
         style="fill:#00e800;fill-opacity:1;stroke:#00e800;stroke-opacity:1"
         transform="translate(-13)">
        <circle
           id="circle7873"
           r="0.80000001"
           cy="0"
           cx="3"
           style="fill:#00e800;fill-opacity:1;stroke:#00e800;stroke-opacity:1" />
        <circle
           id="circle7875"
           r="0.80000001"
           cy="0"
           cx="6.5"
           style="fill:#00e800;fill-opacity:1;stroke:#00e800;stroke-opacity:1" />
        <circle
           id="circle7877"
           r="0.80000001"
           cy="0"
           cx="10"
           style="fill:#00e800;fill-opacity:1;stroke:#00e800;stroke-opacity:1" />
      </g>
    </marker>
    <marker
       inkscape:stockid="Scissors"
       orient="auto"
       refY="0"
       refX="0"
       id="Scissors"
       style="overflow:visible"
       inkscape:isstock="true">
      <path
         id="schere"
         d="M 9.0898857,-3.6061018 C 8.1198849,-4.7769976 6.3697607,-4.7358294 5.0623558,-4.2327734 l -8.2124046,3.0779029 c -2.3882933,-1.3067135 -4.7482873,-0.9325372 -4.7482873,-1.5687873 0,-0.4973164 0.4566662,-0.3883222 0.3883068,-1.6831941 -0.065635,-1.2432767 -1.3635771,-2.1630796 -2.5903987,-2.0816435 -1.227271,-0.00735 -2.499439,0.9331613 -2.510341,2.2300611 -0.09143,1.3063864 1.007209,2.5196896 2.306764,2.6052316 1.5223406,0.2266616 4.218258,-0.6955566 5.482945,1.57086006 -0.9422847,1.73825774 -2.6140244,1.74307674 -4.1255107,1.65607034 -1.2548743,-0.072235 -2.7620933,0.2873979 -3.3606483,1.5208605 -0.578367,1.1820862 -0.0112,2.8646022 1.316749,3.226412 1.3401912,0.4918277 3.1806689,-0.129711 3.4993722,-1.6707242 0.2456585,-1.187823 -0.5953659,-1.7459574 -0.2725074,-2.1771537 0.2436135,-0.32536 1.7907806,-0.1368452 4.5471053,-1.3748244 L 5.6763468,4.2330688 C 6.8000164,4.5467672 8.1730685,4.5362646 9.1684433,3.4313614 l -9.22008423,-3.48508362 z m -18.3078016,-1.900504 c 1.294559,0.7227998 1.1888392,2.6835702 -0.1564272,3.0632889 -1.2165179,0.423661 -2.7710269,-0.7589694 -2.3831779,-2.0774648 0.227148,-1.0818519 1.653387,-1.480632 2.5396051,-0.9858241 z m 0.056264,8.0173649 c 1.3508301,0.4988648 1.1214429,2.7844356 -0.2522207,3.091609 -0.9110594,0.3163391 -2.2135494,-0.1387976 -2.3056964,-1.2121394 -0.177609,-1.305055 1.356085,-2.4841482 2.5579171,-1.8794696 z"
         style="fill:#00e800;fill-opacity:1;stroke:#00e800;stroke-opacity:1"
         inkscape:connector-curvature="0" />
    </marker>
    <marker
       inkscape:stockid="EmptyTriangleOutL"
       orient="auto"
       refY="0"
       refX="0"
       id="EmptyTriangleOutL"
       style="overflow:visible"
       inkscape:isstock="true">
      <path
         id="path7789"
         d="M 5.77,0 -2.88,5 V -5 Z"
         style="fill:#ffffff;fill-rule:evenodd;stroke:#00e800;stroke-width:1.00000003pt;stroke-opacity:1"
         transform="matrix(0.8,0,0,0.8,-4.8,0)"
         inkscape:connector-curvature="0" />
    </marker>
    <marker
       inkscape:stockid="Tail"
       orient="auto"
       refY="0"
       refX="0"
       id="Tail"
       style="overflow:visible"
       inkscape:isstock="true">
      <g
         id="g7677"
         transform="scale(-1.2)"
         style="fill:#00e800;fill-opacity:1;stroke:#00e800;stroke-opacity:1">
        <path
           id="path7665"
           d="M -3.8048674,-3.9585227 0.54352094,0"
           style="fill:#00e800;fill-opacity:1;fill-rule:evenodd;stroke:#00e800;stroke-width:0.80000001;stroke-linecap:round;stroke-opacity:1"
           inkscape:connector-curvature="0" />
        <path
           id="path7667"
           d="M -1.2866832,-3.9585227 3.0617053,0"
           style="fill:#00e800;fill-opacity:1;fill-rule:evenodd;stroke:#00e800;stroke-width:0.80000001;stroke-linecap:round;stroke-opacity:1"
           inkscape:connector-curvature="0" />
        <path
           id="path7669"
           d="M 1.3053582,-3.9585227 5.6537466,0"
           style="fill:#00e800;fill-opacity:1;fill-rule:evenodd;stroke:#00e800;stroke-width:0.80000001;stroke-linecap:round;stroke-opacity:1"
           inkscape:connector-curvature="0" />
        <path
           id="path7671"
           d="M -3.8048674,4.1775838 0.54352094,0.21974226"
           style="fill:#00e800;fill-opacity:1;fill-rule:evenodd;stroke:#00e800;stroke-width:0.80000001;stroke-linecap:round;stroke-opacity:1"
           inkscape:connector-curvature="0" />
        <path
           id="path7673"
           d="M -1.2866832,4.1775838 3.0617053,0.21974226"
           style="fill:#00e800;fill-opacity:1;fill-rule:evenodd;stroke:#00e800;stroke-width:0.80000001;stroke-linecap:round;stroke-opacity:1"
           inkscape:connector-curvature="0" />
        <path
           id="path7675"
           d="M 1.3053582,4.1775838 5.6537466,0.21974226"
           style="fill:#00e800;fill-opacity:1;fill-rule:evenodd;stroke:#00e800;stroke-width:0.80000001;stroke-linecap:round;stroke-opacity:1"
           inkscape:connector-curvature="0" />
      </g>
    </marker>
    <marker
       inkscape:stockid="DotL"
       orient="auto"
       refY="0"
       refX="0"
       id="DotL"
       style="overflow:visible"
       inkscape:isstock="true">
      <path
         id="path7690"
         d="m -2.5,-1 c 0,2.76 -2.24,5 -5,5 -2.76,0 -5,-2.24 -5,-5 0,-2.76 2.24,-5 5,-5 2.76,0 5,2.24 5,5 z"
         style="fill:#00e800;fill-opacity:1;fill-rule:evenodd;stroke:#00e800;stroke-width:1.00000003pt;stroke-opacity:1"
         transform="matrix(0.8,0,0,0.8,5.92,0.8)"
         inkscape:connector-curvature="0" />
    </marker>
    <marker
       style="overflow:visible"
       id="DistanceStart"
       refX="0"
       refY="0"
       orient="auto"
       inkscape:stockid="DistanceStart"
       inkscape:isstock="true">
      <g
         id="g2300"
         style="fill:#00e800;fill-opacity:1;stroke:#00e800;stroke-opacity:1">
        <path
           style="fill:#00e800;fill-opacity:1;stroke:#00e800;stroke-width:1.14999998;stroke-linecap:square;stroke-opacity:1"
           d="M 0,0 H 2"
           id="path2306"
           inkscape:connector-curvature="0" />
        <path
           style="fill:#00e800;fill-opacity:1;fill-rule:evenodd;stroke:#00e800;stroke-opacity:1"
           d="M 0,0 13,4 9,0 13,-4 Z"
           id="path2302"
           inkscape:connector-curvature="0" />
        <path
           style="fill:#00e800;fill-opacity:1;stroke:#00e800;stroke-width:1;stroke-linecap:square;stroke-opacity:1"
           d="M 0,-4 V 40"
           id="path2304"
           inkscape:connector-curvature="0" />
      </g>
    </marker>
    <marker
       inkscape:stockid="Arrow1Lstart"
       orient="auto"
       refY="0"
       refX="0"
       id="Arrow1Lstart"
       style="overflow:visible"
       inkscape:isstock="true">
      <path
         id="path7629"
         d="M 0,0 5,-5 -12.5,0 5,5 Z"
         style="fill:#00e800;fill-opacity:1;fill-rule:evenodd;stroke:#00e800;stroke-width:1.00000003pt;stroke-opacity:1"
         transform="matrix(0.8,0,0,0.8,10,0)"
         inkscape:connector-curvature="0" />
    </marker>
    <linearGradient
       id="linearGradient7625"
       osb:paint="solid">
      <stop
         style="stop-color:#000000;stop-opacity:1;"
         offset="0"
         id="stop7623" />
    </linearGradient>
    <inkscape:path-effect
       effect="skeletal"
       id="path-effect6163"
       is_visible="true"
       pattern="M 0,5 C 0,2.24 2.24,0 5,0 7.76,0 10,2.24 10,5 10,7.76 7.76,10 5,10 2.24,10 0,7.76 0,5 Z"
       copytype="single_stretched"
       prop_scale="0.26458333"
       scale_y_rel="false"
       spacing="0"
       normal_offset="0"
       tang_offset="0"
       prop_units="false"
       vertical_pattern="false"
       fuse_tolerance="0" />
    <inkscape:path-effect
       effect="bspline"
       id="path-effect6161"
       is_visible="true"
       weight="33.333333"
       steps="2"
       helper_size="0"
       apply_no_weight="true"
       apply_with_weight="true"
       only_selected="false" />
    <inkscape:path-effect
       effect="skeletal"
       id="path-effect6157"
       is_visible="true"
       pattern="M 0,5 C 0,2.24 2.24,0 5,0 7.76,0 10,2.24 10,5 10,7.76 7.76,10 5,10 2.24,10 0,7.76 0,5 Z"
       copytype="single_stretched"
       prop_scale="0.26458333"
       scale_y_rel="false"
       spacing="0"
       normal_offset="0"
       tang_offset="0"
       prop_units="false"
       vertical_pattern="false"
       fuse_tolerance="0" />
    <inkscape:path-effect
       effect="skeletal"
       id="path-effect6153"
       is_visible="true"
       pattern="M 0,5 C 0,2.24 2.24,0 5,0 7.76,0 10,2.24 10,5 10,7.76 7.76,10 5,10 2.24,10 0,7.76 0,5 Z"
       copytype="single_stretched"
       prop_scale="0.26458333"
       scale_y_rel="false"
       spacing="0"
       normal_offset="0"
       tang_offset="0"
       prop_units="false"
       vertical_pattern="false"
       fuse_tolerance="0" />
    <inkscape:path-effect
       effect="powerstroke"
       id="path-effect6149"
       is_visible="true"
       offset_points="0,0.13229166"
       sort_points="true"
       interpolator_type="CubicBezierJohan"
       interpolator_beta="0.2"
       start_linecap_type="zerowidth"
       linejoin_type="extrp_arc"
       miter_limit="4"
       end_linecap_type="zerowidth" />
    <inkscape:path-effect
       effect="powerstroke"
       id="path-effect6145"
       is_visible="true"
       offset_points="0,0.13229166"
       sort_points="true"
       interpolator_type="CubicBezierJohan"
       interpolator_beta="0.2"
       start_linecap_type="zerowidth"
       linejoin_type="extrp_arc"
       miter_limit="4"
       end_linecap_type="zerowidth" />
    <inkscape:path-effect
       effect="bspline"
       id="path-effect6137"
       is_visible="true"
       weight="33.333333"
       steps="2"
       helper_size="0"
       apply_no_weight="true"
       apply_with_weight="true"
       only_selected="false" />
    <inkscape:path-effect
       effect="spiro"
       id="path-effect6133"
       is_visible="true" />
  </defs>
  <sodipodi:namedview
     id="base"
     pagecolor="#ffffff"
     bordercolor="#666666"
     borderopacity="1.0"
     inkscape:pageopacity="0.0"
     inkscape:pageshadow="2"
     inkscape:zoom="1.4"
     inkscape:cx="385.39908"
     inkscape:cy="87.030953"
     inkscape:document-units="mm"
     inkscape:current-layer="layer1"
     showgrid="false"
     inkscape:window-width="1680"
     inkscape:window-height="987"
     inkscape:window-x="-8"
     inkscape:window-y="-8"
     inkscape:window-maximized="1"
     units="mm"
     height="30mm" />
  <metadata
     id="metadata5114">
    <rdf:RDF>
      <cc:Work
         rdf:about="">
        <dc:format>image/svg+xml</dc:format>
        <dc:type
           rdf:resource="http://purl.org/dc/dcmitype/StillImage" />
        <dc:title></dc:title>
      </cc:Work>
    </rdf:RDF>
  </metadata>
  <g
     inkscape:label="Layer 1"
     inkscape:groupmode="layer"
     id="layer1"
     transform="translate(0,-267)">
    <path
      class="stroke-single"
      fill="none"
      stroke-width="0.26458332px"
      stroke-linecap="butt"
      stroke-linejoin="miter"
      stroke-opacity="1"       d="m -3.96875,275.83333 c 1.3052571,3.02135 3.78898743,5.51507 6.8050786,6.83245 3.0160911,1.31737 6.5333796,1.44479 9.6368854,0.3491 0.913418,-0.32248 1.79697,-0.75002 2.56367,-1.34205 0.766701,-0.59203 1.414357,-1.35507 1.792438,-2.24691 0.378081,-0.89184 0.47352,-1.91622 0.182218,-2.84005 -0.291301,-0.92384 -0.987564,-1.72986 -1.892493,-2.07545 -0.666094,-0.25438 -1.414743,-0.2548 -2.102548,-0.0669 -0.687806,0.18791 -1.31746,0.55655 -1.866202,1.01182 -1.3334057,1.10627 -2.2007128,2.74409 -2.4181387,4.46297 -0.2174259,1.71887 0.2059523,3.5029 1.1283324,4.96954 0.9223803,1.46664 2.3307173,2.61243 3.9349383,3.26686 1.60422,0.65444 3.395646,0.82212 5.10338,0.52979 1.989473,-0.34056 3.845457,-1.28232 5.846262,-1.54834 1.000403,-0.133 2.042433,-0.089 2.982388,0.27845 0.939955,0.3674 1.76835,1.08469 2.132659,2.02585 0.271354,0.70102 0.27257,1.49846 0.02689,2.20888 -0.245677,0.71042 -0.732464,1.33099 -1.34981,1.75987 -0.670298,0.46567 -1.491087,0.70603 -2.307175,0.6938 -0.816088,-0.0122 -1.624226,-0.27434 -2.302582,-0.72819 -0.678357,-0.45385 -1.226264,-1.09627 -1.584196,-1.82977 -0.357932,-0.73351 -0.526913,-1.55586 -0.505943,-2.37177 0.04194,-1.63182 0.853559,-3.20117 2.071869,-4.28759 1.218309,-1.08643 2.815058,-1.70567 4.439041,-1.87083 0.753106,-0.0766 1.513248,-0.06 2.267857,0 1.931472,0.1536 3.827551,0.58943 5.737043,0.91809 1.909493,0.32866 3.864145,0.55055 5.781731,0.27299 1.917586,-0.27757 3.812899,-1.10041 5.072288,-2.57286 0.629694,-0.73623 1.08818,-1.62541 1.276693,-2.57568 0.188513,-0.95027 0.100701,-1.96043 -0.291863,-2.84611 -0.28794,-0.64964 -0.746291,-1.23553 -1.354038,-1.60374 -0.607746,-0.36821 -1.37065,-0.50171 -2.047749,-0.28614 -0.353225,0.11246 -0.676025,0.3158 -0.936261,0.57979 -0.260235,0.264 -0.458103,0.58778 -0.582592,0.93695 -0.248977,0.69834 -0.19735,1.48656 0.07988,2.17416 0.277235,0.68761 0.769262,1.27707 1.356696,1.72938 0.587434,0.45231 1.268197,0.77271 1.972154,1.00531 2.86554,0.94684 6.045004,0.43555 8.832269,-0.72159 2.787266,-1.15714 5.272106,-2.91954 7.798682,-4.57007 1.195701,-0.78111 2.414839,-1.54457 3.743336,-2.06891 1.328497,-0.52434 2.78372,-0.80162 4.194164,-0.57693 1.379361,0.21974 2.694847,0.94542 3.519081,2.07306 0.412117,0.56381 0.698615,1.22118 0.814835,1.90982 0.116219,0.68863 0.06041,1.40766 -0.176177,2.06474 -0.246313,0.68411 -0.685444,1.29353 -1.236938,1.76738 -0.551493,0.47385 -1.213002,0.81376 -1.911337,1.01626 -1.396669,0.405 -2.909785,0.25779 -4.294877,-0.18518 -2.770184,-0.88596 -5.043895,-2.87286 -7.675896,-4.11036 -1.884568,-0.88608 -3.965959,-1.38144 -6.047618,-1.32292 -2.363012,0.0664 -4.67519,0.8444 -6.713724,2.04132 -2.038534,1.19692 -3.815346,2.80257 -5.381515,4.57326 -1.063761,1.20268 -2.042481,2.49141 -3.251462,3.548 -1.20898,1.05659 -2.703227,1.88235 -4.30806,1.93266 -1.097807,0.0344 -2.201086,-0.30515 -3.100663,-0.93533 -0.899578,-0.63018 -1.592816,-1.54544 -1.973858,-2.57557 -0.381042,-1.03013 -0.450965,-2.1703 -0.217549,-3.24356 0.233416,-1.07326 0.767178,-2.07699 1.512307,-2.88393 0.766016,-0.82956 1.747899,-1.44847 2.807489,-1.83862 1.059591,-0.39014 2.195473,-0.55554 3.324554,-0.54454 2.258163,0.022 4.454795,0.73689 6.530158,1.6272 3.092748,1.32676 6.001202,3.05384 9.093985,4.38052 3.092782,1.32667 6.463216,2.25485 9.804827,1.85609 3.130851,-0.37361 6.000867,-1.87634 8.756591,-3.40859 2.755723,-1.53225 5.540557,-3.14429 8.630312,-3.77296 2.368104,-0.48184 4.835018,-0.36094 7.195937,0.15496 2.360918,0.51589 4.623272,1.419 6.789181,2.49088 2.563325,1.26855 5.012854,2.78018 7.673977,3.82818 2.66112,1.04799 5.62144,1.61407 8.39001,0.89652 1.67953,-0.4353 3.27169,-1.37491 4.24904,-2.80846 0.48868,-0.71678 0.81578,-1.54807 0.91083,-2.41036 0.0951,-0.86229 -0.0462,-1.75427 -0.43517,-2.52969 -0.38486,-0.76724 -1.00543,-1.40795 -1.73951,-1.85281 -0.73409,-0.44486 -1.57837,-0.697 -2.43368,-0.76925 -1.71062,-0.14452 -3.42172,0.42334 -4.89823,1.29914 -2.15541,1.2785 -3.8626,3.17663 -5.518705,5.05751 -1.656109,1.88087 -3.328583,3.80201 -5.442608,5.14785 -1.425045,0.90722 -3.074266,1.54023 -4.763148,1.50186 -0.844441,-0.0192 -1.688974,-0.20853 -2.443307,-0.58857 -0.754333,-0.38004 -1.415811,-0.95391 -1.864975,-1.66924 -0.475743,-0.75766 -0.704377,-1.66231 -0.679415,-2.5566 0.02496,-0.89429 0.29933,-1.77612 0.757159,-2.54474 0.915658,-1.53724 2.536577,-2.57759 4.268982,-3.02515 2.034814,-0.52568 4.2089,-0.28854 6.213428,0.34286 2.004529,0.63141 3.866329,1.64136 5.692819,2.68095 2.75594,1.56861 5.50252,3.23566 8.54721,4.12201 1.52234,0.44318 3.11275,0.68468 4.69597,0.599 1.58322,-0.0857 3.16035,-0.50642 4.5217,-1.31923 1.38386,-0.82625 2.50151,-2.02298 3.59678,-3.20542 1.09527,-1.18243 2.20747,-2.38301 3.58477,-3.22017 1.32277,-0.80401 2.8536,-1.24209 4.39798,-1.34725 1.54438,-0.10516 3.10216,0.11628 4.5842,0.56319 2.96407,0.89383 5.58619,2.65901 8.02675,4.56382 1.92066,1.49904 3.79803,3.12267 6.04343,4.06829 1.12271,0.47281 2.33182,0.76712 3.54995,0.75323 1.21812,-0.0139 2.44599,-0.34721 3.4468,-1.04176 1.11913,-0.77667 1.92192,-2.0068 2.14627,-3.35043 0.22435,-1.34362 -0.14308,-2.78228 -1.01234,-3.83112 -0.94194,-1.13654 -2.41659,-1.76728 -3.89137,-1.83052 -1.47478,-0.0632 -2.94197,0.40578 -4.20603,1.1681 -2.52811,1.52465 -4.20107,4.09802 -5.88772,6.52105 -0.60932,0.87535 -1.2364,1.74763 -2.00856,2.48333 -0.77217,0.7357 -1.7048,1.33419 -2.74676,1.5618 -0.52099,0.11381 -1.06473,0.13282 -1.58868,0.0335 -0.52395,-0.0993 -1.02742,-0.31851 -1.4435,-0.65206 -0.41608,-0.33354 -0.74235,-0.78268 -0.9103,-1.28881 -0.16796,-0.50613 -0.1737,-1.06817 0.004,-1.57084 0.16414,-0.46341 0.47859,-0.86618 0.86382,-1.17162 0.38522,-0.30543 0.83924,-0.51686 1.31058,-0.6566 0.94268,-0.2795 1.9416,-0.27679 2.92321,-0.33329 0.98162,-0.0565 1.99359,-0.18542 2.83785,-0.68939 0.42213,-0.25199 0.79389,-0.59757 1.04052,-1.02285 0.24662,-0.42529 0.36249,-0.93254 0.28443,-1.41792 -0.083,-0.51644 -0.38422,-0.98803 -0.79744,-1.30874 -0.41323,-0.32071 -0.93217,-0.49399 -1.45451,-0.5216 -0.52235,-0.0276 -1.04734,0.0863 -1.52701,0.29489 -0.47967,0.20862 -0.91547,0.51008 -1.30555,0.85857 -0.78015,0.69698 -1.37426,1.57253 -1.99587,2.41397 -0.62162,0.84144 -1.29554,1.67299 -2.18003,2.23166 -1.26911,0.8016 -2.85691,0.95934 -4.34595,0.76976 -1.48904,-0.18958 -2.91533,-0.69824 -4.34751,-1.14773 -1.50551,-0.47251 -3.09284,-0.91709 -4.24529,-1.99491 -0.57623,-0.53891 -1.02322,-1.23542 -1.17761,-2.00913 -0.0772,-0.38686 -0.0804,-0.78962 0.003,-1.17515 0.0836,-0.38552 0.25483,-0.75324 0.50601,-1.05742 0.41402,-0.50137 1.03178,-0.81125 1.67237,-0.92273 0.64059,-0.11149 1.30321,-0.0358 1.92964,0.13847 1.25285,0.34855 2.36473,1.07614 3.57954,1.54021 2.733,1.04403 5.79723,0.69171 8.64235,0.0101 2.84512,-0.68158 5.63822,-1.68015 8.55557,-1.90002 3.47174,-0.26165 6.93034,0.59534 10.24195,1.6699 3.31161,1.07456 6.56472,2.37742 9.97977,3.0548 1.55894,0.30922 3.16051,0.48598 4.73871,0.29834 1.57819,-0.18764 3.13962,-0.76027 4.33272,-1.81024 1.37772,-1.21245 2.18713,-2.9754 3.59078,-4.15774 1.22334,-1.03046 2.85024,-1.5459 4.44866,-1.48726 1.59842,0.0587 3.15885,0.67582 4.41669,1.66387 1.25784,0.98805 2.21647,2.33566 2.81467,3.81909 0.5982,1.48342 0.84245,3.09901 0.79319,4.69775 -0.0328,1.06289 -0.1963,2.13216 -0.60167,3.11526 -0.40537,0.9831 -1.0648,1.87856 -1.95549,2.4595 -0.89068,0.58093 -2.02197,0.82309 -3.04817,0.54431 -0.5131,-0.13939 -0.99312,-0.40589 -1.37208,-0.77884 -0.37896,-0.37295 -0.65461,-0.8527 -0.7711,-1.37148 -0.16733,-0.74518 -0.007,-1.51972 0.13934,-2.26938 0.14591,-0.74967 0.27528,-1.53669 0.0496,-2.26633 -0.12367,-0.39991 -0.35223,-0.76577 -0.6513,-1.05865 -0.29907,-0.29288 -0.66762,-0.51292 -1.06461,-0.64568 -0.79397,-0.26552 -1.68819,-0.17215 -2.44183,0.19242 -0.68203,0.32993 -1.26348,0.88718 -1.56422,1.58258 -0.30073,0.6954 -0.30201,1.5275 0.0523,2.19718 0.31954,0.60394 0.90727,1.04521 1.55937,1.24918 0.65211,0.20396 1.36253,0.18215 2.02263,0.006 1.32019,-0.35283 2.40099,-1.27891 3.41056,-2.19986 1.16032,-1.05847 2.29925,-2.15169 3.59572,-3.03819 1.29648,-0.88649 2.77587,-1.56546 4.34178,-1.68651 2.0937,-0.16186 4.12252,0.67299 6.04762,1.51191 2.00308,0.8729 4.05423,1.78258 6.23661,1.88988 1.6327,0.0803 3.28577,-0.30674 4.71316,-1.10342 1.4274,-0.79669 2.62457,-2.00051 3.41333,-3.4323"
       id="path8862"
       inkscape:connector-curvature="0"
       inkscape:path-effect="#path-effect8864"
       inkscape:original-d="m -3.96875,275.83333 c 5.4809193,2.39359 10.9615739,4.78744 16.441964,7.18155 5.48039,2.39411 1.764154,-5.66991 2.645833,-8.50446 0.88168,-2.83456 -2.645568,0.62969 -3.96875,0.94494 -1.3231808,0.31524 5.16594,8.81918 7.748512,13.22916 2.582573,4.40999 7.307804,0.50371 10.961309,0.75596 3.653507,0.25224 -0.881679,2.64556 -1.322917,3.96875 -0.441235,1.32318 -0.125727,-6.92983 -0.188986,-10.39435 -0.06326,-3.46452 1.512167,-2.6e-4 2.267857,0 0.755687,2.7e-4 11.717525,-4.53598 17.575892,-6.80357 5.858365,-2.26759 -2.267592,-1.26019 -3.401787,-1.88988 -1.134192,-0.6297 1.260186,4.28346 1.889882,6.42559 0.629695,2.14213 11.087565,-3.52804 16.630951,-5.29166 5.543389,-1.76363 5.291931,-1.76416 7.9375,-2.64584 2.645569,-0.88168 2.772092,4.03148 4.157739,6.04762 1.385649,2.01614 -10.079101,-1.0082 -15.119048,-1.5119 -5.039947,-0.50371 -4.03148,-0.88221 -6.047618,-1.32292 -2.016139,-0.44071 -8.063228,4.40946 -12.095239,6.61458 -4.03201,2.20513 -5.039416,3.65351 -7.559522,5.48066 -2.520106,1.82715 -2.519577,-6.42586 -3.779763,-9.63839 -1.260184,-3.21254 8.441732,-0.50424 12.662201,-0.75596 4.220472,-0.25172 12.599472,4.15748 18.898812,6.23661 6.299337,2.07913 11.591533,-4.78796 17.386903,-7.18155 5.79537,-2.39358 9.323678,1.76363 13.985118,2.64584 4.661442,0.88221 10.709597,3.14953 16.063987,4.7247 5.3544,1.57516 3.15007,-5.16594 4.7247,-7.74851 1.57464,-2.58258 -6.04735,-0.88221 -9.07142,-1.32292 -3.02408,-0.44071 -7.307279,6.80331 -10.961313,10.20536 -3.654036,3.40205 -6.047356,-0.50424 -9.07143,-0.75595 -3.024073,-0.25172 2.898082,-5.41793 4.346726,-8.12649 1.448647,-2.70857 7.937764,2.01561 11.906247,3.02381 3.96849,1.0082 11.84352,2.26759 17.76488,3.40178 5.92137,1.1342 4.78797,-4.28399 7.18155,-6.42559 2.39359,-2.1416 11.33955,2.51957 17.00893,3.77976 5.66938,1.26018 8.69372,2.51958 13.04018,3.77976 4.34646,1.26019 0.75622,-4.78796 1.13393,-7.18155 0.37771,-2.39358 -9.32315,3.90549 -13.98512,5.85863 -4.66197,1.95315 -5.79537,0.37772 -8.69345,0.56697 -2.89808,0.18925 6.17387,-3.52804 9.26041,-5.29167 3.08654,-1.76362 -6.17334,2.64557 -9.26041,3.96875 -3.08707,1.32318 -5.79537,-0.25225 -8.69346,-0.37797 -2.89808,-0.12573 -3.27553,-4.15801 -4.91369,-6.23661 -1.63816,-2.07861 4.78797,0.5037 7.18155,0.75595 2.39359,0.25225 11.46554,-1.26018 17.19792,-1.88988 5.73237,-0.6297 13.48141,3.14954 20.22172,4.7247 6.74031,1.57517 6.04789,-1.0082 9.07143,-1.5119 3.02355,-0.50371 2.39412,-2.77209 3.59078,-4.15774 1.19666,-1.38565 8.31574,5.79537 12.47321,8.69345 4.15747,2.89808 -5.16541,2.64557 -7.74851,3.96875 -2.5831,1.32318 0.12626,-3.02407 0.18899,-4.53571 0.0627,-1.51164 -2.77157,-1.0082 -4.15774,-1.51191 -1.38618,-0.5037 -1.00767,2.51958 -1.51191,3.77976 -0.50423,1.26019 4.66197,-0.63022 6.99256,-0.94494 2.33059,-0.31471 5.29194,-3.15006 7.9375,-4.7247 2.64557,-1.57463 4.03201,1.00767 6.04762,1.51191 2.01561,0.50423 4.158,1.25965 6.23661,1.88988 2.0786,0.63022 5.41792,-3.02408 8.12649,-4.53572" />
  </g>
</svg>
