<?xml version="1.0" encoding="UTF-8" standalone="no"?>
<!-- Created with Inkscape (http://www.inkscape.org/) -->

<svg
   xmlns:osb="http://www.openswatchbook.org/uri/2009/osb"
   xmlns:dc="http://purl.org/dc/elements/1.1/"
   xmlns:cc="http://creativecommons.org/ns#"
   xmlns:rdf="http://www.w3.org/1999/02/22-rdf-syntax-ns#"
   xmlns:svg="http://www.w3.org/2000/svg"
   xmlns="http://www.w3.org/2000/svg"
   xmlns:sodipodi="http://sodipodi.sourceforge.net/DTD/sodipodi-0.dtd"
   xmlns:inkscape="http://www.inkscape.org/namespaces/inkscape"
   width="210mm"
   height="30mm"
   viewBox="0 0 210 30"
   version="1.1"
   id="svg5117"
   sodipodi:docname="to-right-1.svg"
   inkscape:version="0.92.4 (5da689c313, 2019-01-14)">
         <style>
      @import "svg.css";
   </style>
  <defs
     id="defs5111">
    <inkscape:path-effect
       effect="spiro"
       id="path-effect8854"
       is_visible="true" />
    <inkscape:path-effect
       effect="spiro"
       id="path-effect8850"
       is_visible="true" />
    <inkscape:path-effect
       effect="skeletal"
       id="path-effect8838"
       is_visible="true"
       pattern="M 0,5 C 0,2.24 2.24,0 5,0 7.76,0 10,2.24 10,5 10,7.76 7.76,10 5,10 2.24,10 0,7.76 0,5 Z"
       copytype="single_stretched"
       prop_scale="0.26458333"
       scale_y_rel="false"
       spacing="0"
       normal_offset="0"
       tang_offset="0"
       prop_units="false"
       vertical_pattern="false"
       fuse_tolerance="0" />
    <inkscape:path-effect
       effect="spiro"
       id="path-effect8836"
       is_visible="true" />
    <marker
       inkscape:stockid="Arrow2Lstart"
       orient="auto"
       refY="0"
       refX="0"
       id="Arrow2Lstart"
       style="overflow:visible"
       inkscape:isstock="true">
      <path
         id="path7647"
         style="fill:#00e800;fill-opacity:1;fill-rule:evenodd;stroke:#00e800;stroke-width:0.625;stroke-linejoin:round;stroke-opacity:1"
         d="M 8.7185878,4.0337352 -2.2072895,0.01601326 8.7185884,-4.0017078 c -1.7454984,2.3720609 -1.7354408,5.6174519 -6e-7,8.035443 z"
         transform="matrix(1.1,0,0,1.1,1.1,0)"
         inkscape:connector-curvature="0" />
    </marker>
    <marker
       inkscape:stockid="Arrow1Sstart"
       orient="auto"
       refY="0"
       refX="0"
       id="Arrow1Sstart"
       style="overflow:visible"
       inkscape:isstock="true">
      <path
         id="path7641"
         d="M 0,0 5,-5 -12.5,0 5,5 Z"
         style="fill:#00e800;fill-opacity:1;fill-rule:evenodd;stroke:#00e800;stroke-width:1.00000003pt;stroke-opacity:1"
         transform="matrix(0.2,0,0,0.2,1.2,0)"
         inkscape:connector-curvature="0" />
    </marker>
    <marker
       inkscape:stockid="Arrow1Send"
       orient="auto"
       refY="0"
       refX="0"
       id="Arrow1Send"
       style="overflow:visible"
       inkscape:isstock="true">
      <path
         id="path7644"
         d="M 0,0 5,-5 -12.5,0 5,5 Z"
         style="fill:#00e800;fill-opacity:1;fill-rule:evenodd;stroke:#00e800;stroke-width:1.00000003pt;stroke-opacity:1"
         transform="matrix(-0.2,0,0,-0.2,-1.2,0)"
         inkscape:connector-curvature="0" />
    </marker>
    <marker
       inkscape:stockid="Arrow1Lend"
       orient="auto"
       refY="0"
       refX="0"
       id="Arrow1Lend"
       style="overflow:visible"
       inkscape:isstock="true">
      <path
         id="path7632"
         d="M 0,0 5,-5 -12.5,0 5,5 Z"
         style="fill:#00e800;fill-opacity:1;fill-rule:evenodd;stroke:#00e800;stroke-width:1.00000003pt;stroke-opacity:1"
         transform="matrix(-0.8,0,0,-0.8,-10,0)"
         inkscape:connector-curvature="0" />
    </marker>
    <marker
       style="overflow:visible"
       inkscape:stockid="InfiniteLineStart"
       id="InfiniteLineStart"
       refX="0"
       refY="0"
       orient="auto"
       inkscape:isstock="true">
      <g
         id="g7879"
         style="fill:#00e800;fill-opacity:1;stroke:#00e800;stroke-opacity:1"
         transform="translate(-13)">
        <circle
           id="circle7873"
           r="0.80000001"
           cy="0"
           cx="3"
           style="fill:#00e800;fill-opacity:1;stroke:#00e800;stroke-opacity:1" />
        <circle
           id="circle7875"
           r="0.80000001"
           cy="0"
           cx="6.5"
           style="fill:#00e800;fill-opacity:1;stroke:#00e800;stroke-opacity:1" />
        <circle
           id="circle7877"
           r="0.80000001"
           cy="0"
           cx="10"
           style="fill:#00e800;fill-opacity:1;stroke:#00e800;stroke-opacity:1" />
      </g>
    </marker>
    <marker
       inkscape:stockid="Scissors"
       orient="auto"
       refY="0"
       refX="0"
       id="Scissors"
       style="overflow:visible"
       inkscape:isstock="true">
      <path
         id="schere"
         d="M 9.0898857,-3.6061018 C 8.1198849,-4.7769976 6.3697607,-4.7358294 5.0623558,-4.2327734 l -8.2124046,3.0779029 c -2.3882933,-1.3067135 -4.7482873,-0.9325372 -4.7482873,-1.5687873 0,-0.4973164 0.4566662,-0.3883222 0.3883068,-1.6831941 -0.065635,-1.2432767 -1.3635771,-2.1630796 -2.5903987,-2.0816435 -1.227271,-0.00735 -2.499439,0.9331613 -2.510341,2.2300611 -0.09143,1.3063864 1.007209,2.5196896 2.306764,2.6052316 1.5223406,0.2266616 4.218258,-0.6955566 5.482945,1.57086006 -0.9422847,1.73825774 -2.6140244,1.74307674 -4.1255107,1.65607034 -1.2548743,-0.072235 -2.7620933,0.2873979 -3.3606483,1.5208605 -0.578367,1.1820862 -0.0112,2.8646022 1.316749,3.226412 1.3401912,0.4918277 3.1806689,-0.129711 3.4993722,-1.6707242 0.2456585,-1.187823 -0.5953659,-1.7459574 -0.2725074,-2.1771537 0.2436135,-0.32536 1.7907806,-0.1368452 4.5471053,-1.3748244 L 5.6763468,4.2330688 C 6.8000164,4.5467672 8.1730685,4.5362646 9.1684433,3.4313614 l -9.22008423,-3.48508362 z m -18.3078016,-1.900504 c 1.294559,0.7227998 1.1888392,2.6835702 -0.1564272,3.0632889 -1.2165179,0.423661 -2.7710269,-0.7589694 -2.3831779,-2.0774648 0.227148,-1.0818519 1.653387,-1.480632 2.5396051,-0.9858241 z m 0.056264,8.0173649 c 1.3508301,0.4988648 1.1214429,2.7844356 -0.2522207,3.091609 -0.9110594,0.3163391 -2.2135494,-0.1387976 -2.3056964,-1.2121394 -0.177609,-1.305055 1.356085,-2.4841482 2.5579171,-1.8794696 z"
         style="fill:#00e800;fill-opacity:1;stroke:#00e800;stroke-opacity:1"
         inkscape:connector-curvature="0" />
    </marker>
    <marker
       inkscape:stockid="EmptyTriangleOutL"
       orient="auto"
       refY="0"
       refX="0"
       id="EmptyTriangleOutL"
       style="overflow:visible"
       inkscape:isstock="true">
      <path
         id="path7789"
         d="M 5.77,0 -2.88,5 V -5 Z"
         style="fill:#ffffff;fill-rule:evenodd;stroke:#00e800;stroke-width:1.00000003pt;stroke-opacity:1"
         transform="matrix(0.8,0,0,0.8,-4.8,0)"
         inkscape:connector-curvature="0" />
    </marker>
    <marker
       inkscape:stockid="Tail"
       orient="auto"
       refY="0"
       refX="0"
       id="Tail"
       style="overflow:visible"
       inkscape:isstock="true">
      <g
         id="g7677"
         transform="scale(-1.2)"
         style="fill:#00e800;fill-opacity:1;stroke:#00e800;stroke-opacity:1">
        <path
           id="path7665"
           d="M -3.8048674,-3.9585227 0.54352094,0"
           style="fill:#00e800;fill-opacity:1;fill-rule:evenodd;stroke:#00e800;stroke-width:0.80000001;stroke-linecap:round;stroke-opacity:1"
           inkscape:connector-curvature="0" />
        <path
           id="path7667"
           d="M -1.2866832,-3.9585227 3.0617053,0"
           style="fill:#00e800;fill-opacity:1;fill-rule:evenodd;stroke:#00e800;stroke-width:0.80000001;stroke-linecap:round;stroke-opacity:1"
           inkscape:connector-curvature="0" />
        <path
           id="path7669"
           d="M 1.3053582,-3.9585227 5.6537466,0"
           style="fill:#00e800;fill-opacity:1;fill-rule:evenodd;stroke:#00e800;stroke-width:0.80000001;stroke-linecap:round;stroke-opacity:1"
           inkscape:connector-curvature="0" />
        <path
           id="path7671"
           d="M -3.8048674,4.1775838 0.54352094,0.21974226"
           style="fill:#00e800;fill-opacity:1;fill-rule:evenodd;stroke:#00e800;stroke-width:0.80000001;stroke-linecap:round;stroke-opacity:1"
           inkscape:connector-curvature="0" />
        <path
           id="path7673"
           d="M -1.2866832,4.1775838 3.0617053,0.21974226"
           style="fill:#00e800;fill-opacity:1;fill-rule:evenodd;stroke:#00e800;stroke-width:0.80000001;stroke-linecap:round;stroke-opacity:1"
           inkscape:connector-curvature="0" />
        <path
           id="path7675"
           d="M 1.3053582,4.1775838 5.6537466,0.21974226"
           style="fill:#00e800;fill-opacity:1;fill-rule:evenodd;stroke:#00e800;stroke-width:0.80000001;stroke-linecap:round;stroke-opacity:1"
           inkscape:connector-curvature="0" />
      </g>
    </marker>
    <marker
       inkscape:stockid="DotL"
       orient="auto"
       refY="0"
       refX="0"
       id="DotL"
       style="overflow:visible"
       inkscape:isstock="true">
      <path
         id="path7690"
         d="m -2.5,-1 c 0,2.76 -2.24,5 -5,5 -2.76,0 -5,-2.24 -5,-5 0,-2.76 2.24,-5 5,-5 2.76,0 5,2.24 5,5 z"
         style="fill:#00e800;fill-opacity:1;fill-rule:evenodd;stroke:#00e800;stroke-width:1.00000003pt;stroke-opacity:1"
         transform="matrix(0.8,0,0,0.8,5.92,0.8)"
         inkscape:connector-curvature="0" />
    </marker>
    <marker
       style="overflow:visible"
       id="DistanceStart"
       refX="0"
       refY="0"
       orient="auto"
       inkscape:stockid="DistanceStart"
       inkscape:isstock="true">
      <g
         id="g2300"
         style="fill:#00e800;fill-opacity:1;stroke:#00e800;stroke-opacity:1">
        <path
           style="fill:#00e800;fill-opacity:1;stroke:#00e800;stroke-width:1.14999998;stroke-linecap:square;stroke-opacity:1"
           d="M 0,0 H 2"
           id="path2306"
           inkscape:connector-curvature="0" />
        <path
           style="fill:#00e800;fill-opacity:1;fill-rule:evenodd;stroke:#00e800;stroke-opacity:1"
           d="M 0,0 13,4 9,0 13,-4 Z"
           id="path2302"
           inkscape:connector-curvature="0" />
        <path
           style="fill:#00e800;fill-opacity:1;stroke:#00e800;stroke-width:1;stroke-linecap:square;stroke-opacity:1"
           d="M 0,-4 V 40"
           id="path2304"
           inkscape:connector-curvature="0" />
      </g>
    </marker>
    <marker
       inkscape:stockid="Arrow1Lstart"
       orient="auto"
       refY="0"
       refX="0"
       id="Arrow1Lstart"
       style="overflow:visible"
       inkscape:isstock="true">
      <path
         id="path7629"
         d="M 0,0 5,-5 -12.5,0 5,5 Z"
         style="fill:#00e800;fill-opacity:1;fill-rule:evenodd;stroke:#00e800;stroke-width:1.00000003pt;stroke-opacity:1"
         transform="matrix(0.8,0,0,0.8,10,0)"
         inkscape:connector-curvature="0" />
    </marker>
    <linearGradient
       id="linearGradient7625"
       osb:paint="solid">
      <stop
         style="stop-color:#000000;stop-opacity:1;"
         offset="0"
         id="stop7623" />
    </linearGradient>
    <inkscape:path-effect
       effect="skeletal"
       id="path-effect6163"
       is_visible="true"
       pattern="M 0,5 C 0,2.24 2.24,0 5,0 7.76,0 10,2.24 10,5 10,7.76 7.76,10 5,10 2.24,10 0,7.76 0,5 Z"
       copytype="single_stretched"
       prop_scale="0.26458333"
       scale_y_rel="false"
       spacing="0"
       normal_offset="0"
       tang_offset="0"
       prop_units="false"
       vertical_pattern="false"
       fuse_tolerance="0" />
    <inkscape:path-effect
       effect="bspline"
       id="path-effect6161"
       is_visible="true"
       weight="33.333333"
       steps="2"
       helper_size="0"
       apply_no_weight="true"
       apply_with_weight="true"
       only_selected="false" />
    <inkscape:path-effect
       effect="skeletal"
       id="path-effect6157"
       is_visible="true"
       pattern="M 0,5 C 0,2.24 2.24,0 5,0 7.76,0 10,2.24 10,5 10,7.76 7.76,10 5,10 2.24,10 0,7.76 0,5 Z"
       copytype="single_stretched"
       prop_scale="0.26458333"
       scale_y_rel="false"
       spacing="0"
       normal_offset="0"
       tang_offset="0"
       prop_units="false"
       vertical_pattern="false"
       fuse_tolerance="0" />
    <inkscape:path-effect
       effect="skeletal"
       id="path-effect6153"
       is_visible="true"
       pattern="M 0,5 C 0,2.24 2.24,0 5,0 7.76,0 10,2.24 10,5 10,7.76 7.76,10 5,10 2.24,10 0,7.76 0,5 Z"
       copytype="single_stretched"
       prop_scale="0.26458333"
       scale_y_rel="false"
       spacing="0"
       normal_offset="0"
       tang_offset="0"
       prop_units="false"
       vertical_pattern="false"
       fuse_tolerance="0" />
    <inkscape:path-effect
       effect="powerstroke"
       id="path-effect6149"
       is_visible="true"
       offset_points="0,0.13229166"
       sort_points="true"
       interpolator_type="CubicBezierJohan"
       interpolator_beta="0.2"
       start_linecap_type="zerowidth"
       linejoin_type="extrp_arc"
       miter_limit="4"
       end_linecap_type="zerowidth" />
    <inkscape:path-effect
       effect="powerstroke"
       id="path-effect6145"
       is_visible="true"
       offset_points="0,0.13229166"
       sort_points="true"
       interpolator_type="CubicBezierJohan"
       interpolator_beta="0.2"
       start_linecap_type="zerowidth"
       linejoin_type="extrp_arc"
       miter_limit="4"
       end_linecap_type="zerowidth" />
    <inkscape:path-effect
       effect="bspline"
       id="path-effect6137"
       is_visible="true"
       weight="33.333333"
       steps="2"
       helper_size="0"
       apply_no_weight="true"
       apply_with_weight="true"
       only_selected="false" />
    <inkscape:path-effect
       effect="spiro"
       id="path-effect6133"
       is_visible="true" />
  </defs>
  <sodipodi:namedview
     id="base"
     pagecolor="#ffffff"
     bordercolor="#666666"
     borderopacity="1.0"
     inkscape:pageopacity="0.0"
     inkscape:pageshadow="2"
     inkscape:zoom="1.4"
     inkscape:cx="385.39908"
     inkscape:cy="87.030953"
     inkscape:document-units="mm"
     inkscape:current-layer="layer1"
     showgrid="false"
     inkscape:window-width="1680"
     inkscape:window-height="987"
     inkscape:window-x="-8"
     inkscape:window-y="-8"
     inkscape:window-maximized="1"
     units="mm"
     height="30mm" />
  <metadata
     id="metadata5114">
    <rdf:RDF>
      <cc:Work
         rdf:about="">
        <dc:format>image/svg+xml</dc:format>
        <dc:type
           rdf:resource="http://purl.org/dc/dcmitype/StillImage" />
        <dc:title></dc:title>
      </cc:Work>
    </rdf:RDF>
  </metadata>
  <g
     inkscape:label="Layer 1"
     inkscape:groupmode="layer"
     id="layer1"
     transform="translate(0,-267)">
    <path
      class="stroke-single"
      fill="none"
      stroke-width="0.26458332px"
      stroke-linecap="butt"
      stroke-linejoin="miter"
      stroke-opacity="1"
       d="M -1.3363476,12.090683 C -0.2649217,9.7253951 1.9852455,7.9302324 4.5294441,7.4110083 7.0736427,6.8917841 9.8472909,7.6616785 11.759859,9.4179881 c 1.021796,0.9383139 1.80954,2.1600169 2.100522,3.5164199 0.290981,1.356403 0.05287,2.845992 -0.764174,3.967127 -0.547418,0.751161 -1.340674,1.319569 -2.227178,1.59889 -0.8865034,0.27932 -1.8614818,0.268484 -2.7423826,-0.02803 C 7.2457456,18.175874 6.4632436,17.595561 5.9216509,16.84019 5.3800581,16.084818 5.0816852,15.1583 5.0781209,14.22884 5.0752048,13.468404 5.2672871,12.708836 5.6252852,12.037935 5.9832833,11.367034 6.505982,10.785693 7.1312851,10.352949 8.3818915,9.4874619 10.034722,9.2520033 11.492589,9.6852577 c 1.348996,0.4009003 2.484384,1.3181613 3.473936,2.3188103 0.989553,1.000648 1.874905,2.107369 2.940533,3.02658 1.532703,1.322111 3.490601,2.239777 5.514383,2.201551 1.011891,-0.01911 2.024282,-0.279955 2.895856,-0.794394 0.871575,-0.514439 1.596969,-1.286479 2.013273,-2.208965 0.311047,-0.689246 0.44762,-1.459083 0.372909,-2.211564 C 28.628768,11.264794 28.340583,10.531995 27.86723,9.9422947 27.393876,9.3525943 26.73507,8.9102528 26.004782,8.7140669 25.274494,8.517881 24.476191,8.5723075 23.786988,8.8834491 c -0.492935,0.2225361 -0.926006,0.5719026 -1.25994,0.9973384 -0.333933,0.4254355 -0.56936,0.9256995 -0.699351,1.4506845 -0.25998,1.049971 -0.09256,2.1802 0.355673,3.164637 0.748355,1.64359 2.301276,2.902281 4.068696,3.273296 1.767419,0.371015 3.705034,-0.162928 5.018469,-1.402409 1.305046,-1.231564 1.927471,-2.99619 2.674841,-4.627549 0.373685,-0.81568 0.792246,-1.618573 1.353953,-2.3181862 0.561708,-0.6996131 1.277001,-1.2954201 2.118405,-1.6068898 0.899694,-0.3330476 1.915982,-0.3218908 2.820715,-0.00278 0.904733,0.3191062 1.695013,0.9385086 2.25111,1.7202543 0.556097,0.7817452 0.880288,1.7206272 0.961844,2.6765142 0.08156,0.955886 -0.07601,1.927116 -0.42101,2.822293 -0.388631,1.008372 -1.017222,1.925772 -1.830248,2.637697 -0.813027,0.711924 -1.81018,1.215474 -2.86971,1.428187 -1.059529,0.212714 -2.179043,0.131796 -3.190337,-0.249168 -1.011294,-0.380963 -1.909888,-1.063043 -2.533216,-1.945829 -0.480867,-0.681025 -0.7978,-1.481124 -0.885582,-2.310173 -0.08778,-0.829049 0.05717,-1.685335 0.438078,-2.426911 0.38091,-0.741575 0.999934,-1.363283 1.752208,-1.722604 0.752274,-0.35932 1.634885,-0.4490468 2.43707,-0.22205 0.54923,0.155417 1.054746,0.454475 1.469126,0.847027 0.414381,0.392552 0.73835,0.877101 0.961082,1.402647 0.445463,1.051093 0.479642,2.246299 0.242486,3.362986 -0.39497,1.859777 -1.555261,3.554443 -3.17326,4.552866 -1.618,0.998423 -3.675797,1.272808 -5.484167,0.685808 -1.80837,-0.587 -3.325276,-2.038656 -3.945101,-3.83604 -0.309912,-0.898692 -0.401232,-1.872722 -0.257168,-2.81237 0.144064,-0.939648 0.523876,-1.843026 1.099838,-2.599307 0.751952,-0.987368 1.827821,-1.709717 3.004097,-2.1055715 1.176277,-0.3958544 2.448696,-0.4731283 3.67764,-0.2998544 2.69865,0.3804937 5.074774,1.9069369 7.403493,3.3227599 1.164359,0.707912 2.344683,1.399294 3.60177,1.925224 1.257088,0.52593 2.599241,0.884499 3.961832,0.899215 2.367403,0.02557 4.608916,-0.972145 6.78698,-1.900201 2.178063,-0.928057 4.489214,-1.82196 6.843766,-1.574303 1.259286,0.132454 2.463951,0.58879 3.601004,1.145973 1.137054,0.557184 2.220517,1.217692 3.348002,1.793992 1.105193,0.564906 2.258946,1.05061 3.46947,1.324842 1.210524,0.274231 2.483275,0.331595 3.691167,0.04599 1.207892,-0.285603 2.347515,-0.929264 3.12645,-1.895613 0.778935,-0.96635 1.168972,-2.264701 0.938234,-3.484263 C 80.562735,10.214711 80.146944,9.4645974 79.566467,8.8837096 78.98599,8.3028217 78.245255,7.8897124 77.454353,7.6686759 75.872547,7.2266029 74.139089,7.562265 72.69731,8.34891 c -1.478776,0.8068309 -2.667217,2.044371 -3.843589,3.25015 -1.176372,1.205779 -2.395529,2.420997 -3.907226,3.164319 -1.174476,0.577506 -2.534036,0.846064 -3.810395,0.556552 -0.638179,-0.144756 -1.247521,-0.428273 -1.75289,-0.844001 -0.505368,-0.415728 -0.904214,-0.965111 -1.118455,-1.583438 -0.344423,-0.994049 -0.187883,-2.13125 0.341652,-3.0402893 0.529534,-0.9090394 1.408991,-1.5915923 2.393807,-1.961587 0.984817,-0.3699948 2.068776,-0.4387356 3.10938,-0.2841269 1.040603,0.1546087 2.040613,0.5263956 2.975057,1.0096909 1.717538,0.8883126 3.21269,2.1426913 4.72696,3.3451993 1.51427,1.202508 3.088918,2.377866 4.894742,3.069269 2.219572,0.849817 4.690319,0.917171 7.021942,0.456491 2.331623,-0.460681 4.537525,-1.429102 6.608804,-2.594647 1.93287,-1.08766 3.786283,-2.361348 5.884112,-3.0811433 1.048915,-0.3598979 2.155955,-0.5761498 3.26425,-0.5383508 1.108299,0.037799 2.219129,0.3380379 3.146039,0.9467991 0.60785,0.399217 1.13249,0.929719 1.50229,1.555902 0.36981,0.626182 0.58199,1.348435 0.58335,2.075662 0.001,0.727226 -0.21152,1.457246 -0.62518,2.055361 -0.41367,0.598115 -1.02951,1.058726 -1.72773,1.262082 -0.56976,0.165944 -1.1873,0.159758 -1.75602,-0.0097 -0.56872,-0.169488 -1.08713,-0.500759 -1.485995,-0.940161 -0.398864,-0.439402 -0.677868,-0.985201 -0.80851,-1.564079 -0.130643,-0.578878 -0.113478,-1.189493 0.04148,-1.762341 0.209164,-0.773234 0.668264,-1.471822 1.27367,-1.996344 0.605404,-0.524522 1.353004,-0.876836 2.136554,-1.0431994 1.56712,-0.3327263 3.2308,0.082688 4.60786,0.9013874 1.61542,0.96041 2.85679,2.423362 4.12982,3.805875 1.27304,1.382512 2.66435,2.74723 4.4228,3.410402 1.83442,0.691823 3.93366,0.533841 5.73151,-0.248134 1.79784,-0.781974 3.30349,-2.152641 4.42474,-3.760909 0.52849,-0.758045 0.98134,-1.575392 1.60815,-2.254389 0.31341,-0.339498 0.67043,-0.642797 1.07629,-0.863609 0.40587,-0.220811 0.86256,-0.357111 1.3246,-0.356506 0.40474,5.3e-4 0.8064,0.106103 1.16948,0.28494 0.36308,0.178837 0.68834,0.429687 0.9702,0.720146 0.56373,0.580918 0.9493,1.309681 1.28359,2.046906 0.33429,0.737224 0.62663,1.496716 1.03967,2.192878 0.41305,0.696162 0.96295,1.336759 1.68426,1.704138 0.72883,0.371213 1.60292,0.434896 2.38641,0.200092 0.7835,-0.234804 1.4714,-0.760277 1.92801,-1.438878 0.45662,-0.678601 0.68356,-1.503895 0.6671,-2.321652 -0.0165,-0.817757 -0.27238,-1.625477 -0.70521,-2.319492 -0.7411,-1.188314 -1.98987,-2.0222485 -3.34701,-2.3679422 -1.35713,-0.3456936 -2.81136,-0.2232499 -4.13653,0.2297863 -1.72971,0.5913359 -3.2251,1.7136609 -4.60842,2.9086539 -1.38332,1.194993 -2.69455,2.485766 -4.21148,3.505815 -1.40017,0.941536 -2.97334,1.642966 -4.6317,1.954137 -1.65836,0.31117 -3.40316,0.222978 -4.99,-0.35052 -1.07257,-0.387636 -2.07383,-1.000561 -2.844,-1.841698 -0.77017,-0.841137 -1.29995,-1.917017 -1.41168,-3.052003 -0.11172,-1.134986 0.21343,-2.32262 0.95318,-3.1906266 0.36988,-0.4340033 0.83815,-0.7852928 1.36274,-1.0088204 0.5246,-0.2235275 1.10508,-0.3179708 1.67249,-0.2612853 0.7725,0.077174 1.49957,0.4300208 2.11073,0.9087581 0.61116,0.4787374 1.11544,1.0800002 1.5754,1.7054162 0.91992,1.250831 1.71663,2.652666 2.99561,3.533025 0.9159,0.630441 2.02851,0.945391 3.13956,0.989049 1.11105,0.04366 2.22178,-0.174741 3.27194,-0.5401 2.10033,-0.730716 3.94697,-2.027319 5.88289,-3.121645 1.22422,-0.692019 2.50666,-1.311985 3.87912,-1.6185093 1.37246,-0.3065242 2.85065,-0.2815993 4.13897,0.2821623 0.81441,0.35638 1.52689,0.914153 2.16203,1.536136 0.63514,0.621982 1.20001,1.311001 1.78698,1.978638 0.58696,0.667637 1.20142,1.318893 1.9163,1.847306 0.71487,0.528413 1.53925,0.93213 2.42005,1.052388 0.97725,0.133426 1.98052,-0.08942 2.87418,-0.506763 0.89367,-0.417341 1.68755,-1.021996 2.42642,-1.675357 1.47774,-1.306724 2.80536,-2.853935 4.58837,-3.697809 1.74295,-0.8249138 3.84967,-0.873979 5.60331,-0.07203 1.75363,0.801947 3.10747,2.45713 3.48385,4.348345 0.28717,1.442954 0.009,2.987839 -0.74827,4.249057 -0.75757,1.261219 -1.98497,2.22935 -3.38276,2.688445 -1.39779,0.459095 -2.95403,0.408784 -4.32551,-0.123783 -1.37148,-0.532568 -2.55009,-1.540864 -3.30332,-2.804676 -0.5309,-0.890777 -0.85486,-1.912458 -0.87461,-2.949257 -0.0198,-1.036799 0.27276,-2.086207 0.87461,-2.930672 0.83918,-1.177464 2.23572,-1.890131 3.66963,-2.075981 1.43391,-0.18585 2.89975,0.11751 4.23581,0.670299 2.67212,1.10558 4.83406,3.150667 7.32893,4.612916 0.91717,0.537558 1.88615,0.998626 2.91201,1.27751 1.02587,0.278885 2.1127,0.371311 3.15733,0.174054 1.04464,-0.197257 2.04479,-0.695558 2.76533,-1.477224 0.72054,-0.781667 1.14146,-1.854787 1.0543,-2.914305 -0.053,-0.64407 -0.28902,-1.269051 -0.65555,-1.801294 -0.36654,-0.532244 -0.86125,-0.972346 -1.42084,-1.295597 -1.11919,-0.6465011 -2.47213,-0.8140769 -3.75327,-0.6431756 -1.28115,0.1709014 -2.5005,0.6611506 -3.64657,1.2586946 -1.14606,0.597544 -2.23116,1.304444 -3.35271,1.946833 -0.47507,0.272104 -0.95905,0.534186 -1.39033,0.871417 -0.43128,0.33723 -0.81221,0.758243 -1.01509,1.266739 -0.18319,0.459147 -0.21204,0.975433 -0.0995,1.456795 0.11254,0.481362 0.36371,0.926959 0.70359,1.285932 0.67974,0.717946 1.69187,1.067046 2.68055,1.065678 0.98869,-0.0014 1.95543,-0.326728 2.8269,-0.793678 0.87147,-0.46695 1.6593,-1.073135 2.44108,-1.678379 1.19022,-0.921454 2.38398,-1.852214 3.70965,-2.565172 1.32567,-0.712958 2.80346,-1.204029 4.30844,-1.176601 1.2139,0.02212 2.40497,0.381139 3.49576,0.91425 1.0908,0.533111 2.08902,1.237349 3.0489,1.980777 1.91974,1.486858 3.75481,3.171567 6.017,4.05398 0.96655,0.377021 1.99928,0.59809 3.03674,0.592202 1.03746,-0.0059 2.07956,-0.243106 2.99167,-0.737484 0.91211,-0.494378 1.68921,-1.250971 2.15876,-2.176109 0.46955,-0.925138 0.62032,-2.018313 0.36546,-3.023999 -0.31312,-1.235586 -1.2333,-2.284312 -2.38413,-2.832326 -1.15082,-0.548013 -2.50843,-0.608863 -3.73099,-0.248234 -1.22257,0.360629 -2.30885,1.126253 -3.12961,2.101476 -0.82077,0.975222 -1.38295,2.153424 -1.71332,3.384509 -0.22656,0.844239 -0.34708,1.731778 -0.20518,2.594295 0.1419,0.862516 0.56857,1.700718 1.27425,2.216557 0.37816,0.276431 0.82555,0.453461 1.28762,0.530352 0.46207,0.07689 0.93841,0.05504 1.39619,-0.04425 0.91556,-0.198575 1.74265,-0.69993 2.45496,-1.308453 1.42461,-1.217047 2.44507,-2.870139 3.9484,-3.988504 1.41074,-1.049492 3.21015,-1.563473 4.96238,-1.417454 1.75223,0.146019 3.44174,0.950744 4.65932,2.219263"
       id="path8852"
       inkscape:connector-curvature="0"
       inkscape:path-effect="#path-effect8854"
       inkscape:original-d="M -1.3363476,12.090683 C 2.9402294,11.199521 7.3947215,10.308622 11.759859,9.4179881 16.124997,8.5273543 12.651022,14.406755 13.096207,16.901535 13.541391,19.396315 7.7510808,15.119473 5.0781209,14.22884 2.4051611,13.338206 9.3546979,11.199521 11.492589,9.6852577 13.630481,8.170995 15.769166,13.248587 17.907058,15.030648 20.04495,16.81271 24.85633,14.495845 28.33057,14.22884 31.804808,13.961835 25.301779,10.664981 23.786988,8.8834491 22.272196,7.1019169 22.718174,12.624958 22.18337,14.496109 c -0.534803,1.871151 6.058374,1.246993 9.087165,1.870887 3.028788,0.623893 4.098396,-5.702015 6.147199,-8.552625 2.048801,-2.8506105 3.742037,4.810587 5.612659,7.216277 1.870623,2.405691 -6.948744,1.246993 -10.423511,1.870887 -3.474768,0.623893 2.49478,-4.454757 3.741774,-6.681738 1.246992,-2.2269817 1.782062,3.741509 2.672694,5.61266 0.890635,1.871151 -7.839641,-2.67296 -11.759858,-4.009043 -3.920218,-1.336083 4.454757,-1.603882 6.681737,-2.4054259 2.226982,-0.8015438 9.978326,4.0978679 14.967095,6.1471989 4.988766,2.049331 9.087427,-2.3166 13.630746,-3.474504 4.543316,-1.157903 4.632936,1.959712 6.949006,2.939965 2.316072,0.980253 7.483811,-2.67296 11.225321,-4.009043 3.741507,-1.3360827 -5.345126,-1.7820612 -8.018087,-2.672695 -2.672958,-0.8906337 -5.166945,4.276048 -7.750815,6.414469 -2.583871,2.138421 -4.454229,-1.247523 -6.68174,-1.870887 -2.227509,-0.623364 5.880195,-2.851139 8.819896,-4.2763123 2.939701,-1.4251731 6.414733,4.2760473 9.621702,6.4144683 3.20697,2.138421 9.08743,-1.425702 13.630746,-2.138156 4.543317,-0.712454 8.19653,-1.782061 12.294401,-2.672695 4.09786,-0.890634 -0.17792,4.632407 -0.26727,6.949007 -0.0894,2.316601 -2.672433,-2.851139 -4.009044,-4.276312 -1.336614,-1.425173 5.345654,-1.425702 8.018084,-2.138156 2.67243,-0.712454 5.70201,4.810587 8.55262,7.216277 2.85061,2.40569 6.7711,-2.67296 10.15625,-4.009043 3.38515,-1.336083 2.67296,-2.3166 4.00904,-3.474504 1.33608,-1.157903 4.0984,4.632407 6.1472,6.949008 2.0488,2.3166 2.85114,-3.920218 4.27631,-5.87993 1.42517,-1.9597116 -4.98876,-1.425702 -7.48354,-2.1381559 -2.49478,-0.7124541 -5.87967,4.2760479 -8.8199,6.4144689 -2.94023,2.138421 -6.4142,1.068813 -9.6217,1.603617 -3.2075,0.534804 -0.17792,-6.236553 -0.26727,-9.3544333 -0.0894,-3.1178802 4.45475,4.0978683 6.68174,6.1471993 2.22698,2.049331 8.19653,-1.782062 12.29439,-2.672696 4.09787,-0.890634 5.34566,-0.891163 8.01809,-1.336347 2.67243,-0.445185 5.52383,4.276048 8.28536,6.414468 2.76152,2.138421 6.59291,-3.920217 9.88897,-5.879929 3.29606,-1.9597121 6.05837,2.85061 9.08716,4.276312 3.02879,1.425702 -7.83964,2.672431 -11.75986,4.009043 -3.92022,1.336612 2.7e-4,-3.920218 0,-5.879929 -2.6e-4,-1.959712 10.15651,2.137891 15.23437,3.207234 5.07785,1.069343 6.59291,-1.960241 9.88897,-2.939965 3.29606,-0.979724 -8.55236,-0.356624 -12.82894,-0.534539 -4.27658,-0.177915 -1.60335,1.425173 -2.40542,2.138156 -0.80208,0.712984 5.70201,0.890634 8.55262,1.336348 2.85061,0.445714 5.34565,-2.49478 8.01809,-3.741773 2.67243,-1.246994 8.3747,4.632407 12.56166,6.949007 4.18696,2.3166 5.70202,-3.563858 8.55263,-5.34539 2.85061,-1.781533 -7.3051,1.603352 -10.95805,2.405425 -3.65295,0.802074 0.71298,3.20697 1.06907,4.810852 0.3561,1.603881 6.05838,-3.207499 9.08717,-4.810852 3.02879,-1.603352 6.41473,0.534275 9.6217,0.801809"
       transform="translate(0,267.26952)" />
  </g>
</svg>
