<?xml version="1.0" encoding="UTF-8" standalone="no"?>
<!-- Created with Inkscape (http://www.inkscape.org/) -->

<svg
   xmlns:osb="http://www.openswatchbook.org/uri/2009/osb"
   xmlns:dc="http://purl.org/dc/elements/1.1/"
   xmlns:cc="http://creativecommons.org/ns#"
   xmlns:rdf="http://www.w3.org/1999/02/22-rdf-syntax-ns#"
   xmlns:svg="http://www.w3.org/2000/svg"
   xmlns="http://www.w3.org/2000/svg"
   xmlns:sodipodi="http://sodipodi.sourceforge.net/DTD/sodipodi-0.dtd"
   xmlns:inkscape="http://www.inkscape.org/namespaces/inkscape"
   width="210mm"
   height="30mm"
   viewBox="0 0 210 30"
   version="1.1"
   id="svg5117"
   sodipodi:docname="to-right-4.svg"
   inkscape:version="0.92.4 (5da689c313, 2019-01-14)">
               <style>
      @import "svg.css";
   </style>
  <defs
     id="defs5111">
    <inkscape:path-effect
       effect="spiro"
       id="path-effect8868"
       is_visible="true" />
    <inkscape:path-effect
       effect="spiro"
       id="path-effect8864"
       is_visible="true" />
    <inkscape:path-effect
       effect="spiro"
       id="path-effect8860"
       is_visible="true" />
    <inkscape:path-effect
       effect="spiro"
       id="path-effect8854"
       is_visible="true" />
    <inkscape:path-effect
       effect="spiro"
       id="path-effect8850"
       is_visible="true" />
    <inkscape:path-effect
       effect="skeletal"
       id="path-effect8838"
       is_visible="true"
       pattern="M 0,5 C 0,2.24 2.24,0 5,0 7.76,0 10,2.24 10,5 10,7.76 7.76,10 5,10 2.24,10 0,7.76 0,5 Z"
       copytype="single_stretched"
       prop_scale="0.26458333"
       scale_y_rel="false"
       spacing="0"
       normal_offset="0"
       tang_offset="0"
       prop_units="false"
       vertical_pattern="false"
       fuse_tolerance="0" />
    <inkscape:path-effect
       effect="spiro"
       id="path-effect8836"
       is_visible="true" />
    <marker
       inkscape:stockid="Arrow2Lstart"
       orient="auto"
       refY="0"
       refX="0"
       id="Arrow2Lstart"
       style="overflow:visible"
       inkscape:isstock="true">
      <path
         id="path7647"
         style="fill:#00e800;fill-opacity:1;fill-rule:evenodd;stroke:#00e800;stroke-width:0.625;stroke-linejoin:round;stroke-opacity:1"
         d="M 8.7185878,4.0337352 -2.2072895,0.01601326 8.7185884,-4.0017078 c -1.7454984,2.3720609 -1.7354408,5.6174519 -6e-7,8.035443 z"
         transform="matrix(1.1,0,0,1.1,1.1,0)"
         inkscape:connector-curvature="0" />
    </marker>
    <marker
       inkscape:stockid="Arrow1Sstart"
       orient="auto"
       refY="0"
       refX="0"
       id="Arrow1Sstart"
       style="overflow:visible"
       inkscape:isstock="true">
      <path
         id="path7641"
         d="M 0,0 5,-5 -12.5,0 5,5 Z"
         style="fill:#00e800;fill-opacity:1;fill-rule:evenodd;stroke:#00e800;stroke-width:1.00000003pt;stroke-opacity:1"
         transform="matrix(0.2,0,0,0.2,1.2,0)"
         inkscape:connector-curvature="0" />
    </marker>
    <marker
       inkscape:stockid="Arrow1Send"
       orient="auto"
       refY="0"
       refX="0"
       id="Arrow1Send"
       style="overflow:visible"
       inkscape:isstock="true">
      <path
         id="path7644"
         d="M 0,0 5,-5 -12.5,0 5,5 Z"
         style="fill:#00e800;fill-opacity:1;fill-rule:evenodd;stroke:#00e800;stroke-width:1.00000003pt;stroke-opacity:1"
         transform="matrix(-0.2,0,0,-0.2,-1.2,0)"
         inkscape:connector-curvature="0" />
    </marker>
    <marker
       inkscape:stockid="Arrow1Lend"
       orient="auto"
       refY="0"
       refX="0"
       id="Arrow1Lend"
       style="overflow:visible"
       inkscape:isstock="true">
      <path
         id="path7632"
         d="M 0,0 5,-5 -12.5,0 5,5 Z"
         style="fill:#00e800;fill-opacity:1;fill-rule:evenodd;stroke:#00e800;stroke-width:1.00000003pt;stroke-opacity:1"
         transform="matrix(-0.8,0,0,-0.8,-10,0)"
         inkscape:connector-curvature="0" />
    </marker>
    <marker
       style="overflow:visible"
       inkscape:stockid="InfiniteLineStart"
       id="InfiniteLineStart"
       refX="0"
       refY="0"
       orient="auto"
       inkscape:isstock="true">
      <g
         id="g7879"
         style="fill:#00e800;fill-opacity:1;stroke:#00e800;stroke-opacity:1"
         transform="translate(-13)">
        <circle
           id="circle7873"
           r="0.80000001"
           cy="0"
           cx="3"
           style="fill:#00e800;fill-opacity:1;stroke:#00e800;stroke-opacity:1" />
        <circle
           id="circle7875"
           r="0.80000001"
           cy="0"
           cx="6.5"
           style="fill:#00e800;fill-opacity:1;stroke:#00e800;stroke-opacity:1" />
        <circle
           id="circle7877"
           r="0.80000001"
           cy="0"
           cx="10"
           style="fill:#00e800;fill-opacity:1;stroke:#00e800;stroke-opacity:1" />
      </g>
    </marker>
    <marker
       inkscape:stockid="Scissors"
       orient="auto"
       refY="0"
       refX="0"
       id="Scissors"
       style="overflow:visible"
       inkscape:isstock="true">
      <path
         id="schere"
         d="M 9.0898857,-3.6061018 C 8.1198849,-4.7769976 6.3697607,-4.7358294 5.0623558,-4.2327734 l -8.2124046,3.0779029 c -2.3882933,-1.3067135 -4.7482873,-0.9325372 -4.7482873,-1.5687873 0,-0.4973164 0.4566662,-0.3883222 0.3883068,-1.6831941 -0.065635,-1.2432767 -1.3635771,-2.1630796 -2.5903987,-2.0816435 -1.227271,-0.00735 -2.499439,0.9331613 -2.510341,2.2300611 -0.09143,1.3063864 1.007209,2.5196896 2.306764,2.6052316 1.5223406,0.2266616 4.218258,-0.6955566 5.482945,1.57086006 -0.9422847,1.73825774 -2.6140244,1.74307674 -4.1255107,1.65607034 -1.2548743,-0.072235 -2.7620933,0.2873979 -3.3606483,1.5208605 -0.578367,1.1820862 -0.0112,2.8646022 1.316749,3.226412 1.3401912,0.4918277 3.1806689,-0.129711 3.4993722,-1.6707242 0.2456585,-1.187823 -0.5953659,-1.7459574 -0.2725074,-2.1771537 0.2436135,-0.32536 1.7907806,-0.1368452 4.5471053,-1.3748244 L 5.6763468,4.2330688 C 6.8000164,4.5467672 8.1730685,4.5362646 9.1684433,3.4313614 l -9.22008423,-3.48508362 z m -18.3078016,-1.900504 c 1.294559,0.7227998 1.1888392,2.6835702 -0.1564272,3.0632889 -1.2165179,0.423661 -2.7710269,-0.7589694 -2.3831779,-2.0774648 0.227148,-1.0818519 1.653387,-1.480632 2.5396051,-0.9858241 z m 0.056264,8.0173649 c 1.3508301,0.4988648 1.1214429,2.7844356 -0.2522207,3.091609 -0.9110594,0.3163391 -2.2135494,-0.1387976 -2.3056964,-1.2121394 -0.177609,-1.305055 1.356085,-2.4841482 2.5579171,-1.8794696 z"
         style="fill:#00e800;fill-opacity:1;stroke:#00e800;stroke-opacity:1"
         inkscape:connector-curvature="0" />
    </marker>
    <marker
       inkscape:stockid="EmptyTriangleOutL"
       orient="auto"
       refY="0"
       refX="0"
       id="EmptyTriangleOutL"
       style="overflow:visible"
       inkscape:isstock="true">
      <path
         id="path7789"
         d="M 5.77,0 -2.88,5 V -5 Z"
         style="fill:#ffffff;fill-rule:evenodd;stroke:#00e800;stroke-width:1.00000003pt;stroke-opacity:1"
         transform="matrix(0.8,0,0,0.8,-4.8,0)"
         inkscape:connector-curvature="0" />
    </marker>
    <marker
       inkscape:stockid="Tail"
       orient="auto"
       refY="0"
       refX="0"
       id="Tail"
       style="overflow:visible"
       inkscape:isstock="true">
      <g
         id="g7677"
         transform="scale(-1.2)"
         style="fill:#00e800;fill-opacity:1;stroke:#00e800;stroke-opacity:1">
        <path
           id="path7665"
           d="M -3.8048674,-3.9585227 0.54352094,0"
           style="fill:#00e800;fill-opacity:1;fill-rule:evenodd;stroke:#00e800;stroke-width:0.80000001;stroke-linecap:round;stroke-opacity:1"
           inkscape:connector-curvature="0" />
        <path
           id="path7667"
           d="M -1.2866832,-3.9585227 3.0617053,0"
           style="fill:#00e800;fill-opacity:1;fill-rule:evenodd;stroke:#00e800;stroke-width:0.80000001;stroke-linecap:round;stroke-opacity:1"
           inkscape:connector-curvature="0" />
        <path
           id="path7669"
           d="M 1.3053582,-3.9585227 5.6537466,0"
           style="fill:#00e800;fill-opacity:1;fill-rule:evenodd;stroke:#00e800;stroke-width:0.80000001;stroke-linecap:round;stroke-opacity:1"
           inkscape:connector-curvature="0" />
        <path
           id="path7671"
           d="M -3.8048674,4.1775838 0.54352094,0.21974226"
           style="fill:#00e800;fill-opacity:1;fill-rule:evenodd;stroke:#00e800;stroke-width:0.80000001;stroke-linecap:round;stroke-opacity:1"
           inkscape:connector-curvature="0" />
        <path
           id="path7673"
           d="M -1.2866832,4.1775838 3.0617053,0.21974226"
           style="fill:#00e800;fill-opacity:1;fill-rule:evenodd;stroke:#00e800;stroke-width:0.80000001;stroke-linecap:round;stroke-opacity:1"
           inkscape:connector-curvature="0" />
        <path
           id="path7675"
           d="M 1.3053582,4.1775838 5.6537466,0.21974226"
           style="fill:#00e800;fill-opacity:1;fill-rule:evenodd;stroke:#00e800;stroke-width:0.80000001;stroke-linecap:round;stroke-opacity:1"
           inkscape:connector-curvature="0" />
      </g>
    </marker>
    <marker
       inkscape:stockid="DotL"
       orient="auto"
       refY="0"
       refX="0"
       id="DotL"
       style="overflow:visible"
       inkscape:isstock="true">
      <path
         id="path7690"
         d="m -2.5,-1 c 0,2.76 -2.24,5 -5,5 -2.76,0 -5,-2.24 -5,-5 0,-2.76 2.24,-5 5,-5 2.76,0 5,2.24 5,5 z"
         style="fill:#00e800;fill-opacity:1;fill-rule:evenodd;stroke:#00e800;stroke-width:1.00000003pt;stroke-opacity:1"
         transform="matrix(0.8,0,0,0.8,5.92,0.8)"
         inkscape:connector-curvature="0" />
    </marker>
    <marker
       style="overflow:visible"
       id="DistanceStart"
       refX="0"
       refY="0"
       orient="auto"
       inkscape:stockid="DistanceStart"
       inkscape:isstock="true">
      <g
         id="g2300"
         style="fill:#00e800;fill-opacity:1;stroke:#00e800;stroke-opacity:1">
        <path
           style="fill:#00e800;fill-opacity:1;stroke:#00e800;stroke-width:1.14999998;stroke-linecap:square;stroke-opacity:1"
           d="M 0,0 H 2"
           id="path2306"
           inkscape:connector-curvature="0" />
        <path
           style="fill:#00e800;fill-opacity:1;fill-rule:evenodd;stroke:#00e800;stroke-opacity:1"
           d="M 0,0 13,4 9,0 13,-4 Z"
           id="path2302"
           inkscape:connector-curvature="0" />
        <path
           style="fill:#00e800;fill-opacity:1;stroke:#00e800;stroke-width:1;stroke-linecap:square;stroke-opacity:1"
           d="M 0,-4 V 40"
           id="path2304"
           inkscape:connector-curvature="0" />
      </g>
    </marker>
    <marker
       inkscape:stockid="Arrow1Lstart"
       orient="auto"
       refY="0"
       refX="0"
       id="Arrow1Lstart"
       style="overflow:visible"
       inkscape:isstock="true">
      <path
         id="path7629"
         d="M 0,0 5,-5 -12.5,0 5,5 Z"
         style="fill:#00e800;fill-opacity:1;fill-rule:evenodd;stroke:#00e800;stroke-width:1.00000003pt;stroke-opacity:1"
         transform="matrix(0.8,0,0,0.8,10,0)"
         inkscape:connector-curvature="0" />
    </marker>
    <linearGradient
       id="linearGradient7625"
       osb:paint="solid">
      <stop
         style="stop-color:#000000;stop-opacity:1;"
         offset="0"
         id="stop7623" />
    </linearGradient>
    <inkscape:path-effect
       effect="skeletal"
       id="path-effect6163"
       is_visible="true"
       pattern="M 0,5 C 0,2.24 2.24,0 5,0 7.76,0 10,2.24 10,5 10,7.76 7.76,10 5,10 2.24,10 0,7.76 0,5 Z"
       copytype="single_stretched"
       prop_scale="0.26458333"
       scale_y_rel="false"
       spacing="0"
       normal_offset="0"
       tang_offset="0"
       prop_units="false"
       vertical_pattern="false"
       fuse_tolerance="0" />
    <inkscape:path-effect
       effect="bspline"
       id="path-effect6161"
       is_visible="true"
       weight="33.333333"
       steps="2"
       helper_size="0"
       apply_no_weight="true"
       apply_with_weight="true"
       only_selected="false" />
    <inkscape:path-effect
       effect="skeletal"
       id="path-effect6157"
       is_visible="true"
       pattern="M 0,5 C 0,2.24 2.24,0 5,0 7.76,0 10,2.24 10,5 10,7.76 7.76,10 5,10 2.24,10 0,7.76 0,5 Z"
       copytype="single_stretched"
       prop_scale="0.26458333"
       scale_y_rel="false"
       spacing="0"
       normal_offset="0"
       tang_offset="0"
       prop_units="false"
       vertical_pattern="false"
       fuse_tolerance="0" />
    <inkscape:path-effect
       effect="skeletal"
       id="path-effect6153"
       is_visible="true"
       pattern="M 0,5 C 0,2.24 2.24,0 5,0 7.76,0 10,2.24 10,5 10,7.76 7.76,10 5,10 2.24,10 0,7.76 0,5 Z"
       copytype="single_stretched"
       prop_scale="0.26458333"
       scale_y_rel="false"
       spacing="0"
       normal_offset="0"
       tang_offset="0"
       prop_units="false"
       vertical_pattern="false"
       fuse_tolerance="0" />
    <inkscape:path-effect
       effect="powerstroke"
       id="path-effect6149"
       is_visible="true"
       offset_points="0,0.13229166"
       sort_points="true"
       interpolator_type="CubicBezierJohan"
       interpolator_beta="0.2"
       start_linecap_type="zerowidth"
       linejoin_type="extrp_arc"
       miter_limit="4"
       end_linecap_type="zerowidth" />
    <inkscape:path-effect
       effect="powerstroke"
       id="path-effect6145"
       is_visible="true"
       offset_points="0,0.13229166"
       sort_points="true"
       interpolator_type="CubicBezierJohan"
       interpolator_beta="0.2"
       start_linecap_type="zerowidth"
       linejoin_type="extrp_arc"
       miter_limit="4"
       end_linecap_type="zerowidth" />
    <inkscape:path-effect
       effect="bspline"
       id="path-effect6137"
       is_visible="true"
       weight="33.333333"
       steps="2"
       helper_size="0"
       apply_no_weight="true"
       apply_with_weight="true"
       only_selected="false" />
    <inkscape:path-effect
       effect="spiro"
       id="path-effect6133"
       is_visible="true" />
  </defs>
  <sodipodi:namedview
     id="base"
     pagecolor="#ffffff"
     bordercolor="#666666"
     borderopacity="1.0"
     inkscape:pageopacity="0.0"
     inkscape:pageshadow="2"
     inkscape:zoom="1.4"
     inkscape:cx="385.39908"
     inkscape:cy="87.030953"
     inkscape:document-units="mm"
     inkscape:current-layer="layer1"
     showgrid="false"
     inkscape:window-width="1680"
     inkscape:window-height="987"
     inkscape:window-x="-8"
     inkscape:window-y="-8"
     inkscape:window-maximized="1"
     units="mm"
     height="30mm" />
  <metadata
     id="metadata5114">
    <rdf:RDF>
      <cc:Work
         rdf:about="">
        <dc:format>image/svg+xml</dc:format>
        <dc:type
           rdf:resource="http://purl.org/dc/dcmitype/StillImage" />
        <dc:title></dc:title>
      </cc:Work>
    </rdf:RDF>
  </metadata>
  <g
     inkscape:label="Layer 1"
     inkscape:groupmode="layer"
     id="layer1"
     transform="translate(0,-267)">
    <path
      class="stroke-single"
      fill="none"
      stroke-width="0.26458332px"
      stroke-linecap="butt"
      stroke-linejoin="miter"
      stroke-opacity="1"       d="m -3.0238094,274.88839 c 2.03717566,-1.19997 4.2880188,-2.036 6.6145833,-2.45684 2.3270727,-0.42094 4.8200616,-0.40625 6.9481431,0.62512 1.064041,0.51568 2.015363,1.28406 2.679867,2.2621 0.664505,0.97803 1.031337,2.16941 0.955323,3.34938 -0.06206,0.96337 -0.432345,1.9249 -1.123077,2.5993 -0.345366,0.33721 -0.766728,0.59871 -1.227228,0.74336 -0.4605,0.14465 -0.95983,0.17064 -1.429457,0.0591 -0.4530324,-0.10757 -0.873824,-0.34204 -1.2111318,-0.66303 -0.3373077,-0.32099 -0.5912394,-0.72707 -0.7424087,-1.16748 -0.3023386,-0.88081 -0.1811547,-1.88115 0.2526478,-2.7052 0.5223498,-0.99225 1.4760927,-1.72783 2.5432117,-2.07231 1.067118,-0.34449 2.236944,-0.31365 3.315419,-0.007 1.400426,0.39876 2.635718,1.23897 3.746279,2.18069 1.110562,0.94173 2.122409,1.99619 3.246281,2.92199 1.664039,1.37077 3.603882,2.46291 5.721144,2.86941 2.117262,0.40651 4.423569,0.0745 6.185105,-1.16852 0.957896,-0.67592 1.749844,-1.63456 2.058051,-2.76568 0.154103,-0.56557 0.184358,-1.16733 0.06406,-1.74103 -0.120301,-0.57371 -0.393465,-1.11783 -0.799191,-1.54091 -0.515223,-0.53726 -1.236365,-0.86508 -1.978063,-0.9282 -0.741699,-0.0631 -1.498653,0.13354 -2.131386,0.52565 -0.632733,0.39211 -1.141103,0.97465 -1.470278,1.64229 -0.329175,0.66764 -0.481393,1.41778 -0.467892,2.16204 0.02837,1.56414 0.798619,3.07504 1.967739,4.11451 1.16912,1.03946 2.709337,1.62089 4.268869,1.74413 1.916498,0.15145 3.828016,-0.35874 5.619798,-1.05546 1.791782,-0.69672 3.507088,-1.58292 5.315413,-2.2355 1.808325,-0.65258 3.753562,-1.06926 5.653747,-0.77738 0.950093,0.14595 1.878016,0.47124 2.682248,0.99773 0.804233,0.52648 1.481345,1.25821 1.89546,2.12567 0.484212,1.01429 0.59373,2.2 0.316706,3.28927 -0.277023,1.08927 -0.936159,2.07513 -1.828612,2.75834 -0.731913,0.56031 -1.612323,0.91745 -2.522795,1.06128 -0.910472,0.14383 -1.849747,0.0772 -2.740881,-0.15841 -1.782269,-0.47127 -3.339131,-1.60369 -4.563705,-2.98173 -1.963844,-2.20996 -3.124388,-5.01703 -4.913688,-7.37054 -2.888588,-3.79943 -7.379834,-6.25463 -12.095239,-6.99256 -1.383287,-0.21648 -2.79695,-0.29347 -4.184171,-0.10383 -1.387222,0.18963 -2.750102,0.65368 -3.899189,1.45365 -1.149086,0.79997 -2.074596,1.94809 -2.500569,3.28184 -0.425972,1.33375 -0.323874,2.85063 0.378572,4.06179 0.595792,1.02727 1.592607,1.79453 2.705936,2.20774 1.11333,0.41321 2.336258,0.48629 3.511421,0.3153 2.350325,-0.34199 4.450918,-1.61057 6.444844,-2.90101 4.796858,-3.10447 9.647247,-6.59401 15.308037,-7.37054 2.962546,-0.40639 5.999551,-0.0305 8.863794,0.82852 2.864242,0.85904 5.567478,2.19143 8.145133,3.70719 2.854707,1.67868 5.651046,3.62188 8.882441,4.34673 1.820554,0.40838 3.777306,0.39874 5.49999,-0.31788 0.861341,-0.35832 1.654079,-0.89121 2.282613,-1.58058 0.628534,-0.68938 1.089461,-1.53692 1.288824,-2.44827 0.295307,-1.34994 -0.0018,-2.80244 -0.727882,-3.97821 -0.726032,-1.17576 -1.860868,-2.07692 -3.137768,-2.60518 -1.2769,-0.52827 -2.689479,-0.69375 -4.065764,-0.56974 -1.376285,0.124 -2.718066,0.531 -3.974835,1.10552 -1.706707,0.7802 -3.29232,1.89535 -4.40916,3.40341 -1.116839,1.50805 -1.730381,3.4346 -1.449469,5.29004 0.198111,1.30853 0.83219,2.53698 1.733451,3.50612 0.901262,0.96914 2.061811,1.683 3.311338,2.1191 2.499054,0.87221 5.275396,0.63004 7.806401,-0.14457 4.495964,-1.37599 8.33188,-4.31588 11.90625,-7.37053 3.44968,-2.94809 6.914756,-6.14801 11.257388,-7.46448 2.171314,-0.65823 4.534914,-0.80313 6.707524,-0.14918 2.17261,0.65395 4.12897,2.15732 5.09163,4.21187 0.67999,1.45126 0.84506,3.11949 0.57534,4.6993 -0.26972,1.5798 -0.96083,3.07221 -1.89825,4.37213 -1.01854,1.41241 -2.3393,2.6159 -3.87679,3.43347 -1.53749,0.81758 -3.29308,1.24135 -5.03154,1.14099 -1.738463,-0.10036 -3.453288,-0.7349 -4.792793,-1.84757 -1.339505,-1.11268 -2.28639,-2.70678 -2.551856,-4.42778 -0.209708,-1.35952 0.0051,-2.7779 0.585046,-4.02525 0.579989,-1.24735 1.520273,-2.32092 2.666449,-3.08155 1.146177,-0.76062 2.493801,-1.20882 3.865554,-1.31167 1.37174,-0.10286 2.76495,0.13733 4.03325,0.66996 2.27978,0.95742 4.05693,2.78306 5.9308,4.39634 0.93694,0.80664 1.91811,1.57334 3.00812,2.15677 1.09001,0.58343 2.29824,0.97989 3.53429,1.00641 1.07239,0.023 2.1496,-0.23696 3.09339,-0.74666 0.9438,-0.5097 1.75195,-1.26795 2.32057,-2.17746 0.56862,-0.90951 0.89637,-1.96815 0.94099,-3.03985 0.0446,-1.07171 -0.19401,-2.15396 -0.6853,-3.10746 -0.49069,-0.95233 -1.23444,-1.77573 -2.14296,-2.34345 -0.90853,-0.56771 -1.98041,-0.87591 -3.05157,-0.85741 -1.07115,0.0185 -2.13724,0.36648 -3.00143,0.99965 -0.86419,0.63316 -1.52007,1.55084 -1.82041,2.57919 -0.42658,1.46061 -0.11276,3.09316 0.72555,4.36304 0.83831,1.26988 2.16701,2.18142 3.62117,2.62952 2.13609,0.65823 4.47544,0.34313 6.57207,-0.43165 2.09663,-0.77479 3.99961,-1.98426 5.90115,-3.15913 2.74535,-1.69622 5.66248,-3.38306 8.88337,-3.583 1.61044,-0.1 3.26749,0.19586 4.66549,1.00153 1.39801,0.80567 2.51406,2.14701 2.8931,3.7154 0.16135,0.66766 0.18943,1.36998 0.0566,2.04389 -0.13286,0.67391 -0.42875,1.31823 -0.87303,1.84209 -0.44428,0.52386 -1.03818,0.92398 -1.69798,1.11494 -0.65981,0.19097 -1.38362,0.16813 -2.02127,-0.0872 -0.66385,-0.26585 -1.21878,-0.77643 -1.57848,-1.39449 -0.35969,-0.61805 -0.52882,-1.33857 -0.5277,-2.05367 0.002,-1.4302 0.66659,-2.78922 1.53921,-3.92237 1.44938,-1.88211 3.48771,-3.26444 5.6979,-4.13513 2.21019,-0.8707 4.59076,-1.24913 6.96431,-1.34553 1.88627,-0.0766 3.80628,0.0263 5.59784,0.62144 1.79156,0.59514 3.45525,1.72374 4.41852,3.34731 0.75466,1.27196 1.0451,2.79438 0.92013,4.26807 -0.12497,1.4737 -0.65206,2.89846 -1.42308,4.16057 -1.54204,2.52422 -3.9892,4.35411 -6.48961,5.93446 -3.56018,2.25018 -7.51058,4.16945 -11.7205,4.29113 -2.10496,0.0608 -4.24201,-0.34573 -6.10653,-1.32456 -1.86453,-0.97883 -3.44178,-2.54865 -4.28457,-4.47848 -0.85929,-1.96762 -0.92148,-4.2559 -0.24407,-6.2933 0.67742,-2.0374 2.07506,-3.81426 3.85224,-5.01905 1.77718,-1.20479 3.91955,-1.84255 6.06617,-1.88634 2.14662,-0.0438 4.29253,0.49708 6.20066,1.48143 1.59245,0.8215 3.01106,1.93719 4.516,2.90977 1.50494,0.97258 3.15101,1.81995 4.9334,2.00392 1.30108,0.13429 2.62464,-0.0947 3.8498,-0.55279 1.22516,-0.45808 2.35707,-1.14015 3.40825,-1.91852 2.10235,-1.55676 3.89393,-3.49804 5.97112,-5.08821 3.40984,-2.61036 7.72983,-4.24116 11.99532,-3.7445 2.13274,0.24833 4.21437,1.0308 5.9219,2.33257 1.70752,1.30178 3.027,3.1302 3.62742,5.19169 0.37509,1.28785 0.46923,2.66343 0.2166,3.98078 -0.25264,1.31736 -0.85766,2.57307 -1.77265,3.55391 -0.915,0.98083 -2.14255,1.67737 -3.46444,1.90509 -1.32189,0.22772 -2.73067,-0.0256 -3.86195,-0.74633 -1.22854,-0.78269 -2.09126,-2.09657 -2.38293,-3.52375 -0.29167,-1.42718 -0.0238,-2.95049 0.68204,-4.22476 0.98146,-1.77197 2.81836,-3.04457 4.82272,-3.3373 2.00436,-0.29273 4.13,0.40241 5.57162,1.82539 1.01784,1.00469 1.67767,2.30869 2.5437,3.44684 0.43302,0.56908 0.92388,1.10222 1.51128,1.51004 0.5874,0.40781 1.27805,0.68614 1.99264,0.71277 0.69826,0.026 1.39277,-0.18953 1.99574,-0.54263 0.60296,-0.3531 1.11958,-0.83917 1.57156,-1.37205 0.90395,-1.06577 1.5625,-2.32314 2.48032,-3.37699 1.80853,-2.07658 4.62469,-3.23193 7.37054,-3.02381"
       id="path8866"
       inkscape:connector-curvature="0"
       inkscape:path-effect="#path-effect8868"
       inkscape:original-d="m -3.0238094,274.88839 c 2.20512558,-0.81921 4.4099867,-1.63816 6.6145833,-2.45684 2.2045964,-0.81869 7.0558201,4.15747 10.5833331,6.2366 3.527513,2.07914 -2.519577,2.2676 -3.779762,3.40179 -1.260185,1.13419 -1.1336639,-3.02407 -1.7008927,-4.53571 -0.5672288,-1.51164 3.9060187,-1.38618 5.8586307,-2.07887 1.952612,-0.69269 4.661971,3.40152 6.99256,5.10268 2.330588,1.70115 7.937764,1.13366 11.906249,1.70089 3.968485,0.56723 0.882208,-4.03201 1.322917,-6.04762 0.440708,-2.01561 -4.03148,2.26759 -6.047619,3.40178 -2.016138,1.1342 4.158002,3.90549 6.236608,5.85864 2.078604,1.95314 14.111375,-0.63023 21.166666,-0.94494 7.055289,-0.31472 -1.007673,4.03148 -1.511906,6.04761 -0.504232,2.01614 -6.551321,-1.38617 -9.827381,-2.07886 -3.276058,-0.6927 -3.275529,-4.91396 -4.913688,-7.37054 -1.638163,-2.45658 -8.063228,-4.66197 -12.095239,-6.99256 -4.032011,-2.33059 -6.803307,5.79537 -10.205357,8.69345 -3.402051,2.89808 8.441732,-0.25225 12.662201,-0.37797 4.220472,-0.12573 10.205622,-4.91396 15.308037,-7.37054 5.102413,-2.45658 11.33955,3.02355 17.008927,4.53571 5.669378,1.51217 5.921891,2.89756 8.882441,4.34673 2.96055,1.44917 6.047883,-2.89808 9.071427,-4.34673 3.023548,-1.44864 -7.937235,-4.03201 -11.906249,-6.04761 -3.969015,-2.01561 -3.905489,5.79537 -5.858629,8.69345 -1.953141,2.89808 8.567724,3.6535 12.85119,5.48065 4.283464,1.82715 7.937765,-4.91395 11.90625,-7.37053 3.968485,-2.45658 15.371292,-2.26812 23.056542,-3.40179 7.68526,-1.13366 -0.88168,6.04736 -1.32291,9.07143 -0.44124,3.02407 -10.835056,-1.13419 -16.252979,-1.70089 -5.417923,-0.5667 7.433799,-5.16594 11.150299,-7.74851 3.7165,-2.58258 8.31574,5.03941 12.47321,7.55952 4.15748,2.5201 3.78003,-6.04788 5.66965,-9.07143 1.88961,-3.02354 -6.67732,0.25172 -10.01637,0.37798 -3.33906,0.12625 2.89808,4.66144 4.34672,6.99256 1.44865,2.33111 8.31574,-2.39412 12.47322,-3.59078 4.15747,-1.19666 10.96157,0.75569 16.44196,1.13393 5.48039,0.37824 -3.02354,3.27553 -4.53571,4.91369 -1.51217,1.63816 -0.37771,-4.91395 -0.56697,-7.37053 -0.18925,-2.45658 8.44174,-3.65404 12.66221,-5.48066 4.22046,-1.82662 6.67784,2.64557 10.01636,3.96875 3.33853,1.32318 -4.66144,9.57513 -6.99256,14.3631 -2.33111,4.78796 -14.7408,-1.0082 -22.1116,-1.51191 -7.3708,-0.5037 10.5836,-7.81177 15.875,-11.71726 5.2914,-3.90549 6.29987,3.27553 9.4494,4.91369 3.14954,1.63816 8.81971,-5.03995 13.22917,-7.55952 4.40946,-2.51958 14.36336,2.51957 21.54464,3.77976 7.18129,1.26018 -5.92136,5.79537 -8.88244,8.69345 -2.96108,2.89808 -1.13366,-5.16594 -1.70089,-7.74851 -0.56723,-2.58257 6.92983,-1.0082 10.39434,-1.51191 3.46452,-0.5037 4.03201,3.7795 6.04762,5.66965 2.01561,1.89014 4.03201,-3.52805 6.04762,-5.29167 2.01561,-1.76362 4.91396,-2.01614 7.37054,-3.02381" />
  </g>
</svg>
